<svg width="650" height="260" viewBox="0 0 650 260" fill="none" xmlns="http://www.w3.org/2000/svg">
<g clip-path="url(#clip0_132_548)">
<path d="M123.485 142.911C122.269 142.911 120.966 142.911 119.75 142.825C118.534 142.738 117.665 141.695 117.752 140.479C117.839 139.263 118.881 138.395 120.097 138.482C134.602 139.437 148.674 134.225 159.965 123.716C171.778 112.685 178.727 97.4842 178.727 82.9788C178.727 70.9923 171.083 57.9635 158.402 48.1485C141.204 34.8591 118.447 29.8213 96.9926 34.7722L96.6452 92.099C96.6452 93.315 95.6897 94.2705 94.4737 94.2705C93.2577 94.2705 92.3022 93.315 92.3022 92.099L92.5628 32.9482C92.5628 31.9928 93.2577 31.1242 94.2131 30.8636C117.318 25.0441 142.333 30.1687 160.921 44.6741C174.644 55.3578 182.896 69.6895 182.896 82.9788C182.983 98.6134 175.426 115.03 162.745 126.843C151.714 137.266 137.816 142.911 123.485 142.911Z" fill="#070707"/>
<path d="M91.9553 230.465C84.8329 230.465 77.7104 229.944 70.6749 228.815C57.3855 226.643 46.8756 224.993 36.8 216.828C25.7689 207.882 19.1676 194.332 17.083 176.7C16.6487 172.965 13.5218 139.698 36.7131 119.546C46.8756 110.687 57.1249 106.605 72.0646 105.302C81.6191 104.433 100.294 104.694 116.71 104.954C126.872 105.128 135.732 105.215 140.422 105.041C141.638 105.041 142.594 105.91 142.681 107.126C142.681 108.342 141.812 109.297 140.596 109.384C135.732 109.558 126.872 109.471 116.623 109.297C100.294 109.123 81.7059 108.863 72.4121 109.645C58.2541 110.861 49.0471 114.509 39.6663 122.76C18.1253 141.522 21.0785 172.617 21.5128 176.178C22.2077 182.345 24.466 201.107 39.6663 213.441C48.7865 220.911 58.3409 222.387 71.4566 224.472C86.57 226.904 102.118 226.643 117.752 223.603V181.216C115.755 181.216 113.844 181.129 112.02 181.129C109.501 181.042 106.895 180.956 104.376 181.042C103.16 181.042 102.205 180.174 102.118 178.958C102.031 177.742 102.986 176.786 104.202 176.7C106.982 176.613 109.588 176.7 112.193 176.786C114.712 176.873 117.318 176.96 119.837 176.873C120.445 176.873 120.966 177.047 121.4 177.481C121.835 177.916 122.095 178.437 122.095 179.045V225.427C122.095 226.47 121.4 227.338 120.358 227.599C110.804 229.51 101.336 230.465 91.9553 230.465Z" fill="#070707"/>
<path d="M95.5166 208.577C94.3005 208.577 93.3451 207.621 93.3451 206.405L93.1714 123.282C93.1714 122.066 94.1268 121.11 95.3429 121.11C96.5589 121.11 97.5143 122.066 97.5143 123.282L97.688 206.405C97.688 207.621 96.7326 208.577 95.5166 208.577Z" fill="#070707"/>
<path d="M240.136 29.0396C254.12 29.0396 268.018 40.0706 268.018 54.4892C268.018 70.1237 257.595 80.9811 239.354 80.9811C236.835 80.9811 229.192 79.4176 224.588 73.9455V118.157H216.858V29.0396H240.136ZM224.501 73.3375C228.41 77.0724 233.448 80.1125 239.441 80.3731C251.08 78.8096 260.2 67.6048 260.2 55.0103C260.2 41.3735 248.996 30.7767 237.965 29.6476H224.501V73.3375Z" fill="#0C0B0B" stroke="#070706" stroke-width="0.868587" stroke-miterlimit="10"/>
<path d="M318.743 117.462H357.048V118.157H311.36V29.0396H357.048V29.7344H318.743V73.3375H350.36V74.0324H318.743V117.462Z" fill="#0C0B0B" stroke="#070706" stroke-width="0.868587" stroke-miterlimit="10"/>
<path d="M437.653 118.157L421.497 78.9834L401.172 118.157H400.39L421.149 78.2017L401.519 29.1265H409.51L426.013 69.5158L447.381 29.1265H448.162L426.274 70.2975L445.644 118.157H437.653Z" fill="#0C0B0B" stroke="#070706" stroke-width="0.868587" stroke-miterlimit="10"/>
<path d="M529.028 118.157L512.872 78.9834L492.46 118.157H491.679L512.438 78.2017L492.808 29.1265H500.799L517.302 69.5158L538.669 29.1265H539.451L517.649 70.2975L537.019 118.157H529.028Z" fill="#0C0B0B" stroke="#070706" stroke-width="0.868587" stroke-miterlimit="10"/>
<path d="M590.437 117.462H628.742V118.157H583.054V29.0396H628.742V29.7344H590.437V73.3375H622.054V74.0324H590.437V117.462Z" fill="#0C0B0B" stroke="#070706" stroke-width="0.868587" stroke-miterlimit="10"/>
<path d="M259.245 153.074C276.53 153.074 288.429 162.889 290.34 165.495V175.744L287.734 173.399C280.438 166.537 269.407 156.027 250.646 156.027L245.434 156.288C243.35 156.548 242.481 156.896 241.265 157.59C228.584 164.105 222.59 177.134 222.59 190.249C222.59 214.135 242.568 234.46 265.412 236.284L268.278 236.371C276.703 236.371 281.915 232.984 288.516 227.685V197.198H258.984V196.59H289.211V227.859C284.781 232.115 276.356 240.019 260.808 240.019L257.16 239.932C236.661 238.369 224.501 224.906 218.942 207.013C217.813 202.062 217.292 197.719 217.292 193.637C217.292 168.621 237.009 158.72 242.828 156.201C248.561 153.855 254.207 153.074 259.245 153.074Z" fill="#0C0B0B" stroke="#070706" stroke-width="0.868587" stroke-miterlimit="10"/>
<path d="M339.85 153.508H347.146V240.106H339.85V153.508Z" fill="#0C0B0B" stroke="#070706" stroke-width="0.868587" stroke-miterlimit="10"/>
<path d="M419.412 153.508C433.049 153.508 446.512 164.279 446.512 178.263C446.512 193.289 436.263 204.06 418.891 204.06L447.12 240.106H438L404.125 197.198V240.106H396.568V153.508H419.412ZM404.212 196.503C407.947 200.151 412.898 203.104 418.717 203.365C430.009 201.802 438.955 190.944 438.955 178.697C438.955 165.495 428.098 155.072 417.328 154.029H404.212V196.503Z" fill="#0C0B0B" stroke="#070706" stroke-width="0.868587" stroke-miterlimit="10"/>
<path d="M496.63 153.508H503.927V239.498H541.363V240.106H496.63V153.508Z" fill="#0C0B0B" stroke="#070706" stroke-width="0.868587" stroke-miterlimit="10"/>
<path d="M620.925 219.694C620.925 211.095 610.328 203.886 604.683 200.238C588.44 189.468 584.705 184.777 584.705 175.744C584.705 160.717 595.041 153.161 606.246 153.161C616.843 153.161 625.529 159.936 628.134 168.882L627.526 169.23C626.224 162.976 618.406 154.724 612.066 154.724C601.556 154.724 591.567 163.41 591.567 173.399C591.567 182.606 600.253 188.599 609.112 194.766C618.58 201.367 628.134 207.969 628.134 218.913C628.134 230.725 616.756 239.759 605.464 239.759C593.912 239.759 585.226 230.204 583.142 219.173H583.75C585.4 227.338 591.827 237.848 601.382 237.848C610.502 237.848 620.925 228.293 620.925 219.694Z" fill="#0C0B0B" stroke="#070706" stroke-width="0.868587" stroke-miterlimit="10"/>
</g>
<defs>
<clipPath id="clip0_132_548">
<rect width="650" height="260" fill="white"/>
</clipPath>
</defs>
</svg>
