<svg xmlns="http://www.w3.org/2000/svg" viewBox="0 0 2743.58 1059.6"><defs><style>.cls-1{fill:#1d1d1b;}</style></defs><g id="Layer_2" data-name="Layer 2"><g id="Camada_1" data-name="Camada 1"><path class="cls-1" d="M160.73,651.74q0,22.31,12.61,34.32t36.08,12h27V853H154.28q-73.34,0-113.8-42.24T0,691.63V0H160.73Z"/><path class="cls-1" d="M282.59,80.39,363,0l80.39,80.39L363,160.79Zm785.4,0L1148.39,0l80.39,80.39-80.39,80.4ZM282.59,244.06H443.32V853H282.59Z"/><path class="cls-1" d="M883.12,244.06h160.15L814.49,853H700.69L471.92,244.06H632.06L757.59,625.93Z"/><rect class="cls-1" x="1071.86" y="244.06" width="160.73" height="608.89"/><path class="cls-1" d="M1325.71,244.06h160.72V853H1325.71Zm352,239.92q0-44.58-25.52-69.22t-72.45-24.64q-44.58,0-68.92,24.93t-24.35,70.1l-12.31-134.92q27.56-57.48,66-86.23t96.49-28.74q96.21,0,149,64.82t52.79,183.31V853H1677.67Z"/><path class="cls-1" d="M1938.51,246.45h58.08l1-4a671.51,671.51,0,0,1,24.49-82.58q13.89-37.12,35.61-63.39a147.12,147.12,0,0,1,53.54-40.65q31.82-14.4,78.28-14.4a135.1,135.1,0,0,1,24.5,2.28q12.36,2.27,23.73,5.55a176.29,176.29,0,0,1,20.71,7.32q9.35,4.05,16.42,7.58l-43.44,97a217.58,217.58,0,0,0-22.22-6.06A129.94,129.94,0,0,0,2182,152.5q-15.15,0-25.26,4.8T2139.27,173q-7.33,10.88-12.88,28t-11.11,41.42l-1,4h280.81L2263.77,854h-119.7l107.07-496H2090L1981.94,854l-1,4.54a673.79,673.79,0,0,1-24.49,82.58q-13.9,37.13-35.86,63.38a149.44,149.44,0,0,1-53.79,40.66q-31.82,14.4-77.78,14.4-36.36,0-59.35-10.86t-36.11-23l29.8-98.49q4.55,3,10.86,6.57a111,111,0,0,0,15.15,6.82,132.55,132.55,0,0,0,20.46,5.55,137.17,137.17,0,0,0,26.26,2.27q15.15,0,25.25-4.79T1838.76,928q7.31-10.87,12.88-28t11.11-41.42l109.6-500.52h-57.08ZM2290,131.29Q2290,96,2310,76.49t64.9-19.44q31.82,0,46.47,10.86T2436,101.49q0,34.86-19.44,54.55t-66.92,19.7Q2290,175.74,2290,131.29Z"/><path class="cls-1" d="M2685,51.49l-15.15,71.22h-.51l-26.77,123.74h101l-23.74,111.61h-101l-65.66,305.06q-4.05,17.18-6.06,30.56a159.44,159.44,0,0,0-2,23.48q0,17.69,7.82,25.76t26.52,8.08a156.82,156.82,0,0,0,27.78-2.27,183.76,183.76,0,0,0,23-5.55,189.17,189.17,0,0,0,18.44-6.82q8.07-3.52,14.14-6.57L2648.63,830.3q-19.22,12.12-47,23T2536,864.14q-32.85,0-54.81-7.32t-35.6-21a77.05,77.05,0,0,1-19.45-33.33q-5.8-19.69-5.8-44.45a302.23,302.23,0,0,1,3.53-44.44q3.52-23.73,9.09-50.51l65.66-305.06h-63.13l23.74-111.61h63.13l42.43-195Z"/><path class="cls-1" d="M28.7,961.06H81.77v10.67H41.42v32.75H78.7V1015H41.42v44.59H28.7Z"/><path class="cls-1" d="M258.78,961.06v98.54H246.06V961.06Z"/><path class="cls-1" d="M445.88,971.88h-30V961.06h73v10.82H458.74v87.72H445.88Z"/><path class="cls-1" d="M667.91,1059.6l-25-98.54h13.45l11.7,49.85c2.92,12.29,5.55,24.56,7.31,34.07h.29c1.61-9.8,4.68-21.49,8-34.22l13.16-49.7h13.3l12,50c2.78,11.7,5.41,23.4,6.87,33.78h.3c2-10.82,4.82-21.78,7.89-34.07l13-49.7h13l-27.93,98.54H722l-12.43-51.32a295.16,295.16,0,0,1-6.43-32.16h-.3a305.7,305.7,0,0,1-7.6,32.16l-14,51.32Z"/><path class="cls-1" d="M972.69,1013.4H934.38v35.53h42.7v10.67H921.67V961.06h53.21v10.67h-40.5v31.14h38.31Z"/><path class="cls-1" d="M1155.69,1028.61l-10.24,31H1132.3l33.48-98.54h15.35l33.63,98.54h-13.6l-10.53-31Zm32.31-9.95-9.65-28.36c-2.19-6.44-3.65-12.28-5.12-18h-.29c-1.46,5.85-3.07,11.84-5,17.84l-9.65,28.51Z"/><path class="cls-1" d="M1375.39,962.37a132.9,132.9,0,0,1,24.41-2c13.6,0,22.37,2.49,28.51,8,5,4.39,7.75,11.11,7.75,18.71,0,13-8.19,21.64-18.57,25.15v.44c7.61,2.62,12.14,9.65,14.48,19.88,3.21,13.74,5.55,23.25,7.6,27h-13.16c-1.61-2.78-3.8-11.26-6.58-23.54-2.92-13.6-8.18-18.72-19.74-19.15h-12v42.69h-12.72Zm12.72,44.89h13c13.59,0,22.22-7.46,22.22-18.72,0-12.72-9.21-18.28-22.66-18.42a52.51,52.51,0,0,0-12.57,1.17Z"/></g></g></svg>