<svg width="207" height="83" viewBox="0 0 207 83" fill="none" xmlns="http://www.w3.org/2000/svg">
<g clip-path="url(#clip0_132_565)">
<mask id="mask0_132_565" style="mask-type:luminance" maskUnits="userSpaceOnUse" x="24" y="66" width="160" height="10">
<path d="M24.9336 66.3059H183.453V75.3718H24.9336V66.3059Z" fill="white"/>
</mask>
<g mask="url(#mask0_132_565)">
<mask id="mask1_132_565" style="mask-type:luminance" maskUnits="userSpaceOnUse" x="24" y="66" width="160" height="10">
<path d="M30.1191 67.1849H25.7679V70.3673H29.4787V71.084H25.7679V75.2265H24.9336V66.4528H30.1191V67.1849ZM44.3007 75.2216H43.3608L42.2221 72.4256H38.1347L37.0374 75.2216H36.1324L39.7004 66.4528H40.5647L44.3007 75.2216ZM41.9372 71.7398L40.1224 67.3277L38.3896 71.7398H41.9372ZM50.3091 72.5839L51.133 72.5124C51.1987 73.2291 51.443 73.7729 51.8594 74.1389C52.2765 74.505 52.8203 74.6933 53.5013 74.6933L54.7772 74.4644C55.1229 74.3167 55.3924 74.0878 55.5807 73.7932L55.8599 73.1836C55.8599 71.9686 55.0978 71.3891 53.5678 71.1091C52.5306 70.9216 51.7831 70.6319 51.3359 70.2456C50.8887 69.8592 50.6655 69.3252 50.6655 68.6442C50.6655 67.9219 50.9292 67.3529 51.4527 66.9309C51.9762 66.5088 52.6426 66.3059 53.4558 66.3059C54.3608 66.3059 55.0669 66.5088 55.5701 66.9154C56.0733 67.3221 56.3485 67.9373 56.3988 68.7708L55.5855 68.8065C55.489 67.5972 54.8031 66.9917 53.5216 66.9917C52.9323 66.9917 52.4445 67.1346 52.0525 67.4187C51.6613 67.7035 51.4682 68.085 51.4682 68.5777C51.4682 69.4112 52.1694 69.9704 53.5678 70.2504C54.6043 70.4639 55.377 70.7536 55.8858 71.1351C56.3939 71.5157 56.6528 72.0701 56.6528 72.7973L56.4499 73.8338C56.3128 74.1438 56.1042 74.4181 55.8242 74.6527L54.8283 75.1859C54.4468 75.3134 54.0248 75.3694 53.5622 75.3694C51.5696 75.3694 50.482 74.4392 50.3091 72.5782V72.5839ZM70.4383 75.2216H69.6308V70.9622H64.5475V75.2216H63.7237V66.4528H64.5475V70.2399H69.6308V66.4528H70.4383V75.2216ZM79.1106 75.2216H78.2819V66.4528H79.1106V75.2216ZM94.6955 70.8397C94.6955 72.2073 94.3351 73.3054 93.6128 74.1341C92.8912 74.9627 91.8848 75.3694 90.6138 75.3694C89.7754 75.3694 89.0587 75.1859 88.4589 74.8256C87.8591 74.4644 87.3908 73.936 87.0507 73.2599C86.7099 72.5839 86.537 71.7755 86.537 70.8397C86.537 69.4729 86.903 68.3747 87.6302 67.5461C88.3567 66.7174 89.3485 66.3059 90.6138 66.3059C91.4676 66.3059 92.1948 66.4885 92.7946 66.8594C93.3944 67.2312 93.8668 67.7595 94.1971 68.4356C94.5283 69.1117 94.6955 69.9152 94.6955 70.8453V70.8397ZM93.8319 70.8397C93.8319 69.6912 93.547 68.7611 92.9724 68.0493C92.3978 67.3375 91.6105 66.982 90.6089 66.982C89.6025 66.982 88.8144 67.3424 88.2503 68.0493C87.6862 68.7562 87.4014 69.6912 87.4014 70.8348C87.4014 71.9686 87.6911 72.8939 88.2658 73.6106C88.8396 74.3272 89.6228 74.6827 90.6138 74.6827C91.2696 74.6827 91.8288 74.5253 92.3012 74.2104C92.7743 73.8946 93.1404 73.4531 93.4196 72.8679C93.6996 72.2835 93.8368 71.6075 93.8368 70.8299L93.8319 70.8397ZM108.552 75.2216H107.678L102.62 67.7498L102.692 75.2216H101.858V66.4528H102.692L107.805 74.0115L107.734 66.4528H108.552V75.2216ZM125.011 75.2216V66.4528H128.382C129.225 66.4528 129.927 66.6517 130.487 67.0477C131.046 67.4446 131.457 67.9779 131.707 68.6393C131.956 69.3 132.088 70.0167 132.088 70.7837C132.088 72.187 131.763 73.2745 131.112 74.0578C130.461 74.8402 129.551 75.2216 128.377 75.2216H125.011ZM125.846 67.1906V74.4896H127.909C128.412 74.4896 128.845 74.449 129.2 74.3678L130.227 73.7932C130.552 73.4937 130.802 73.0871 130.97 72.5839C131.137 72.0806 131.224 71.4597 131.224 70.7333C131.224 68.3747 130.115 67.1955 127.909 67.1955L125.846 67.1906ZM145.137 75.2216H139.346V66.4528H144.953V67.1955H140.185V70.347H144.598V71.0685H140.185V74.5001H145.137V75.2216ZM158.922 75.2216H158.047L152.99 67.7498L153.056 75.2216H152.222V66.4528H153.056L158.17 74.0115L158.103 66.4528H158.922V75.2216ZM167.604 75.2216H166.775V66.4528H167.604V75.2216ZM183.433 75.2216H182.605L182.742 67.3529L179.743 75.2216H179.051L176.098 67.3578L176.23 75.2265H175.412V66.4528H176.576L179.402 74.0423L182.254 66.4528H183.433V75.2216Z" fill="white"/>
</mask>
<g mask="url(#mask1_132_565)">
<path d="M24.9336 66.3059H183.419V75.3718H24.9336V66.3059Z" fill="black"/>
</g>
</g>
<mask id="mask2_132_565" style="mask-type:luminance" maskUnits="userSpaceOnUse" x="24" y="5" width="160" height="40">
<path d="M24.7998 5.76709H183.445V44.5645H24.7998V5.76709Z" fill="white"/>
</mask>
<g mask="url(#mask2_132_565)">
<mask id="mask3_132_565" style="mask-type:luminance" maskUnits="userSpaceOnUse" x="24" y="5" width="160" height="40">
<path d="M57.9404 41.69L58.1393 42.1827C58.1393 43.0065 57.951 43.4585 57.5695 43.84C57.1888 44.2215 56.7359 44.4098 56.2076 44.4098C55.3481 44.4098 54.7385 44.0129 54.3774 43.2199L51.0635 35.2091H31.9147L28.596 43.2248C28.3314 44.0177 27.7365 44.4146 26.8169 44.4146C26.2577 44.4146 25.7999 44.2263 25.4542 43.8449C25.1084 43.4642 24.9355 43.0113 24.9355 42.483L24.9867 41.8726L39.6309 7.10409C39.9969 6.21454 40.6227 5.76733 41.5122 5.76733C42.4018 5.76733 43.0113 6.21454 43.3416 7.10409L57.9404 41.69ZM33.2978 31.8945H49.7267L41.5122 12.0501L33.2978 31.8945ZM92.4809 44.4146C91.9217 44.4146 91.459 44.2312 91.093 43.8708C90.7269 43.5097 90.5492 43.047 90.5492 42.483V7.69901C90.5492 7.1398 90.7318 6.67717 91.093 6.31112C91.4542 5.94508 91.9217 5.76733 92.4809 5.76733C93.0758 5.76733 93.5684 5.99621 93.9653 6.45884L117.622 37.5369V7.69901C117.622 7.1398 117.81 6.67717 118.192 6.31112C118.572 5.94508 119.02 5.76733 119.549 5.76733C120.108 5.76733 120.571 5.94995 120.937 6.31112C121.303 6.6723 121.48 7.13493 121.48 7.69901V42.483C121.48 43.0113 121.297 43.4642 120.937 43.8449C120.575 44.2263 120.113 44.4146 119.549 44.4146C118.888 44.4146 118.41 44.2012 118.115 43.7686L94.4125 12.6954V42.483C94.4125 43.0113 94.2291 43.4642 93.8687 43.8449C93.5076 44.2263 93.0449 44.4146 92.4809 44.4146ZM160.128 44.4146C159.598 44.4146 159.146 44.2263 158.765 43.8449C158.383 43.4642 158.196 43.0113 158.196 42.483V7.69901C158.196 7.17064 158.383 6.71775 158.765 6.33629C159.146 5.95563 159.598 5.76733 160.128 5.76733C160.687 5.76733 161.149 5.94995 161.515 6.31112C161.881 6.6723 162.059 7.13493 162.059 7.69901V24.5241L180.12 6.45884C180.582 5.99621 181.09 5.76733 181.654 5.76733C182.219 5.76733 182.651 5.92966 182.966 6.25999C183.281 6.59114 183.434 7.00263 183.434 7.49529C183.434 8.09021 183.22 8.61858 182.788 9.07634L169.232 22.6435L182.941 41.3491C183.205 41.776 183.337 42.1729 183.337 42.539C183.337 43.0316 183.164 43.4691 182.818 43.8505C182.473 44.2312 182.051 44.4195 181.558 44.4195C180.831 44.4195 180.287 44.1403 179.926 43.5811L166.461 25.3625L162.059 29.8159V42.483C162.059 43.0113 161.876 43.4642 161.515 43.8449C161.154 44.2263 160.692 44.4146 160.128 44.4146Z" fill="white"/>
</mask>
<g mask="url(#mask3_132_565)">
<path d="M24.9355 5.76733H183.446V44.4138H24.9355V5.76733Z" fill="black"/>
</g>
</g>
</g>
<defs>
<clipPath id="clip0_132_565">
<rect width="206.364" height="82.5454" fill="white"/>
</clipPath>
</defs>
</svg>
