<svg width="650" height="260" viewBox="0 0 650 260" fill="none" xmlns="http://www.w3.org/2000/svg">
<rect width="650" height="260" fill="white"/>
<g clip-path="url(#clip0_132_513)">
<mask id="mask0_132_513" style="mask-type:luminance" maskUnits="userSpaceOnUse" x="-15" y="9" width="679" height="233">
<path d="M663.158 9.53394H-14.1616V241.657H663.158V9.53394Z" fill="white"/>
</mask>
<g mask="url(#mask0_132_513)">
<mask id="mask1_132_513" style="mask-type:luminance" maskUnits="userSpaceOnUse" x="-15" y="9" width="679" height="233">
<path d="M663.158 9.53394H-14.1616V241.657H663.158V9.53394Z" fill="white"/>
</mask>
<g mask="url(#mask1_132_513)">
<path d="M105.283 164.753V146.321C105.283 145.145 105.265 143.969 105.23 142.793C105.198 141.572 105.093 140.354 104.916 139.145C104.516 136.083 103.617 133.108 102.253 130.337C99.5935 124.894 95.0035 120.636 89.3767 118.392C86.3622 117.196 83.1442 116.597 79.9013 116.628C77.5319 116.624 75.1717 116.921 72.8776 117.514C70.6222 118.095 68.4631 119 66.4678 120.202C64.4559 121.425 62.6459 122.953 61.1021 124.731C60.7176 125.169 60.3507 125.627 60.0015 126.1C59.8826 126.264 59.7267 126.399 59.5464 126.492C59.3661 126.585 59.1664 126.634 58.9635 126.636C58.7606 126.637 58.5602 126.591 58.3783 126.501C58.1965 126.411 58.0383 126.28 57.9166 126.118C56.2743 123.931 54.2784 122.034 52.0112 120.505C48.1978 117.933 43.5447 116.625 38.2285 116.625C36.1262 116.607 34.0307 116.865 31.995 117.39C30.1159 117.891 28.315 118.65 26.6435 119.644C25.0631 120.595 23.5956 121.721 22.2692 123.003V117.006C22.2692 116.902 22.2284 116.803 22.1557 116.73C22.083 116.657 21.9844 116.615 21.8811 116.614H12.3881C12.2848 116.615 12.1861 116.657 12.1134 116.73C12.0408 116.803 12 116.902 12 117.006V136.577H12.0318V164.753C12.0104 164.803 11.9996 164.857 12 164.912V184.487C12 184.59 12.0408 184.689 12.1134 184.763C12.1861 184.836 12.2848 184.878 12.3881 184.879H21.4684C21.5716 184.878 21.6703 184.836 21.743 184.763C21.8157 184.689 21.8564 184.59 21.8564 184.487V164.894C21.8564 164.873 21.8564 164.859 21.8564 164.838V141.153C21.9482 139.093 22.4773 137.076 23.4086 135.237C25.2126 131.684 28.2902 128.943 32.0268 127.56C33.9032 126.855 35.8922 126.496 37.8969 126.502C41.8012 126.445 45.5824 127.868 48.48 130.485C49.8132 131.693 50.9237 133.126 51.7608 134.718C52.607 136.338 53.1712 138.091 53.4294 139.9C53.5843 140.927 53.6844 141.961 53.7292 142.998C53.7786 144.056 53.8033 145.143 53.8033 146.173V184.469C53.8033 184.685 54.0749 184.861 54.2901 184.861H63.2364C63.2878 184.861 63.3387 184.851 63.3863 184.831C63.4338 184.812 63.4769 184.783 63.5133 184.746C63.5496 184.71 63.5785 184.667 63.5982 184.619C63.6178 184.572 63.628 184.521 63.628 184.469V164.894C63.6259 164.869 63.6199 164.844 63.6103 164.82V146.173C63.5956 143.861 63.7773 141.553 64.1536 139.272C64.4309 137.477 65.0359 135.748 65.9386 134.171C66.8203 132.629 67.9653 131.252 69.3217 130.104C70.7036 128.945 72.277 128.035 73.9712 127.416C75.7795 126.758 77.6912 126.429 79.6155 126.446C81.8993 126.403 84.1631 126.878 86.237 127.836C88.1138 128.727 89.7931 129.985 91.1758 131.536C92.5394 133.098 93.6016 134.9 94.3084 136.849C95.0419 138.818 95.4667 140.888 95.5678 142.987V184.469C95.5678 184.522 95.5784 184.574 95.5989 184.623C95.6195 184.671 95.6496 184.715 95.6875 184.751C95.7253 184.788 95.7702 184.817 95.8193 184.835C95.8685 184.854 95.9209 184.863 95.9735 184.861H104.92C105.023 184.86 105.122 184.818 105.194 184.745C105.267 184.672 105.308 184.573 105.308 184.469V164.894C105.307 164.847 105.299 164.801 105.283 164.757" fill="black"/>
<path d="M545.093 164.753V146.321C545.093 145.142 545.093 143.961 545.044 142.793C545.01 141.572 544.905 140.354 544.73 139.145C544.328 136.088 543.429 133.117 542.066 130.351C539.407 124.907 534.815 120.649 529.187 118.406C526.173 117.21 522.957 116.611 519.715 116.642C517.345 116.637 514.985 116.935 512.691 117.528C510.435 118.109 508.274 119.014 506.278 120.216C504.267 121.44 502.457 122.968 500.912 124.745C500.531 125.183 500.164 125.641 499.815 126.114C499.696 126.278 499.54 126.412 499.36 126.506C499.18 126.599 498.98 126.648 498.777 126.65C498.574 126.651 498.374 126.605 498.192 126.515C498.01 126.425 497.852 126.294 497.73 126.132C496.088 123.945 494.092 122.048 491.825 120.519C488.008 117.947 483.358 116.639 478.042 116.639C475.94 116.621 473.844 116.879 471.808 117.404C469.928 117.906 468.126 118.664 466.453 119.658C464.875 120.61 463.408 121.736 462.083 123.017V117.02C462.083 116.916 462.042 116.817 461.969 116.744C461.897 116.671 461.798 116.629 461.695 116.628H452.202C452.098 116.629 452 116.671 451.927 116.744C451.854 116.817 451.813 116.916 451.813 117.02V136.591H451.849V164.753C451.826 164.803 451.814 164.857 451.813 164.912V184.487C451.818 184.587 451.861 184.682 451.933 184.751C452.005 184.821 452.101 184.86 452.202 184.861H461.278C461.382 184.86 461.48 184.818 461.553 184.745C461.626 184.672 461.666 184.572 461.666 184.469V164.894C461.668 164.875 461.668 164.856 461.666 164.838V141.153C461.761 139.093 462.291 137.076 463.222 135.237C465.026 131.685 468.102 128.945 471.837 127.56C473.714 126.855 475.705 126.496 477.71 126.502C481.615 126.444 485.396 127.867 488.293 130.485C489.626 131.693 490.735 133.126 491.571 134.718C492.42 136.337 492.985 138.09 493.243 139.9C493.396 140.927 493.496 141.961 493.543 142.998C493.592 144.056 493.617 145.142 493.617 146.172V184.469C493.617 184.684 493.888 184.861 494.1 184.861H503.05C503.153 184.86 503.252 184.818 503.324 184.745C503.397 184.672 503.438 184.572 503.438 184.469V164.894C503.44 164.869 503.44 164.845 503.438 164.82V146.172C503.431 143.86 503.621 141.552 504.006 139.272C504.277 137.478 504.874 135.749 505.77 134.171C506.653 132.628 507.799 131.252 509.156 130.104C510.538 128.944 512.112 128.035 513.806 127.416C515.614 126.757 517.526 126.429 519.45 126.446C521.733 126.403 523.995 126.878 526.068 127.835C527.945 128.726 529.625 129.985 531.007 131.536C532.371 133.098 533.433 134.899 534.14 136.849C534.871 138.818 535.296 140.888 535.399 142.987V184.469C535.399 184.572 535.44 184.672 535.512 184.745C535.585 184.818 535.684 184.86 535.787 184.861H544.737C544.84 184.86 544.939 184.818 545.011 184.745C545.084 184.672 545.125 184.572 545.125 184.469V164.894C545.125 164.847 545.115 164.8 545.097 164.756" fill="black"/>
<path d="M187.324 121.362C187.324 121.306 187.324 121.256 187.324 121.2V116.967C187.323 116.863 187.281 116.765 187.208 116.692C187.134 116.619 187.035 116.579 186.932 116.579H177.435C177.22 116.579 177.435 116.751 177.435 116.967V127.278C177.111 126.925 176.377 126.22 176.056 125.867C172.022 121.956 167.05 119.15 161.617 117.718C155.846 116.22 149.783 116.265 144.035 117.849C141.153 118.651 138.388 119.825 135.808 121.341C130.721 124.35 126.463 128.579 123.419 133.646C121.89 136.198 120.704 138.94 119.891 141.802C118.245 147.722 118.245 153.979 119.891 159.899C121.498 165.621 124.576 170.822 128.82 174.983C130.924 177.053 133.271 178.858 135.812 180.36C141.065 183.464 147.059 185.093 153.161 185.076C158.855 185.095 164.456 183.637 169.417 180.843C171.818 179.485 174.035 177.825 176.014 175.904C176.503 175.42 176.973 174.922 177.425 174.412V184.66C177.426 184.762 177.467 184.86 177.54 184.932C177.612 185.004 177.711 185.044 177.813 185.044H186.95C187.052 185.044 187.15 185.004 187.223 184.932C187.295 184.86 187.337 184.762 187.338 184.66L187.324 121.362ZM175.83 160.41C174.536 163.355 172.706 166.033 170.433 168.309C168.141 170.582 165.439 172.401 162.471 173.671C159.438 174.98 156.168 175.649 152.865 175.636C149.633 175.654 146.435 174.971 143.492 173.636C140.596 172.326 137.974 170.479 135.766 168.192C133.552 165.88 131.786 163.179 130.556 160.223C129.296 157.233 128.65 154.021 128.658 150.776C128.648 147.561 129.315 144.379 130.616 141.438C131.899 138.516 133.706 135.852 135.946 133.579C138.188 131.321 140.826 129.495 143.728 128.192C146.629 126.881 149.777 126.207 152.96 126.216H153.091C156.325 126.238 159.52 126.929 162.474 128.245C168.416 130.856 173.17 135.591 175.806 141.523C177.131 144.462 177.813 147.651 177.806 150.875C177.821 154.154 177.147 157.399 175.827 160.4" fill="black"/>
<path d="M226.428 117.718C223.714 118.447 221.106 119.522 218.667 120.918C216.241 122.309 213.999 123.999 211.992 125.948C211.64 126.283 211.329 126.636 211.001 126.985V117.072C211.001 116.969 210.96 116.871 210.887 116.798C210.815 116.725 210.716 116.684 210.613 116.684H201.12C201.017 116.684 200.918 116.725 200.846 116.798C200.773 116.871 200.732 116.969 200.732 117.072V121.757C200.732 121.838 200.711 121.912 200.711 121.997C200.711 121.997 200.665 183.591 200.711 184.127V184.547C200.709 184.658 200.747 184.767 200.818 184.852C200.889 184.938 200.989 184.995 201.099 185.012H210.169C210.279 184.995 210.378 184.938 210.45 184.852C210.521 184.767 210.559 184.658 210.557 184.547V184.226C210.627 183.7 210.991 147.234 210.991 147.234C211.315 145.343 211.439 143.502 212.229 141.738C213.537 138.775 215.378 136.077 217.658 133.776C219.936 131.491 222.616 129.646 225.564 128.333C228.385 127.068 231.43 126.378 234.52 126.301V116.638C231.789 116.663 229.07 117.025 226.428 117.718Z" fill="black"/>
<path d="M298.746 116.677H289.496C289.393 116.677 289.295 116.718 289.222 116.791C289.149 116.864 289.108 116.963 289.108 117.066V118.41V198.785C289.039 200.364 288.719 201.923 288.163 203.403C287.623 204.702 286.844 205.887 285.866 206.899C284.856 207.931 283.659 208.762 282.338 209.347C280.914 209.968 279.374 210.28 277.819 210.26C276.474 210.299 275.133 210.094 273.861 209.654C272.85 209.281 271.879 208.808 270.962 208.243C270.369 207.862 269.551 207.272 269.103 206.955C268.952 206.847 268.769 206.796 268.584 206.812C268.4 206.827 268.227 206.908 268.097 207.04L262.234 212.977C262.096 213.116 262.016 213.303 262.009 213.499C262.003 213.695 262.07 213.887 262.199 214.035C264.056 216.132 266.416 217.722 269.057 218.656C271.903 219.683 274.907 220.202 277.932 220.191C280.709 220.208 283.464 219.692 286.046 218.671C288.5 217.701 290.752 216.285 292.689 214.494C294.624 212.67 296.182 210.483 297.275 208.059C298.421 205.504 299.042 202.745 299.102 199.945C299.141 199.346 299.162 198.732 299.162 198.125V117.066C299.161 116.962 299.12 116.864 299.046 116.791C298.973 116.718 298.874 116.677 298.771 116.677" fill="black"/>
<path d="M636.99 144.571C637.009 140.88 636.342 137.217 635.025 133.769C633.765 130.466 631.883 127.436 629.483 124.841C627.04 122.238 624.086 120.168 620.805 118.762C617.264 117.258 613.451 116.502 609.604 116.543C607.805 116.557 606.009 116.703 604.232 116.981C602.163 117.305 600.139 117.873 598.203 118.671C596.079 119.548 594.079 120.701 592.255 122.099C591.719 122.505 591.197 122.943 590.692 123.412V117.062C590.692 116.959 590.651 116.86 590.579 116.788C590.506 116.715 590.407 116.674 590.304 116.674H581.379C581.276 116.674 581.178 116.715 581.105 116.788C581.032 116.86 580.991 116.959 580.991 117.062L580.963 184.625C580.963 184.727 581.004 184.826 581.077 184.899C581.149 184.972 581.248 185.013 581.351 185.013H590.301C590.404 185.013 590.502 184.972 590.575 184.899C590.648 184.826 590.689 184.727 590.689 184.625V143.372C590.747 140.963 591.341 138.597 592.428 136.447C593.48 134.381 594.917 132.536 596.661 131.01C598.406 129.495 600.405 128.3 602.567 127.483C604.713 126.657 606.994 126.231 609.294 126.227C611.877 126.178 614.438 126.702 616.794 127.761C618.899 128.737 620.786 130.126 622.343 131.847C623.868 133.563 625.064 135.546 625.871 137.695C626.704 139.851 627.18 142.128 627.282 144.437V184.653C627.283 184.756 627.324 184.855 627.398 184.927C627.471 185 627.57 185.041 627.673 185.041H636.62C636.722 185.041 636.821 185 636.894 184.927C636.967 184.854 637.008 184.756 637.008 184.653L636.99 144.571Z" fill="black"/>
<path d="M437.204 157.923C436.115 155.693 434.583 153.708 432.703 152.088C430.657 150.342 428.367 148.904 425.905 147.82C423.15 146.598 420.284 145.642 417.347 144.966L416.719 144.818C415.238 144.444 413.779 143.988 412.348 143.453C410.837 142.9 409.392 142.183 408.037 141.315C406.827 140.548 405.76 139.577 404.884 138.443C404.177 137.546 403.803 136.431 403.825 135.289C403.8 133.883 404.114 132.491 404.742 131.233C405.328 130.114 406.166 129.148 407.191 128.41C408.314 127.612 409.573 127.023 410.905 126.671C411.486 126.52 412.075 126.402 412.669 126.319C415.509 126.078 418.37 126.355 421.111 127.137L421.234 127.176C423.581 127.856 425.799 128.918 427.8 130.319L434.739 123.44C433.917 122.816 433.073 122.216 432.188 121.676C427.119 118.545 421.316 116.801 415.361 116.617C414.638 116.596 413.915 116.617 413.195 116.642V116.614C413.047 116.614 412.902 116.646 412.754 116.656H412.599C410.671 116.814 408.767 117.188 406.923 117.771C404.399 118.563 402.057 119.844 400.029 121.542C398.095 123.196 396.546 125.254 395.493 127.571C394.398 130.028 393.838 132.691 393.852 135.381C393.807 137.87 394.429 140.326 395.655 142.493C396.853 144.568 398.43 146.399 400.305 147.89C402.278 149.464 404.451 150.769 406.767 151.771C409.16 152.822 411.639 153.666 414.176 154.293C416.059 154.73 417.918 155.264 419.746 155.895C421.424 156.459 423.025 157.235 424.508 158.202C425.783 159.037 426.88 160.116 427.736 161.377C428.515 162.587 428.903 164.007 428.847 165.444C428.847 167.254 428.399 168.714 427.514 169.907C426.571 171.192 425.369 172.265 423.986 173.057C422.516 173.895 420.93 174.512 419.28 174.888C418.006 175.191 416.707 175.376 415.4 175.442C414.8 175.442 414.204 175.442 413.604 175.41L413.17 175.368V175.385C411.028 175.23 408.916 174.784 406.894 174.059L406.774 174.013C404.783 173.285 402.905 172.278 401.197 171.022L394.286 177.869C394.678 178.176 395.066 178.486 395.468 178.779C400.316 182.241 405.987 184.369 411.914 184.953C412.835 185.041 413.752 185.08 414.673 185.09V185.048C417.683 185.078 420.68 184.666 423.57 183.824C426.33 183.037 428.929 181.77 431.25 180.081C433.491 178.436 435.343 176.319 436.675 173.879C438.066 171.276 438.781 168.364 438.753 165.413C438.809 162.831 438.267 160.271 437.169 157.934" fill="black"/>
<path d="M257.673 117.066C257.673 116.963 257.632 116.864 257.559 116.791C257.486 116.718 257.388 116.677 257.285 116.677H248.254C248.151 116.677 248.052 116.718 247.979 116.791C247.907 116.864 247.866 116.963 247.866 117.066V122.981H257.673V117.066Z" fill="#070707"/>
<path d="M247.866 126.111L247.897 184.625C247.898 184.728 247.94 184.827 248.013 184.899C248.087 184.972 248.186 185.013 248.289 185.013H257.264C257.367 185.013 257.466 184.972 257.539 184.899C257.612 184.827 257.654 184.728 257.655 184.625L257.676 126.111H247.866Z" fill="black"/>
<path d="M567.949 117.066C567.948 116.962 567.906 116.864 567.833 116.791C567.759 116.718 567.66 116.677 567.557 116.677H558.53C558.427 116.677 558.328 116.718 558.255 116.791C558.182 116.864 558.142 116.963 558.142 117.066V122.981H567.949V117.066Z" fill="#050505"/>
<path d="M567.949 126.111H558.142L558.173 184.625C558.173 184.728 558.214 184.826 558.287 184.899C558.36 184.972 558.458 185.013 558.561 185.013H567.557C567.66 185.013 567.759 184.972 567.831 184.899C567.904 184.826 567.945 184.728 567.945 184.625V184.558C567.949 184.528 567.949 184.499 567.945 184.469L567.949 126.111Z" fill="black"/>
<path d="M380.835 121.362C380.835 121.306 380.835 121.256 380.835 121.2V116.967C380.835 116.864 380.794 116.765 380.722 116.692C380.649 116.619 380.55 116.579 380.447 116.579H370.965C370.75 116.579 370.965 116.751 370.965 116.967V127.278C370.64 126.925 369.907 126.22 369.582 125.867C365.549 121.957 360.578 119.151 355.147 117.718C349.376 116.22 343.313 116.265 337.564 117.849C334.682 118.65 331.917 119.824 329.338 121.341C326.801 122.84 324.46 124.647 322.367 126.721C320.279 128.79 318.458 131.111 316.945 133.632C315.413 136.182 314.227 138.925 313.417 141.788C311.766 147.707 311.766 153.965 313.417 159.885C315.018 165.611 318.093 170.817 322.335 174.983C324.438 177.053 326.784 178.858 329.324 180.36C331.903 181.876 334.668 183.05 337.55 183.852C340.523 184.671 343.593 185.083 346.677 185.076C352.369 185.095 357.969 183.636 362.929 180.843C365.33 179.486 367.547 177.826 369.526 175.904C370.019 175.421 370.492 174.923 370.937 174.412V184.66C370.937 184.711 370.947 184.761 370.966 184.808C370.986 184.855 371.014 184.897 371.05 184.933C371.087 184.969 371.129 184.997 371.176 185.016C371.223 185.035 371.274 185.045 371.325 185.044H380.458C380.509 185.045 380.559 185.035 380.606 185.016C380.653 184.997 380.696 184.969 380.732 184.933C380.768 184.897 380.797 184.855 380.816 184.808C380.836 184.761 380.846 184.711 380.846 184.66L380.835 121.362ZM369.342 160.396C366.746 166.36 361.968 171.104 355.986 173.657C352.953 174.966 349.683 175.635 346.38 175.622C343.148 175.64 339.95 174.958 337.007 173.622C334.112 172.312 331.491 170.465 329.285 168.178C327.07 165.866 325.302 163.165 324.071 160.209C322.814 157.219 322.17 154.006 322.177 150.762C322.17 147.55 322.841 144.373 324.145 141.438C325.427 138.515 327.234 135.851 329.475 133.579C331.716 131.319 334.354 129.493 337.258 128.192C340.157 126.88 343.304 126.207 346.486 126.216H346.617C349.852 126.239 353.048 126.929 356.004 128.245C361.944 130.86 366.696 135.594 369.335 141.523C370.66 144.462 371.342 147.651 371.335 150.875C371.351 154.154 370.675 157.399 369.353 160.4" fill="black"/>
<path d="M280.049 70.8946C272.454 66.1146 262.58 65.5255 250.695 69.1484C250.334 69.2633 250.028 69.5058 249.833 69.8305C249.638 70.1552 249.568 70.5398 249.637 70.9123C249.768 71.579 252.882 87.4466 265.24 93.9376C271.904 97.4441 279.891 97.4971 289.027 94.1211C290.086 93.733 291.144 93.3097 292.202 92.8334C292.511 92.6977 292.766 92.4643 292.929 92.1691C293.091 91.8739 293.152 91.5334 293.102 91.2001C293.017 90.6533 290.946 77.7596 280.049 70.9017M289.574 89.5633C285.81 84.0847 281.422 80.7722 271.936 81.0791L271.078 81.1073C270.899 81.119 270.731 81.1985 270.609 81.3295C270.486 81.4606 270.418 81.6334 270.419 81.8129L270.479 83.5344C270.486 83.7147 270.564 83.8848 270.696 84.0077C270.829 84.1306 271.004 84.1963 271.184 84.1906L272.041 84.1623C280.335 83.8942 283.828 86.54 287.211 91.5211C279.259 94.2939 272.373 94.2092 266.711 91.2354C257.627 86.473 254.011 75.53 252.999 71.7025C263.356 68.7992 271.9 69.4059 278.398 73.4946C285.641 78.0418 288.565 85.8415 289.585 89.5703" fill="#070707"/>
<path d="M340.02 57.5533C339.908 57.3556 339.756 57.1831 339.573 57.0466C339.391 56.91 339.183 56.8123 338.962 56.7595C338.203 56.5655 320.18 52.1735 307.467 61.9029C299.833 67.7484 295.85 77.3719 295.631 90.5126C295.626 90.8222 295.707 91.1271 295.865 91.3932C296.023 91.6593 296.253 91.876 296.527 92.019C300.195 93.7265 304.233 94.487 308.271 94.2308C311.063 94.0684 313.807 93.4301 316.385 92.3435C326.742 88.0009 334.729 76.7334 340.172 58.8585C340.238 58.6426 340.259 58.4154 340.234 58.191C340.209 57.9665 340.139 57.7495 340.027 57.5533M315.132 89.2603C310.69 91.1182 305.754 91.4361 301.11 90.1634C302.239 87.7257 308.147 76.4053 321.803 73.0293L322.706 72.8036C322.895 72.7568 323.058 72.637 323.16 72.4704C323.261 72.3039 323.292 72.104 323.246 71.9146L322.798 70.1049C322.75 69.9154 322.63 69.7524 322.463 69.6513C322.296 69.5502 322.095 69.5192 321.905 69.5651L320.999 69.7909C308.352 72.9235 301.78 82.0003 299.169 86.6322C300.02 76.5994 303.473 69.1877 309.481 64.5805C318.755 57.4651 331.758 58.8656 336.411 59.6664C331.324 75.4881 324.17 85.4398 315.132 89.2603Z" fill="#070707"/>
<path d="M301.568 54.3357C301.483 46.296 297.151 38.588 288.692 31.4303C288.361 31.1513 287.939 31.0036 287.507 31.0153C287.074 31.027 286.661 31.1973 286.346 31.4938C285.902 31.9136 275.495 41.9358 276.603 54.3957C277.209 61.2429 281.171 67.3847 288.367 72.6798V72.7115L288.456 72.7397C289.112 73.2195 289.786 73.6957 290.498 74.1508C290.82 74.3586 291.2 74.4562 291.582 74.4289C291.964 74.4015 292.326 74.2507 292.615 73.9991C292.989 73.671 301.688 65.8572 301.568 54.3216M280.106 54.0887C279.344 45.5623 285.164 38.0024 287.658 35.1979C294.467 41.329 297.956 47.7565 298.037 54.3286C298.107 60.2693 295.335 65.1763 293.098 68.1784C294.823 57.627 289.415 53.362 289.158 53.1786L288.389 52.5965C288.308 52.5349 288.216 52.4898 288.118 52.4637C288.02 52.4376 287.918 52.4311 287.817 52.4445C287.717 52.458 287.62 52.4911 287.532 52.542C287.444 52.5929 287.367 52.6606 287.306 52.7412L286.124 54.2828C286.001 54.4437 285.946 54.6463 285.97 54.8473C285.995 55.0483 286.097 55.2318 286.254 55.3587L287.016 55.969C287.21 56.1207 291.426 59.6308 289.362 69.0215C283.718 64.559 280.596 59.5567 280.106 54.1064" fill="#070707"/>
</g>
</g>
</g>
<defs>
<clipPath id="clip0_132_513">
<rect width="625" height="189.187" fill="white" transform="translate(12 31)"/>
</clipPath>
</defs>
</svg>
