<?xml version="1.0" encoding="utf-8"?>
<!-- Generator: Adobe Illustrator 25.2.1, SVG Export Plug-In . SVG Version: 6.00 Build 0)  -->
<svg version="1.1" xmlns="http://www.w3.org/2000/svg" xmlns:xlink="http://www.w3.org/1999/xlink" x="0px" y="0px"
	 viewBox="0 0 733.8 314" style="enable-background:new 0 0 733.8 314;" xml:space="preserve">
<style type="text/css">
	.st0{display:none;}
	.st1{display:inline;}
	.st2{fill:#FEFEFE;}
	.st3{fill:#0F0F0F;}
	.st4{fill:#111111;}
	.st5{fill:#B9B9B9;}
	.st6{fill:#9C9C9C;}
	.st7{fill:#2E2E2E;}
	.st8{fill:#A6A6A6;}
	.st9{fill:#393939;}
	.st10{fill:#454545;}
	.st11{fill:#C5C5C5;}
	.st12{fill:#CDCDCD;}
	.st13{fill:#CCCCCC;}
	.st14{fill:#8D8D8D;}
	.st15{fill:#979797;}
	.st16{fill:#D1D1D1;}
	.st17{fill:#515151;}
	.st18{fill:#BEBEBE;}
	.st19{fill:#7D7D7D;}
	.st20{fill:#D4D4D4;}
	.st21{fill:#CFCFCF;}
	.st22{fill:#D0D0D0;}
	.st23{fill:#E1E1E1;}
	.st24{fill:#343434;}
	.st25{fill:#4A4A4A;}
	.st26{fill:#1D1D1D;}
	.st27{fill:#4F4F4F;}
	.st28{fill:#070707;}
	.st29{fill:#BFBFBF;}
	.st30{fill:#080808;}
	.st31{fill:#070707;stroke:#070706;stroke-width:3;stroke-miterlimit:10;}
	.st32{fill:#0C0B0B;stroke:#070706;stroke-width:3.5;stroke-miterlimit:10;}
</style>
<g id="Layer_1" class="st0">
	<g class="st1">
		<g>
			<path class="st2" d="M-42.5,184c0-99.9,0-199.7-0.1-299.6c0-2.8,0.6-3.4,3.4-3.4c78.3,0.1,156.7,0.1,235,0c2.6,0,3.1,0.5,3.1,3.1
				c-0.1,200-0.1,399.9,0,599.9c0,2.6-0.5,3.1-3.1,3.1c-78.5-0.1-156.9-0.1-235.4,0c-2.6,0-3.1-0.5-3.1-3.1
				C-42.5,383.9-42.5,284-42.5,184z"/>
			<path class="st3" d="M21.1,160.7c0.6-0.7,1.1-1.4,1.7-2.1c0.5-0.9,0.8-2,1.8-2.5c4.6-4.1,9.6-7.6,14.5-11.4
				c0.7-0.4,1.6-0.5,2.3-0.8c10.1-5.3,20.9-6.9,32.2-6.9c10.6,0,21.2,0.1,31.8,0c12.6,0,25.2-1.1,37.8-0.7c2,0.1,5-0.7,5.1,2.3
				c0,3.2-3.1,2.2-5,2.1c-13.5-0.4-26.9,1.2-40.4,0.8c-5-0.1-10-0.2-14.9-0.5c-12.4-0.7-24.6,0.3-36.6,3.7c-1.3,0.4-2.4,1.3-3.7,1.7
				c-2.3,2.2-5.4,3-8,4.6c-13.1,8-20.9,19.9-25.7,34.1c-3.2,11-3.8,22.3-3.3,33.7c0.7,15.6,7.6,28.4,18.3,39.2
				c6.3,6.4,14.6,9.9,23.1,12.5c15.1,4.6,30.7,4.2,46.3,4.1c5.6-0.5,11.2-0.4,16.8-1.1c3.9-0.5,4.8-1.3,4.8-5.2
				c0-13.1,0-26.2,0-39.3c0-4.1-0.9-4.9-5.1-5c-2.5-0.1-5,0.2-7.5-0.2c-1.1-0.2-2.2-0.8-2.2-2.2c0-1.2,0.9-1.9,1.9-1.9
				c4.9,0.1,10-1.2,14.8,1c1.1,0.9,2,1.9,2.5,3.3c0.3,15.7,0.1,31.5,0.1,47.2c0,0.4-0.1,0.9-0.2,1.3c-1.7,4.9-6.2,4.9-10.2,5.3
				c-14.8,1.8-29.7,1.4-44.5,0.6c-14.9-0.9-29.3-4.8-41.2-14.6c-6.4-5.3-11.4-11.8-15-19.3c-2.4-5-4.7-10.1-6.2-15.5
				C2.5,204.4,5.4,181.2,21.1,160.7z"/>
			<path class="st4" d="M159.8,172.7c-0.2,0-0.4,0.1-0.6,0.2c-9.4,3.8-18.9,6.8-29.2,6.3c-2.3-0.1-4.4-0.5-6.6-0.9
				c-1.6-0.3-3.4-0.9-3-3c0.4-2,2.3-2.4,3.9-2c6.1,1.4,12.2,0.6,18.3-0.1c3.6-0.5,7-1.5,10.3-3.1c1.3-0.3,2.5-1.1,3.7-1.7
				c4.9-1.5,8.8-4.7,12.4-8.1c3.7-3.5,7-7.4,9.7-11.8c10.7-16.8,13.2-34.8,6.8-53.7c-1.6-4.8-4.4-9.1-7.1-13.5
				c-5.4-7.2-12.2-12.8-19.9-17.4c-9.2-5.2-19.3-7.2-29.6-8.4c-1.9-0.2-3.7-0.7-5.5-0.8c-0.9-0.1-1.9-0.4-1.8-1.5
				c0-1.1,1-1.4,1.9-1.4c2.7-0.1,5.5-0.3,8.2,0c11.7,1.3,22.9,4.4,33.1,10.7c4.4,2.7,8,6.4,11.5,10.1c1.4,1.4,3,2.6,4.4,4.1
				c4.1,5.5,7.2,11.6,9.6,18c1.3,3.5,2,7.1,2.5,10.8c2.8,20.9-3.5,39-16.7,54.9c-2.7,3.3-6.5,5.4-9.5,8.4
				C164.6,170.5,162.5,172.1,159.8,172.7z"/>
			<path class="st5" d="M159.9,65.4c-6.6-2.2-12.8-5.3-19.7-6.8c-12.3-2.6-24.7-3-37.2-2.7C99.4,56,99,58.2,99,60.9
				c0,18.5,0,37,0,55.4c0,1.6,0.1,3.3-0.3,4.8c-0.5,2-1.6,4-3.9,3.8c-2.4-0.2-3.5-2.2-3.5-4.6c0-1.9,0.2-3.7,0.2-5.6
				c0-18.5,0-37,0-55.4c0-4.1,1.1-7.4,5.3-8.9c1-0.4,1.9-1.1,3.1-1.1c9.8,0.4,19.6-0.9,29.3,1c15.7,1.2,30.3,5.4,42.6,15.8
				c0.5,0.6,1.7,1,0.3,1.9c-4.2-1.9-7.3-5.4-11.5-7.4c-7.7-3.6-15.5-6.7-24-7.6c-5.9-0.7-11.8-0.7-17.8-0.6
				c-5.4,0.1-10.9-1.1-16.4-0.6c-5.1,0.5-7.8,3.5-8.2,8.6c-0.1,1.1,0,2.2,0,3.4c0,14.7,0,29.5,0,44.2c0,2.1,0.2,4.2-0.5,6.3
				c-0.4,1.2-0.2,2.4,0.9,3.7c1.3-2.2,1.1-4.3,1.1-6.4c0-16.4,0-32.7,0-49.1c0-7.2,2.2-9.4,9.3-9.4c4.4,0,8.8,0.3,13.1-0.3
				c2.5-0.3,4.3,1.4,6.8,1.6c11.2,0.8,22.2,2.9,32.3,8C158.6,63,159.9,63.7,159.9,65.4z"/>
			<path class="st6" d="M123,223.9c-0.5-0.8-1-1.6-1.5-2.3c-4.9-2.3-10.1-0.7-15.1-1.1c-0.8,0-1.5,0.6-1.4,1.5
				c0.1,0.8,1,1.1,1.7,1.3c2.5,0.4,5,0.1,7.5,0.2c4.7,0.1,6.2,1.6,6.2,6.3c0,12.6,0,25.2,0,37.9c0,5.3-1.2,6.6-6.6,6.8
				c-5.5,0.3-10.9,0.8-16.4,1.1c-11.1,0.1-22.2,0.2-33.3-1.4c-25.1-3.6-43.4-15.8-51.8-40.5c-4.2-12.3-4.5-25-1.7-37.7
				c0.8-3.8,0.8-7.7,2.7-11.3c0.5,0.1,0.5,0.6,0.9,0.9c-1.6,5.4-2.7,10.9-3,16.5c-1,4.9-0.2,9.8-0.4,14.7c-0.1,1.6,0.2,3.2-0.2,4.8
				c1.6,7.3,3.2,14.5,7.1,21.1c6.4,10.9,14.5,19.8,26.5,24.6c18,7.3,36.8,7.4,55.7,6.3c5-0.3,10-0.3,14.9-1.1
				c2.4-0.4,3.5-1.3,3.5-3.8c0-13.1,0-26.2,0-39.4c0-2.9-1.4-4-4.1-4c-2.6,0-5.3,0.1-7.9-0.1c-3.9-0.4-4.7-2.1-3-5.8
				c6-1.2,11.9-1.4,17.9,0c0.7,0.8,1.5,1.5,2.2,2.3c1.2,1.1,1.2,2.6,1.2,4.1c0,14.9,0,29.9,0,44.8c0,1.5-0.2,3-1.1,4.2l0,0
				c-0.4,0.3-0.7,0.2-1-0.1c-0.2-0.8-0.3-1.5,0.3-2.1l0,0c0.6-1.2,0.3-2.4,0.3-3.7c0-13.8,0-27.6,0-41.4
				C123.5,226.3,123.9,225,123,223.9z"/>
			<path class="st7" d="M97.6,204.6c0,14.4,0,28.7,0,43.1c0,2.1,0.8,5.3-2.3,5.5c-3.3,0.1-2.8-3.2-2.8-5.4
				c-0.1-29-0.1-57.9-0.1-86.9c0-2.3-0.7-5.9,2.8-5.8c3.2,0.1,2.4,3.6,2.4,5.8C97.7,175.4,97.6,190,97.6,204.6
				C97.6,204.6,97.6,204.6,97.6,204.6z"/>
			<path class="st8" d="M14.4,185.5c-0.3-0.3-0.6-0.6-0.9-0.9c5-16,14.6-28.3,29.4-36.4c1-0.5,2-1.1,3-1.6
				c7.3-3.9,15.3-4.7,23.3-5.8c8.7-1.2,17.4-0.2,26.1,0c16.2,0.3,32.4-0.6,48.6-0.4c1.5,0,4.1,0.8,4-1.8c-0.1-2.2-2.5-1.5-4-1.5
				c-10.5,0.1-20.9-0.1-31.4,0.5c-7.9,0.5-15.9-0.1-23.8-0.3c-8.4-0.2-16.9-0.2-25.4,0.7c-0.5,0.1-1,0-1.4-0.3
				c-0.9-1.3,0.1-1.3,1-1.5c1.6-0.2,3.2,0.4,4.7-0.4l0,0c8-0.9,16.1-0.7,24.2-0.6c9.6,0.2,19.2,0.3,28.8,0
				c8.7-0.3,17.5-0.1,26.2-0.1c0.9,0,1.7,0.1,2.4,0.8c0.2,0.3,0.5,0.5,0.7,0.8c1.1,3.1,0.3,4.9-2.7,5.4c-1.1,0.2-2.2,0.1-3.4,0.1
				c-23.6,0-47.2,0-70.8,0c-1.4,0-2.7-0.3-4.1,0.3C43.8,144.1,22.5,159.6,14.4,185.5z"/>
			<path class="st9" d="M123.1,272.5c0,0.7-0.1,1.5-0.1,2.2c-0.5,2-2,2.6-3.8,3.1c-3.4,0.8-6.9,1.1-10.3,1.4
				c-10.4,0.9-20.9,1.3-31.3,0.7c-11.8-0.7-23.5-2-34.6-6.5c-12.2-4.8-21.4-13.3-28.6-24c-1.9-4.8-4.9-9.2-6-14.3
				c-0.5-2-2.3-3.8-0.7-6c2.5,6.1,4.5,12.4,7.9,18.1c9.1,15.2,22.3,24.3,39.7,27.9c20.8,4.3,41.6,3.2,62.5,1.2
				C120.4,276,121.6,274.1,123.1,272.5z"/>
			<path class="st10" d="M165.8,168.1c4.2-4.5,9.4-8.2,13.1-13.3c6.7-9.3,11-19.5,12.6-30.8c2.2-16.2-1-31.4-10.7-44.8
				c-0.4-0.5-0.6-1.1-0.8-1.7c-0.1-0.5,0-0.8,0.5-1c2.9,1,3.9,3.7,5.2,6c4.5,7.8,7.2,16.2,8,25.3c1.3,13.6-1.1,26.4-7.3,38.5
				c-0.4,0.8-0.6,1.6-0.9,2.4c-1.1,1.7-2.2,3.3-3.2,5c-4.5,5.6-9.1,11.2-15.5,14.9C166.3,168.6,166,168.4,165.8,168.1z"/>
			<path class="st11" d="M156.7,168.9c-1,0.4-1.5,1.7-2.9,1.4c-0.5-0.3-1.3,0-1.6-0.7c4.5-2.9,9.5-4.8,13.6-8.4
				c18.6-16,26.9-42.1,18.5-66.1c-1.5-4.3-4.6-8-5.8-12.4c1.7-0.2,2,1.4,2.5,2.3c6.7,11.3,9.8,23.4,7.9,36.6
				c-1.4,9.9-4.6,19-10,27.3C173.3,157.5,166.5,164.8,156.7,168.9z"/>
			<path class="st12" d="M185.4,148.7c0.1-3.6,2.5-6.4,3.6-9.7c6.8-20.5,6.2-40.2-5.8-58.7c-0.9-1.3-1.6-2.8-3.1-3.7
				c-2.8-2.7-6.1-4.9-7.6-8.7c-0.2-0.6-0.4-1.1-0.7-1.7c11.9,8.8,18.6,20.8,21.6,35.1c2.3,11,1.4,21.8-1.4,32.5
				C190.7,139.1,188.7,144.3,185.4,148.7z"/>
			<path class="st13" d="M42.2,272.5c19,6.9,38.7,7.5,58.6,6.3c5.3-0.3,10.7-0.2,16-1.2c2.4-0.4,4.6-1.1,6.3-2.9
				c0.3,0,0.5,0,0.8,0.1c-0.7,2.6-2.7,3.4-5,3.8c-6.6,1.3-13.4,1.6-20.1,1.9c-17,0.9-33.9,0-50.5-4.4c-2.7-0.7-5.5-1.5-7.7-3.5
				C41.1,272,41.6,272,42.2,272.5z"/>
			<path class="st14" d="M152.3,169.7c0.5,0.2,1,0.4,1.6,0.7c-8.6,3.8-17.6,5-26.9,4.2c-1.9-0.2-4.9-1.3-5.2,1
				c-0.3,2.4,3,1.9,4.8,2.1c10,1.2,19.6-0.7,29-3.9c1.2-0.4,2.3-1,3.6-0.9c-3.5,2.9-7.6,4.2-12,4.5c-6.1,2.5-12.5,2.9-18.9,2.3
				c-2-0.2-4-0.4-5.9-0.9c-1.9-0.5-3.2-1.7-3-3.7c0.2-2.2,2-2.6,3.9-2.6c1,0,2-0.3,2.9,0.4C135,173.5,143.8,172.9,152.3,169.7z"/>
			<path class="st15" d="M7.7,229c0.2,2,0.5,4,0.7,6c-3-3.2-2.8-7.3-3-11.3c-0.4-2-0.5-4.1-0.7-6.1c0-3.9,0-7.8,0-11.7
				c0.4-1.8,0.2-3.6,0.6-5.4c0-7.6,1.9-14.8,4.5-21.8c1.2-3.1,2.4-6.2,4.5-9c1.7-3.4,3.1-7.1,6.8-9c-0.4,3.3-3,5.3-4.6,7.9
				C8.3,182.9,5.7,198.4,6,214.6C6.1,219.4,6.4,224.2,7.7,229z"/>
			<path class="st16" d="M149.2,136.1c-7.4-0.1-14.7-0.2-22.1-0.2c-19.8,0-39.7,0.1-59.5,0.1c3.1-0.9,6.3-1,9.5-1.1
				c14.6-0.7,29.1,1.3,43.7,0c8.3-0.7,16.7-0.2,25.1-0.3C147.2,134.6,148.4,135.1,149.2,136.1z"/>
			<path class="st17" d="M178.4,149.4c5.5-9.2,9.5-19,10.4-29.8c1.2-13.5-1.8-26-10.2-36.9c0-0.2,0-0.4-0.1-0.7
				c-0.4-0.5-0.4-1,0-1.5c10.8,14.4,13.9,30.3,9.8,47.8c-1.8,7.6-4.6,14.8-9.1,21.2C178.9,149.8,178.6,149.8,178.4,149.4z"/>
			<path class="st16" d="M69.1,142.7c2.6-1.1,5.4-0.7,8.1-0.7c22.2,0,44.4,0,66.6,0c5.3,0,6.1-0.8,6.1-5.1c2.7,2.2,1.2,3.9-0.9,5.2
				c-0.9,0.5-2.2,0.6-3.2,0.6C120.3,142.7,94.7,142.7,69.1,142.7z"/>
			<path class="st18" d="M42.2,272.5c-0.5,0-1.1,0-1.6,0.1c-11.7-4.4-20.3-12.2-26.2-23.2c1,0,1.6,0.5,2.1,1.3
				c6.1,9.3,13.9,16.5,24.2,20.8C41.2,271.6,41.7,272.1,42.2,272.5z"/>
			<path class="st13" d="M123.9,274.7c0.5-2.1,0.8-4.1,0.8-6.3c0-13.4,0-26.9,0-40.3c0-2.3-0.1-4.5-0.9-6.6c1.7,1,1.6,2.7,1.6,4.3
				c0,14.8,0,29.6,0,44.4C125.4,271.9,125.4,273.6,123.9,274.7z"/>
			<path class="st19" d="M178.6,80.5c0,0.5,0,1,0,1.5c-3.7-3.3-6.5-7.3-10.4-10.5c-2.7-2.2-5.6-4.1-8.3-6.2
				c-0.8-0.7-1.5-1.5-2.3-2.2c0.8-0.5,1.6-0.9,2.2,0.3C166.8,68.3,173.6,73.4,178.6,80.5z"/>
			<path class="st20" d="M126.1,172.7c-2.2,0.5-5.8-0.9-6,2.7c-0.1,3.3,3.4,2.9,5.7,3.3c7.2,1.4,14.3,0.1,21.3-1.4
				c-2.7,2.9-6.5,2.2-9.8,2.6c-4.4,0.6-8.9,0.5-13.3-0.4c-2.9-0.6-5.5-1.5-5.1-5.1C119.2,172.1,122,171.4,126.1,172.7z"/>
			<path class="st16" d="M67.6,136c-1.8,1.2-4.2,0.2-6,1.6c-0.3,0.6-0.8,1-1.4,1.1c-6.3,0.5-12,3-17.8,5.4c-0.3,0.1-0.7,0.1-1.1,0.1
				c-0.4-0.1-0.7-0.4-0.9-0.7C48.7,138,57.9,136,67.6,136z"/>
			<path class="st16" d="M40.4,143.4c0.4,0.1,0.8,0.1,1.2,0.2c0.1,0.8-0.5,1.1-1.1,1.3c-0.5,0.3-0.9,0.6-1.4,0.8
				C34,149,29.4,153,24.9,157c-0.7,0.5-1.4,1.1-2.1,1.6c-0.1-2.5,1.7-3.8,3.2-5.2C30.3,149.3,34.8,145.6,40.4,143.4z"/>
			<path class="st21" d="M166.6,168.4c4.9-3.9,9.6-7.9,13.2-13c0.6-0.8,1.3-1.5,2.3-1.7c-3.2,6.8-8.9,11.2-14.8,15.4
				C166.7,169.3,166.6,168.9,166.6,168.4z"/>
			<path class="st12" d="M129.2,50.4c-8.3-0.9-16.7-0.6-25-0.7c-2.5,0-5,0.1-7.4,0.7c1-1.1,2.3-1.4,3.7-1.4c7.8,0,15.6,0,23.4,0.1
				C125.7,49.1,127.5,49.6,129.2,50.4z"/>
			<path class="st13" d="M121.6,219.3c-6,0-11.9,0-17.9,0C107.2,217.1,118.5,217.1,121.6,219.3z"/>
			<path class="st22" d="M5.3,217.7c0,2,0,4,0.1,6.1c-2.1-7.8-2.1-15.5,0-23.3c0,1.8,0,3.5,0,5.3C4.9,209.7,4.9,213.7,5.3,217.7z"/>
			<path class="st23" d="M166.6,168.4c0.3,0.2,0.5,0.4,0.8,0.7c-2,2.4-4.2,4.3-7.6,3.6c2-1.5,4-3,6-4.6
				C166.1,168.2,166.3,168.3,166.6,168.4z"/>
			<path class="st20" d="M10.9,221.5c-0.1-6.5-1.2-13,0.6-19.5C11,208.5,12,215,10.9,221.5z"/>
			<path class="st16" d="M14.3,169.7c-1.3,3.1-2.5,6.2-4.5,9C10.2,175.1,11.6,172.1,14.3,169.7z"/>
			<path class="st24" d="M40.5,144.9c0.4-0.4,0.7-0.9,1.1-1.3c6.5-2.6,13.1-5,20.1-6c7.2,0.2,14.4-1.3,21.6-0.9
				c19.9,1.2,39.9-0.4,59.8-0.1c2.1,0,5.7-1.1,5.6,2.3c0,2.9-3.5,2.1-5.6,2.1c-21.1-0.1-42.1,0.5-63.2-0.1
				c-11.7-0.3-23.1,1.5-34.1,5.7c1.7-2.2,4.2-2.6,6.6-3.2c13.3-3.6,26.8-4.1,40.5-3.2c9.3,0.6,18.7,0.4,28.1-0.2
				c7.1-0.4,14.2-0.2,21.3-0.3c0.7,0,1.5,0.1,2.2,0c0.9-0.1,2.3,0.3,2.3-1.2c-0.1-1-1.3-1-2.2-1c-8,0-16-0.4-24,0.2
				c-10.1,0.7-20.2,0.2-30.3,0.3c-13.2,0.2-26.5-0.8-39.4,3.1C47.5,142.3,44.4,144.9,40.5,144.9z"/>
			<path class="st9" d="M97.6,275.4c5.3-1,10.6-1.2,16-1.6c5.5-0.4,6.4-1.3,6.4-6.9c0-12.1,0.1-24.2,0-36.3c0-5.7-1-6.7-6.9-6.7
				c-2.4,0-4.7,0-7.1-0.2c-1-0.1-2-0.6-2-1.8c0-0.8,0.6-1.5,1.3-1.6c5.2-0.3,10.4-1.1,15.5,0.4c0.3,0.1,0.5,0.6,0.7,0.9
				c-5.1-1-10.2-1-16.2-0.3c2.7,2.3,5.2,1.6,7.4,1.6c7,0.1,8.1,1.2,8.1,8c0,12.2,0,24.5,0,36.7c0,5.5-1.3,6.7-6.8,7.1
				C108.5,275.1,103.1,276,97.6,275.4z"/>
			<path class="st9" d="M123,223.9c1.1,1.3,0.8,2.8,0.8,4.3c0,13.4,0,26.9,0,40.3c0,1.4,0.1,2.8-0.7,4
				C123.1,256.3,123.1,240.1,123,223.9z"/>
			<path class="st25" d="M24.9,157c3.9-4.9,8.6-8.7,14.3-11.2C34.7,149.8,30,153.7,24.9,157z"/>
			<path class="st26" d="M159.8,63.6c-0.7-0.1-1.4-0.2-2.2-0.3c-12.2-6.2-25.4-7.9-38.8-8.7c-5-0.3-10-0.2-15-0.1
				c-5.2,0.1-6.7,1.5-6.7,6.8c-0.1,11.1-0.1,22.2-0.1,33.4c0,7.9,0.1,15.7,0,23.6c0,1.8,0.8,4.8-1.9,4.9c-2.9,0.1-2.6-2.9-2.5-4.9
				c0.5-17.4,0.3-34.7,0.2-52.1c0-2-0.1-4-0.1-6c0-6.2,2.8-9.3,9.1-9.4c11.1-0.2,22.2,0.3,33.3,1.5c10.4,1.2,19.9,4.5,28.8,9.7
				c3,1.8,5.7,3.9,8.6,5.9c2.3,3.1,5.7,5.3,7.6,8.7c-0.1,0.3-0.1,0.6-0.2,0.9c-4.3-3.4-7.6-7.9-12-11.2
				c-9.4-7.2-20.1-10.9-31.5-12.7c-4.3-0.7-8.6-1.2-13-0.4c7.7,0.6,15.2,2.2,22.7,4.2C150.9,58.6,155.9,60,159.8,63.6z"/>
			<path class="st27" d="M178.4,149.4c0.3,0,0.6,0,0.9,0.1c-5,7.6-11,14-19.1,18.3c-1.1,0.6-2.1,1.3-3.5,1.1
				C165.6,164.2,172.4,157.3,178.4,149.4z"/>
			<path class="st28" d="M95.6,158c0,30.8,0,61.6,0,92.8C93.8,247.9,93.3,161.9,95.6,158z"/>
			<path class="st29" d="M5.3,217.7c-1-4-0.9-7.9,0-11.9C5.3,209.7,5.3,213.7,5.3,217.7z"/>
			<path class="st30" d="M115.4,52.8c-3.7,0-7.4-0.2-11.1,0c-6.7,0.4-8.8,2.6-8.9,9.4c-0.1,6.1-0.1,12.2,0,18.4
				c0.2,12.6-0.7,25.2,0.5,37.8c0.1,0.8,0.3,2.1-0.7,2.2c-1.5,0.2-1.3-1.3-1.2-2.2c1.5-20.2,0.2-40.5,0.7-60.7
				c0.1-3.9,2.9-5.3,5.9-5.5c4.9-0.4,9.9-0.1,14.9-0.1C115.4,52.4,115.4,52.6,115.4,52.8z"/>
		</g>
	</g>
</g>
<g id="Layer_3">
	<g>
		<path class="st31" d="M127.2,179.5c-1.4,0-2.9,0-4.3-0.1c-1.4-0.1-2.4-1.3-2.3-2.7c0.1-1.4,1.3-2.4,2.7-2.3
			c16.7,1.1,32.9-4.9,45.9-17c13.6-12.7,21.6-30.2,21.6-46.9c0-13.8-8.8-28.8-23.4-40.1c-19.8-15.3-46-21.1-70.7-15.4L96.3,121
			c0,1.4-1.1,2.5-2.5,2.5c0,0,0,0,0,0c-1.4,0-2.5-1.1-2.5-2.5l0.3-68.1c0-1.1,0.8-2.1,1.9-2.4c26.6-6.7,55.4-0.8,76.8,15.9
			c15.8,12.3,25.3,28.8,25.3,44.1c0.1,18-8.6,36.9-23.2,50.5C159.7,173,143.7,179.5,127.2,179.5z"/>
	</g>
	<g>
		<path class="st31" d="M90.9,280.3c-8.2,0-16.4-0.6-24.5-1.9c-15.3-2.5-27.4-4.4-39-13.8c-12.7-10.3-20.3-25.9-22.7-46.2
			c-0.5-4.3-4.1-42.6,22.6-65.8C39,142.4,50.8,137.7,68,136.2c11-1,32.5-0.7,51.4-0.4c11.7,0.2,21.9,0.3,27.3,0.1
			c1.4,0,2.5,1,2.6,2.4c0,1.4-1,2.5-2.4,2.6c-5.6,0.2-15.8,0.1-27.6-0.1c-18.8-0.2-40.2-0.5-50.9,0.4c-16.3,1.4-26.9,5.6-37.7,15.1
			C5.9,177.9,9.3,213.7,9.8,217.8c0.8,7.1,3.4,28.7,20.9,42.9c10.5,8.6,21.5,10.3,36.6,12.7c17.4,2.8,35.3,2.5,53.3-1v-48.8
			c-2.3,0-4.5-0.1-6.6-0.1c-2.9-0.1-5.9-0.2-8.8-0.1c-1.4,0-2.5-1-2.6-2.4c-0.1-1.4,1-2.5,2.4-2.6c3.2-0.1,6.2,0,9.2,0.1
			c2.9,0.1,5.9,0.2,8.8,0.1c0.7,0,1.3,0.2,1.8,0.7c0.5,0.5,0.8,1.1,0.8,1.8v53.4c0,1.2-0.8,2.2-2,2.5
			C112.6,279.2,101.7,280.3,90.9,280.3z"/>
	</g>
	<g>
		<path class="st31" d="M95,255.1c-1.4,0-2.5-1.1-2.5-2.5l-0.2-95.7c0-1.4,1.1-2.5,2.5-2.5c0,0,0,0,0,0c1.4,0,2.5,1.1,2.5,2.5
			l0.2,95.7C97.5,254,96.4,255.1,95,255.1C95,255.1,95,255.1,95,255.1z"/>
	</g>
</g>
<g id="Layer_2">
	<g>
		<path class="st32" d="M261.5,48.4c16.1,0,32.1,12.7,32.1,29.3c0,18-12,30.5-33,30.5c-2.9,0-11.7-1.8-17-8.1V151h-8.9V48.4H261.5z
			 M243.5,99.4c4.5,4.3,10.3,7.8,17.2,8.1c13.4-1.8,23.9-14.7,23.9-29.2c0-15.7-12.9-27.9-25.6-29.2h-15.5V99.4z"/>
		<path class="st32" d="M352,150.2h44.1v0.8h-52.6V48.4h52.6v0.8H352v50.2h36.4v0.8H352V150.2z"/>
		<path class="st32" d="M488.9,151l-18.6-45.1L446.9,151H446l23.9-46l-22.6-56.5h9.2l19,46.5l24.6-46.5h0.9l-25.2,47.4l22.3,55.1
			H488.9z"/>
		<path class="st32" d="M594.1,151l-18.6-45.1L552,151h-0.9l23.9-46l-22.6-56.5h9.2l19,46.5l24.6-46.5h0.9L581,95.9l22.3,55.1H594.1
			z"/>
		<path class="st32" d="M664.8,150.2h44.1v0.8h-52.6V48.4h52.6v0.8h-44.1v50.2h36.4v0.8h-36.4V150.2z"/>
	</g>
	<g>
		<path class="st32" d="M283.5,191.2c19.9,0,33.6,11.3,35.8,14.3v11.8l-3-2.7c-8.4-7.9-21.1-20-42.7-20l-6,0.3
			c-2.4,0.3-3.4,0.7-4.8,1.5c-14.6,7.5-21.5,22.5-21.5,37.6c0,27.5,23,50.9,49.3,53l3.3,0.1c9.7,0,15.7-3.9,23.3-10V242h-34v-0.7
			H318v36c-5.1,4.9-14.8,14-32.7,14l-4.2-0.1c-23.6-1.8-37.6-17.3-44-37.9c-1.3-5.7-1.9-10.7-1.9-15.4c0-28.8,22.7-40.2,29.4-43.1
			C271.2,192.1,277.7,191.2,283.5,191.2z"/>
		<path class="st32" d="M376.3,191.7h8.4v99.7h-8.4V191.7z"/>
		<path class="st32" d="M467.9,191.7c15.7,0,31.2,12.4,31.2,28.5c0,17.3-11.8,29.7-31.8,29.7l32.5,41.5h-10.5l-39-49.4v49.4h-8.7
			v-99.7H467.9z M450.4,241.2c4.3,4.2,10,7.6,16.7,7.9c13-1.8,23.3-14.3,23.3-28.4c0-15.2-12.5-27.2-24.9-28.4h-15.1V241.2z"/>
		<path class="st32" d="M556.8,191.7h8.4v99h43.1v0.7h-51.5V191.7z"/>
		<path class="st32" d="M699.9,267.9c0-9.9-12.2-18.2-18.7-22.4c-18.7-12.4-23-17.8-23-28.2c0-17.3,11.9-26,24.8-26
			c12.2,0,22.2,7.8,25.2,18.1l-0.7,0.4c-1.5-7.2-10.5-16.7-17.8-16.7c-12.1,0-23.6,10-23.6,21.5c0,10.6,10,17.5,20.2,24.6
			c10.9,7.6,21.9,15.2,21.9,27.8c0,13.6-13.1,24-26.1,24c-13.3,0-23.3-11-25.7-23.7h0.7c1.9,9.4,9.3,21.5,20.3,21.5
			C687.9,288.8,699.9,277.8,699.9,267.9z"/>
	</g>
</g>
</svg>
