<svg width="650" height="260" viewBox="0 0 650 260" fill="none" xmlns="http://www.w3.org/2000/svg">
<g clip-path="url(#clip0_132_551)">
<path d="M25.8739 49.5968V145.959H28.2858C39.753 145.959 51.2247 146.189 62.6789 145.841C66.9062 145.71 71.1117 144.313 75.2738 143.272C76.6451 142.933 77.4157 142.798 78.2864 144.169C79.7057 146.39 81.4253 148.418 83.3453 150.961C80.0627 152.084 77.0587 153.573 73.8893 154.087C68.8409 154.919 63.7374 155.374 58.6214 155.449C44.4723 155.623 30.3232 155.51 16 155.51V29.0392C17.9547 29.0392 19.9182 29 21.8294 29.0784C22.0999 29.1124 22.3609 29.2 22.5971 29.336C22.8333 29.4721 23.04 29.6539 23.2051 29.8708C30.9719 40.3745 38.7183 50.9014 46.4445 61.4515C54.9165 72.9972 63.3827 84.5457 71.8432 96.0972C79.5272 106.624 87.159 117.195 95.1521 128.213C97.0851 124.643 99.2184 121.5 100.577 118.052C104.029 109.258 105.801 100.041 105.4 90.5986C104.887 78.7003 102.418 67.2374 95.4874 57.2024C90.0106 49.2528 82.7706 43.419 73.467 40.5109C70.4959 39.6267 67.4229 39.1307 64.3245 39.035C58.9653 38.7999 53.5887 39.035 48.2164 38.9175C47.284 38.8715 46.4063 38.4639 45.7697 37.7812C43.6103 35.095 41.6033 32.2391 39.2306 29.0349H51.0592C54.9774 29.0349 58.8957 28.9435 62.8139 29.0566C73.7848 29.3657 83.5063 33.0271 92.2396 39.7011C100.768 46.2314 106.637 54.6512 110.525 64.4468C112.983 70.8102 114.521 77.4922 115.091 84.2903C115.847 91.854 115.523 99.4867 114.129 106.959C111.443 120.838 105.67 133.12 94.9736 142.754C94.7006 142.957 94.4172 143.146 94.1247 143.32L25.8739 49.5968Z" fill="black"/>
<path d="M368.447 155.858C366.144 155.858 364.12 155.954 362.113 155.806C361.357 155.69 360.675 155.286 360.21 154.679C353.057 144.857 345.983 134.979 338.839 125.153C333.545 117.869 328.146 110.664 322.852 103.385C317.345 95.8141 311.916 88.1866 306.435 80.594C299.408 70.8594 292.369 61.1365 285.316 51.4251C284.865 50.8917 284.387 50.3817 283.884 49.897V153.002C283.884 155.854 283.884 155.854 281.102 155.858H274.11V153.307C274.11 112.941 274.095 72.5762 274.066 32.2129C274.066 30.1928 274.602 29.7923 276.635 29.4309C281.524 28.5646 283.309 31.9038 285.516 34.9774C292.192 44.294 298.899 53.5947 305.638 62.8794C311.733 71.2962 317.828 79.6841 323.923 88.043C328.778 94.6952 333.68 101.313 338.517 107.978C343.741 115.153 348.887 122.371 354.072 129.567C355.487 131.531 356.915 133.485 358.704 135.941V29.5746C361.956 29.5746 364.899 29.518 367.846 29.6573C368.182 29.6573 368.717 30.8067 368.717 31.4205C368.717 37.7941 368.591 44.1634 368.574 50.537C368.547 63.293 368.574 76.0489 368.574 88.8005C368.539 110.467 368.491 132.133 368.43 153.799L368.447 155.858Z" fill="black"/>
<path d="M497.618 155.845C495.158 155.845 492.99 155.945 490.839 155.784C490.216 155.736 489.502 155.049 489.098 154.478C482.184 145.083 475.266 135.684 468.431 126.232C460.926 115.858 453.551 105.392 446.032 95.0304C439.785 86.419 433.372 77.934 427.116 69.3444C422.54 63.0535 418.104 56.6624 413.089 50.4456V155.723H403.424V29.5615C405.601 29.5615 407.708 29.4614 409.776 29.6225C410.403 29.6747 411.125 30.3495 411.548 30.9285C416.58 37.8028 421.561 44.7163 426.563 51.6036C432.162 59.2964 437.8 66.9586 443.381 74.6775C448.039 81.1077 452.61 87.5989 457.277 94.0204C462.066 100.612 466.964 107.116 471.74 113.716C476.89 120.838 481.953 128.022 487.064 135.175C487.268 135.358 487.488 135.521 487.722 135.662V29.6878H497.635L497.618 155.845Z" fill="black"/>
<path d="M133.729 94.1424C134.051 83.1061 135.492 73.6806 139.511 64.8429C145.453 51.7822 154.6 41.5035 167.373 34.8686C175.684 30.5412 184.748 29.1611 194.196 29.7924C209.381 30.8068 221.305 37.7028 231.17 48.9481C237.885 56.5411 242.647 65.6565 245.045 75.5048C246.909 83.0321 247.261 90.7423 246.73 98.509C246.356 103.951 245.598 109.323 243.787 114.373C241.94 119.464 239.607 124.366 236.821 129.01C232.517 136.146 226.704 142.254 219.79 146.908C214.773 150.361 209.177 152.886 203.268 154.365C195.597 156.289 187.879 156.303 180.256 154.949C171.74 153.442 164.147 149.533 157.421 144.03C150.085 138.096 144.195 130.57 140.198 122.023C137.264 115.749 135.161 109.227 134.639 102.257C134.417 99.0924 133.934 95.9361 133.729 94.1424ZM190.504 146.442C193.987 145.932 197.557 145.723 200.952 144.866C212.272 142.005 220.748 134.966 227.27 125.627C235.106 114.426 237.949 101.765 237.004 88.1867C236.224 73.8285 229.81 60.3582 219.155 50.7025C208.11 40.5239 195.162 37.4895 180.782 40.4412C173.79 41.8996 167.626 45.5 162.28 50.3325C157.054 54.962 152.768 60.5534 149.654 66.802C146.973 72.2788 145.392 77.982 144.395 83.9681C142.915 92.8581 143.768 101.561 146.237 110.089C148.614 118.309 152.919 125.497 158.819 131.783C167.426 140.956 177.709 146.181 190.504 146.442Z" fill="black"/>
<path d="M514.775 155.85C516.12 152.863 517.361 150.168 518.558 147.456C521.823 140.055 525.058 132.654 528.328 125.275C531.567 117.956 534.858 110.655 538.084 103.342C541.384 95.8926 544.614 88.4219 547.945 80.9773C551.719 72.4922 555.559 64.0332 559.325 55.5568C562.808 47.7204 566.217 39.8448 569.682 31.9997C570.235 30.7502 570.553 29.2526 572.577 29.5356C574.684 29.8316 577 28.7911 578.289 31.8212C583.27 43.5105 588.424 55.1214 593.579 66.7585C598.159 77.0765 602.878 87.3335 607.436 97.6688C611.737 107.412 615.843 117.26 620.162 126.977C624.215 136.119 628.433 145.179 632.569 154.278C632.754 154.796 632.9 155.327 633.005 155.867C629.626 155.867 626.444 155.911 623.266 155.819C622.983 155.751 622.718 155.62 622.492 155.436C622.266 155.252 622.084 155.02 621.96 154.757C618.581 147.186 615.29 139.576 611.912 132.005C608.533 124.435 605.055 116.933 601.685 109.367C598.638 102.575 595.742 95.7315 592.73 88.9356C589.195 80.9598 585.586 73.0146 582.046 65.0389C579.634 59.61 577.296 54.155 574.919 48.713C574.702 48.2123 574.423 47.7378 573.957 46.8279C572.799 49.3747 571.78 51.5341 570.836 53.7109C567.417 61.4225 564.005 69.1341 560.601 76.8457C556.922 85.2089 553.273 93.5895 549.582 101.948C546.314 109.332 543.031 116.705 539.734 124.069C536.207 131.975 532.672 139.874 529.129 147.765C528.11 150.047 527.143 152.354 526.042 154.596C525.785 155.123 525.106 155.776 524.597 155.793C521.449 155.902 518.249 155.85 514.775 155.85Z" fill="black"/>
<path d="M377.781 184.731C382.535 182.746 383.958 186.473 385.817 189.211C390.171 195.646 394.429 202.159 398.726 208.637C401.899 213.426 405.082 218.215 408.587 223.491V184.575H413.119V230.622C409.122 231.375 408.765 231.223 406.732 228.176C399.041 216.566 391.339 204.949 383.628 193.325C383.258 192.921 382.847 192.558 382.4 192.241V230.77H377.781V184.731Z" fill="black"/>
<path d="M336.108 230.892C335.239 230.837 334.366 230.837 333.496 230.892C331.602 231.158 330.832 230.291 330.362 228.511C329.714 226.087 328.866 223.721 327.828 221.436C327.595 221.039 327.274 220.701 326.89 220.448C326.506 220.194 326.069 220.032 325.612 219.973C319.517 219.856 313.422 219.921 307.327 219.895C306.199 219.895 305.555 220.091 305.15 221.401C304.414 223.866 303.043 226.155 302.442 228.637C301.937 230.731 300.862 231.092 299.073 230.888C298.256 230.845 297.438 230.845 296.622 230.888C299.077 224.436 301.458 218.262 303.783 212.05C306.108 205.837 308.346 199.712 310.614 193.539C311.524 191.057 312.355 188.541 313.348 186.098C313.553 185.602 314.354 185.154 314.946 185.049C315.954 184.873 316.985 184.873 317.993 185.049C318.577 185.149 319.378 185.619 319.569 186.116C322.569 194.078 325.455 202.08 328.433 210.06C330.314 215.089 332.325 220.074 334.223 225.089C334.902 226.909 335.434 228.829 336.108 230.892ZM325.751 215.955C322.669 207.622 319.656 199.477 316.461 190.822C313.296 199.442 310.3 207.592 307.227 215.955H325.751Z" fill="black"/>
<path d="M456.467 219.072C457.724 219.013 458.983 219.029 460.237 219.12C460.52 219.177 460.785 219.299 461.012 219.476C461.239 219.654 461.421 219.882 461.544 220.143C462.824 225.341 467.203 227.736 472.919 227.51C477.547 227.322 480.965 225.655 482.536 221.066C483.951 216.935 481.23 212.538 476.206 210.979C472.575 209.852 468.884 208.902 465.292 207.67C458.296 205.263 455.562 200.169 457.299 192.955C458.213 189.15 460.891 186.573 464.265 185.276C470.36 182.938 476.572 182.925 482.227 186.865C484.983 188.78 486.677 191.397 486.86 194.862C482.772 195.45 482.885 195.376 480.834 192.228C478.522 188.68 474.883 187.714 470.899 187.923C467.922 188.075 465.24 188.793 463.194 191.405C460.146 195.302 461.322 201.449 466.372 203.356C470.046 204.745 473.903 205.633 477.613 206.935C481.936 208.454 485.706 210.391 487.09 215.546C488.692 221.523 485.101 228.337 479.18 230.392C473.625 232.32 468.248 232.029 463.072 229.421C458.971 227.34 456.768 223.909 456.467 219.072Z" fill="black"/>
<path d="M256.587 227.209V230.727H232.263V184.422H256.569V188.123H236.682V205.537H254.701V209.455H236.726V227.222L256.587 227.209Z" fill="black"/>
<path d="M160.826 219.024H166.077C166.486 220.596 166.612 222.229 167.313 223.561C169.054 226.891 172.559 228.18 176.368 227.209C179.494 226.412 181.684 223.43 181.697 219.669C181.741 208.881 181.697 198.092 181.697 187.304V184.54H185.885C185.991 184.798 186.064 185.069 186.103 185.345C186.103 197.143 186.221 208.946 186.103 220.744C186.038 226.247 183.365 229.085 177.753 231.079C173.708 232.52 166.373 231.04 163.974 226.917C162.646 224.632 161.971 221.967 160.826 219.024Z" fill="black"/>
</g>
<defs>
<clipPath id="clip0_132_551">
<rect width="617" height="202.624" fill="white" transform="translate(16 29)"/>
</clipPath>
</defs>
</svg>
