<svg width="650" height="165" viewBox="0 0 650 165" fill="none" xmlns="http://www.w3.org/2000/svg">
<path d="M457.85 147.971C457.62 147.971 457.391 147.971 457.103 147.913C453.429 147.224 449.696 146.765 446.136 145.789C419.665 138.669 401.118 122.878 394.457 95.7178C386.878 64.9976 403.702 33.7606 434.594 21.1854C456.472 12.2851 478.464 12.6297 499.365 24.5732C503.098 26.6978 506.428 29.7411 509.414 32.8418C512.342 36 512.744 38.0097 510.62 39.7323C508.84 41.1679 506.141 40.8233 504.763 39.0433C497.298 29.8559 487.077 25.1474 475.249 23.8267C459.343 22.0467 445.275 26.6978 435.513 39.5027C420.297 59.4277 416.162 81.8219 424.948 105.709C434.824 132.352 467.899 154.287 503.729 127.184C504.016 126.955 504.361 126.725 504.705 126.438C506.658 124.888 509.529 125.29 510.849 127.357C512.055 129.252 511.137 130.974 508.266 133.271C498.159 141.482 486.446 145.789 473.526 147.224C472.607 147.339 471.688 147.569 470.712 147.799C470.425 147.856 470.081 147.913 469.794 147.913H457.85V147.971Z" fill="black"/>
<path d="M646.477 141.999C645.214 144.238 643.492 145.157 640.735 144.985C636.084 144.698 631.491 144.755 626.839 144.985C624.198 145.1 622.82 144.181 621.729 141.827C616.217 130.343 610.532 118.973 605.02 107.489C603.986 105.307 602.78 104.446 600.196 104.446C584.176 104.561 568.098 104.561 552.02 104.446C549.379 104.446 548.058 105.25 546.967 107.661C541.684 119.145 536.114 130.4 530.774 141.884C529.568 144.525 527.846 145.961 525.319 144.698C522.793 143.434 523.137 141.138 524.343 138.611C542.89 99.9668 561.38 61.38 579.869 22.6782C580.099 22.104 580.271 21.4724 580.73 21.013C581.764 19.9795 582.912 18.3143 584.061 18.2568C585.152 18.2568 586.76 19.6924 587.334 20.9556C592.846 31.8656 598.186 42.8904 603.584 53.9152C617.308 81.9941 631.031 109.958 644.755 138.037C645.329 139.128 645.961 140.162 646.592 141.252C646.477 141.425 646.477 141.654 646.477 141.999ZM575.677 47.886C567.581 64.8252 559.887 80.8457 551.963 97.3255C568.213 97.3255 583.774 97.3255 599.909 97.3255C591.87 80.9031 584.003 64.8826 575.677 47.886Z" fill="black"/>
<path d="M170.113 84.5206C170.113 94.1673 170.113 103.24 170.113 112.312C170.113 121.959 170.228 131.548 170.228 141.195C170.228 143.722 169.079 145.157 166.381 145.157C160.696 145.157 155.069 145.157 149.441 145.157C146.168 145.157 145.594 143.205 145.594 140.449C145.652 122.82 145.594 105.25 145.594 87.6213C145.594 65.5142 145.594 43.4072 145.594 21.3001C145.594 16.4193 146.054 15.96 150.934 15.96C172.238 15.96 193.598 15.7877 214.844 16.0174C225.237 16.1322 235.114 18.7736 244.129 24.4583C265.604 38.0096 260.723 63.6194 245.105 73.9551C237.295 79.0656 228.855 82.1089 219.15 83.7167C220.701 85.6116 221.907 87.1045 223.113 88.5975C237.353 105.25 251.593 121.844 265.776 138.554C266.81 139.76 267.729 142.114 267.212 143.262C266.695 144.353 264.341 145.042 262.676 145.1C257.335 145.329 251.88 145.329 246.483 145.1C245.105 145.042 243.325 144.238 242.406 143.205C225.811 124.486 209.331 105.709 192.679 86.9323C191.531 85.669 189.406 84.6928 187.626 84.6354C182.171 84.4057 176.372 84.5206 170.113 84.5206ZM170.343 23.1376C170.343 41.2826 170.343 59.2554 170.343 77.5152C183.262 77.5152 195.895 77.4578 208.585 77.5152C213.925 77.5152 218.404 75.6203 221.907 71.6583C229.601 62.8729 232.53 52.5371 230.979 41.1103C229.486 29.3965 222.309 23.195 210.422 23.1376C201.522 23.0802 192.622 23.1376 183.779 23.1376C179.473 23.1376 175.109 23.1376 170.343 23.1376Z" fill="black"/>
<path d="M316.881 137.865C318.546 137.865 319.982 137.865 321.475 137.865C341.4 137.865 361.382 137.865 381.307 137.922C382.743 137.922 384.638 138.324 385.671 139.3C387.738 141.195 386.532 144.411 383.719 144.927C382.858 145.042 381.939 144.985 381.077 144.985C353.171 144.985 325.379 144.985 297.473 144.985C292.649 144.985 292.018 144.353 292.018 139.645C292.018 100.541 292.018 61.4374 292.018 22.3338C292.018 17.7401 292.821 16.9936 297.128 16.9936C325.264 16.9936 353.343 16.9936 381.422 16.9936C381.652 16.9936 381.881 16.9936 382.168 16.9936C384.752 16.8214 386.475 17.9124 386.475 20.4963C386.475 23.0802 384.752 24.1138 382.226 24.0564C374.819 23.999 367.411 24.0564 360.004 24.0564C347.084 24.0564 334.165 24.0564 321.245 24.0564C319.924 24.0564 318.489 24.0564 316.881 24.0564C316.881 41.9143 316.881 59.4851 316.881 77.5727C318.259 77.6301 319.694 77.745 321.13 77.745C337.438 77.745 353.745 77.8024 370.053 77.745C372.751 77.745 375.221 78.1469 375.278 81.1328C375.393 84.4632 372.637 84.7503 369.938 84.7503C353.745 84.6929 337.552 84.7503 321.36 84.7503C319.924 84.7503 318.431 84.7503 316.709 84.7503C316.881 102.493 316.881 119.892 316.881 137.865Z" fill="black"/>
<path d="M118.492 144.87C106.032 145.329 106.319 142.803 103.218 135.625C99.1412 125.978 94.0308 116.791 89.5519 107.317C88.5758 105.249 87.4273 104.388 85.0157 104.445C68.7081 104.56 52.4006 104.56 36.093 104.445C33.7388 104.445 32.5903 105.307 31.6142 107.374C26.3315 118.801 20.7042 130.113 15.4215 141.539C14.2156 144.238 12.493 146.018 9.79424 144.583C7.38256 143.319 7.72708 140.965 8.93292 138.439C27.5947 99.7944 46.0843 61.1501 64.5738 22.5058C64.8609 21.8167 65.148 21.0703 65.6074 20.5535C66.5835 19.5773 67.6745 18.1992 68.7081 18.1992C69.7417 18.1992 71.2921 19.4625 71.8089 20.5535C77.3787 31.5783 82.7188 42.718 88.1738 53.8002C101.955 81.9939 115.678 110.13 129.459 138.324C131.814 143.147 130.723 144.87 125.268 144.87C123.028 144.87 120.731 144.87 118.492 144.87ZM60.4395 47.8858C52.3432 64.7676 44.6487 80.7881 36.7821 97.2679C53.0322 97.2679 68.5933 97.2679 84.7286 97.2679C76.5174 80.7881 68.6507 64.7676 60.4395 47.8858Z" fill="black"/>
</svg>
