<svg xmlns="http://www.w3.org/2000/svg" viewBox="0 0 1388.93 609.75"><g id="Layer_2" data-name="Layer 2"><g id="Layer_1-2" data-name="Layer 1"><path d="M812.79,277.77v-5.7q0-126.28.1-252.58a26.13,26.13,0,0,1,2.52-11.68c3.45-6.62,11.52-9.16,19.34-7.12,6.59,1.71,11.19,7.53,11.72,14.85.1,1.4.09,2.81.09,4.21q0,149.45-.06,298.88a26.56,26.56,0,0,1-1.4,9.36c-5,13-22.68,12.2-28.9,4C770,270.78,723.36,210,676.86,149.08L612.1,64.24c-.69-.9-1.44-1.75-2.84-3.47v5.16q0,126.48-.13,253a25.61,25.61,0,0,1-2.93,12c-3.58,6.41-12,8.84-19.55,6.67-6.35-1.83-10.83-8-11.13-15.35,0-1.27,0-2.55,0-3.82q0-149.25.06-298.5A29.31,29.31,0,0,1,577.11,9.4C581.49-1.75,598.73-3.36,606.22,7c8.74,12.09,18,23.8,27,35.66Q721.6,158.58,809.93,274.5C810.59,275.38,811.38,276.16,812.79,277.77Z"/><path d="M1264.81,147.18l25,34.17q47.06,64.14,94.11,128.28c4.63,6.31,6.64,13,2.62,20.29a16,16,0,0,1-27.13,1.79q-21.95-29.43-43.71-59-36.3-49-72.61-98c-.67-.91-1.4-1.77-2.29-2.9-1,1-2,1.76-2.82,2.63-10.76,10.89-21.44,21.86-32.32,32.63a10.57,10.57,0,0,0-3.48,8.31c.13,34.06.08,68.11.06,102.17a47.86,47.86,0,0,1-.33,6.1,16.36,16.36,0,0,1-16.77,14.61,16.8,16.8,0,0,1-16.51-14.6,41.39,41.39,0,0,1-.33-5.34q0-149.22-.06-298.46c0-7.59,2.1-13.95,9-17.74,8.52-4.68,22.73-1.54,24.62,11.77a49.21,49.21,0,0,1,.4,6.87q0,68.86,0,137.75V164c1.8-1.72,3-2.78,4-3.89Q1283.1,83.44,1359.8,6.7c4.72-4.73,10-7.15,16.75-6.53,6.94.63,11.66,5.78,12.28,12.66.71,8-2.3,13.79-7.85,19.28Q1324.61,88,1268.52,144.24A42.88,42.88,0,0,1,1264.81,147.18Z"/><path d="M0,320.68c.75-2.78,1.19-5.7,2.29-8.33Q65.46,162.43,128.65,12.5c5-11.85,14-14.11,23.27-11.37,5.05,1.5,7.58,5.65,9.54,10.29Q184.68,66.49,208,121.52c27.07,64,54,128.11,81.34,192,4.4,10.27-.92,20.71-8.49,23.33-8.9,3.09-18.23,1.48-23-10.2-8.86-21.55-17.91-43-26.61-64.62-1.44-3.59-3.2-4.54-6.93-4.53q-79.21.19-158.44,0c-3.32,0-4.86.93-6.12,4-8.91,21.94-18,43.79-27.08,65.67-3.76,9.1-10,12.45-19.78,10.55C5.27,336.3.46,329.68,0,320.68ZM145.56,55c-24.08,58.12-47.91,115.62-71.9,173.49H217.45Z"/><path d="M1325.91,608.78h-6.28V531.61h9.9c8.11,21.91,16.23,43.83,24.66,66.57.71-1.68,1.15-2.62,1.52-3.59,7.21-19.31,14.54-38.59,21.52-58,1.44-4,3.23-6,7.54-5.14a21.08,21.08,0,0,0,3.67,0v77.15h-5.52v-67.5c-2.68,7-5,13.15-7.34,19.28q-8.49,22.5-16.93,45c-.81,2.18-1.58,3.59-4.45,3.61s-3.58-1.51-4.37-3.66q-11.14-30.07-22.39-60.11c-.44-1.17-.9-2.33-1.53-4Z"/><path d="M681.55,543.73v64.93h-6.84V531.89c4.58-1.21,7.54-.19,10.27,4,12.66,19.44,25.73,38.61,38.66,57.87.69,1,1.45,2,2.64,3.65V531.73H733v76.68c-6.62,1.38-7,1.24-10.59-4.13l-38.16-56.83C683.49,546.34,682.68,545.28,681.55,543.73Z"/><path d="M877.65,608.72V531.49h4.55c8.55,0,17.09,0,25.64,0,13.81.06,24.28,7.4,28.69,20.47a55.65,55.65,0,0,1,.06,36.42c-4.06,12-12.56,19.33-25.27,20.18C900.29,609.31,889.17,608.72,877.65,608.72Zm7.51-71.29V602c8.23,0,16.16.53,24-.13,9.73-.82,17-5.79,20.22-15.46a51.42,51.42,0,0,0,.38-31.59c-2.41-8-7.81-13.93-16.09-15.26C904.33,538.07,894.75,538.08,885.16,537.43Z"/><path d="M1167.83,597.57V531.78h6.77v76.68c-4.85,1.32-8,.24-10.87-4.21-12.35-19-25.16-37.74-37.81-56.56-.75-1.13-1.57-2.22-2.81-4v64.92h-6.77V531.84c4.67-1.26,7.59.14,10.33,4.36,12.51,19.22,25.44,38.16,38.22,57.2C1165.71,594.61,1166.58,595.8,1167.83,597.57Z"/><path d="M576,609.56c-22.2,2.27-34.79-16.89-35.47-34.6a67.06,67.06,0,0,1,1.84-19.65c4.68-17.44,19.06-26.31,37.07-25,18.29,1.29,30.7,15.59,31.93,34.44a67.17,67.17,0,0,1-1,17.86C606.64,600.5,594.75,609.56,576,609.56Zm28.76-39.38c-1.06-5.21-1.54-10.63-3.31-15.59-3.73-10.53-11-17.39-22.62-18.36-11.27-.93-20.57,2.77-26,13.1-7.15,13.67-7.42,27.93,0,41.4,8.89,16.14,31.64,18.23,43.16,4.5C602,588.07,604.2,579.52,604.78,570.18Z"/><path d="M340.6,531.61h6.71v33.13h44.54v-33h7v76.86h-6.71V571.54H347.54v37.14H340.6Z"/><path d="M222.79,585.78l6.94-.78c.27,1.46.46,2.68.73,3.88,2.39,10.81,11.67,16.93,22.57,14.91,1.88-.35,3.76-.69,5.65-1,6.48-1.1,11.5-5.82,12.51-11.79.9-5.36-2.65-12.1-8.49-14.57-4.64-2-9.71-2.91-14.53-4.5-4.58-1.5-9.48-2.57-13.53-5-12.92-7.77-11.81-27,2-33.72,9.43-4.59,19.34-4.2,28.81.29,7.51,3.56,10,10.33,10.46,18.44h-6.67c-.1-.13-.36-.3-.41-.52-2.94-14.59-19.57-20.39-31.32-10.92-6.35,5.12-6.42,14.46.29,19,3.29,2.24,7.27,3.56,11.09,4.87,5.76,2,11.81,3.2,17.46,5.45,9.29,3.72,13.12,11.37,11.29,21.22-2.16,11.64-10.53,18.54-22.55,18.5-4.45,0-9,.42-13.33-.42C230.32,606.89,224.76,599.85,222.79,585.78Z"/><path d="M169.81,608.65c-7.89.73-7.9.73-10.63-6-2.09-5.19-4.25-10.36-6.23-15.59-.71-1.87-1.54-2.81-3.79-2.78-10.2.14-20.4,0-30.59.17a4.73,4.73,0,0,0-3.47,2.4c-2.36,5.35-4.36,10.85-6.49,16.3-2.5,6.4-2.49,6.4-10,5.48,3.3-8.2,6.57-16.32,9.85-24.43,6.66-16.52,13.38-33,19.92-49.57,1-2.44,2.13-3.33,4.71-3.17s4.3.06,5.55,3.08c9.78,23.63,19.81,47.15,29.76,70.7Zm-20.56-30.56c-5.32-13.06-10.44-25.61-15.86-38.93-5.2,13.36-10.11,26-15.14,38.93Z"/><path d="M1003.49,531.65h48.64v6.2h-41.39v27.87H1049v6.37h-38.24v30.46h43v6.11h-50.2Z"/><path d="M7.71,537.94v28H39.8v6.37H7.55v36.41H.81v-77H45.45v6.15Z"/><path d="M468.1,531.69H475v76.9h-6.9Z"/><path d="M1250.57,608.71h-6.71v-77h6.71Z"/></g></g></svg>