<svg width="650" height="260" viewBox="0 0 650 260" fill="none" xmlns="http://www.w3.org/2000/svg">
<path d="M219.239 119.293C219.239 116.312 219.019 113.222 218.467 110.241C215.928 95.119 205.442 84.4119 190.54 81.6523C174.976 78.7824 161.289 85.0742 153.562 98.7616C152.9 99.8654 152.348 101.08 151.354 102.735V43.46C143.738 45.8884 136.453 48.2064 129.057 50.5244C127.843 50.8556 128.064 51.7386 128.064 52.6217C128.064 109.689 128.064 166.868 128.064 223.935C128.064 225.481 128.505 225.922 129.94 225.922C136.121 225.812 142.303 225.812 148.484 225.922C150.692 225.922 151.354 225.481 151.354 223.163C151.244 189.717 151.354 156.161 151.244 122.715C151.244 114.436 154.114 107.261 158.64 100.638C161.068 97.1059 164.6 94.4567 168.795 93.2425C177.956 90.5933 187.118 94.6774 191.865 103.618C194.955 109.358 195.838 115.54 195.838 121.942C195.838 155.719 195.838 189.496 195.728 223.273C195.728 225.591 196.39 225.922 198.488 225.922C204.559 225.812 210.63 225.812 216.59 225.922C218.577 225.922 219.129 225.481 219.129 223.494C219.24 188.723 219.239 153.953 219.239 119.293Z" fill="black"/>
<path d="M368.145 222.832C353.574 193.691 338.893 164.439 324.323 135.298C323.44 134.084 323.66 132.318 324.875 131.435C338.341 116.423 351.808 101.411 365.164 86.2883C365.716 85.7364 366.268 85.0741 367.041 84.0807C364.281 84.0807 361.963 84.0807 359.645 84.0807C358.652 83.9703 357.658 84.4118 357.106 85.2949C343.64 100.197 330.283 114.988 316.817 129.889C310.414 136.954 304.123 144.018 297.279 151.524V43.5703C296.506 43.7911 295.844 43.9015 295.292 44.1222C289 46.1091 282.708 48.2064 276.417 50.0829C274.651 50.6348 273.988 51.2971 273.988 53.284C274.099 68.7375 274.099 84.0807 274.099 99.5342C274.099 140.707 274.099 181.88 274.099 223.052C274.099 226.143 273.768 225.701 276.858 225.812C282.929 225.812 289 225.701 294.961 225.922C296.837 225.922 297.389 225.481 297.279 223.604C297.169 203.846 297.279 184.087 297.169 164.439C297.058 163.225 297.5 162.011 298.383 161.128C300.811 158.479 303.24 155.829 305.668 153.07C307.213 151.304 307.213 151.304 308.317 153.511C320.128 177.023 331.939 200.534 343.75 224.046C344.192 225.26 345.406 226.033 346.73 225.812C353.684 225.701 360.528 225.701 367.482 225.812C369.359 225.812 369.911 225.37 368.696 223.715C368.476 223.494 368.255 223.163 368.145 222.832Z" fill="black"/>
<path d="M449.938 89.9308C437.023 79.4445 422.453 78.7822 407.551 84.4117C394.195 89.3789 385.033 99.3134 378.41 111.676C370.463 126.357 367.482 142.363 367.593 158.92C367.593 173.38 369.8 187.288 376.203 200.424C384.15 216.54 396.182 227.357 414.837 229.123C425.654 230.227 435.588 227.909 444.088 220.734C448.503 216.871 452.256 212.455 455.347 207.488C457.555 204.287 457.444 204.287 453.802 202.742C452.367 202.079 451.704 202.411 450.932 203.735C449.055 206.936 446.847 210.027 444.419 212.787C441.328 216.319 437.906 219.41 433.381 220.845C424.44 223.494 416.823 220.955 410.311 214.553C405.344 209.696 402.143 203.625 399.714 197.223C393.643 181.217 392.318 164.66 392.76 147.771C392.76 146.226 393.643 146.116 394.857 146.116C406.999 146.116 419.252 146.116 431.394 146.116C443.646 146.116 455.899 146.116 468.151 146.116C469.807 146.116 470.138 145.674 470.138 144.129C470.028 134.857 468.703 125.584 466.164 116.643C463.074 106.157 458.438 96.6642 449.938 89.9308ZM449.497 137.175C440.556 137.175 431.615 137.175 422.674 137.175C413.953 137.175 405.233 137.175 396.513 137.175C394.637 137.175 393.974 136.954 394.305 134.746C395.851 124.812 397.617 115.098 401.701 105.826C403.357 101.852 405.675 98.3199 408.545 95.2292C416.161 86.9505 428.965 86.3986 437.244 94.015C437.575 94.3461 437.906 94.6773 438.238 94.8981C442.763 99.4237 445.412 105.053 447.399 111.124C449.828 118.961 451.152 127.13 451.263 135.298C451.484 136.843 450.932 137.175 449.497 137.175Z" fill="black"/>
<path d="M634.719 116.313C631.628 106.047 626.992 96.6646 618.493 89.8209C606.02 79.7761 591.891 78.893 577.32 83.9706C563.081 88.9378 553.588 99.3138 546.634 112.339C539.017 126.909 536.147 142.473 536.147 158.81C536.147 173.27 538.355 187.399 544.868 200.424C552.705 216.54 564.847 227.137 583.391 229.013C593.436 230.007 602.708 228.13 610.987 221.949C616.285 217.975 620.369 212.787 624.012 207.378C626.22 204.067 626.22 204.067 622.467 202.411C621.142 201.859 620.48 202.08 619.707 203.294C618.162 205.723 616.506 208.151 614.85 210.359C611.539 214.664 607.786 218.637 602.377 220.403C593.326 223.273 585.488 220.735 578.866 214.112C573.898 209.255 570.697 203.184 568.269 196.671C562.198 180.776 560.984 164.219 561.425 147.441C561.425 145.785 562.308 145.674 563.633 145.674C575.775 145.674 588.027 145.674 600.169 145.674C612.422 145.674 624.674 145.674 636.927 145.674C638.472 145.674 638.803 145.233 638.803 143.798C638.582 134.636 637.258 125.364 634.719 116.313ZM617.941 137.175C609 137.065 600.059 137.175 591.118 137.175C582.177 137.175 573.457 137.175 564.516 137.175C563.081 137.175 562.529 136.954 562.75 135.298C564.185 125.143 566.061 115.209 570.256 105.716C571.691 102.405 573.567 99.3138 575.885 96.5542C584.495 86.1783 598.734 85.9575 607.786 95.8919C612.422 101.08 614.961 107.261 616.837 113.884C618.714 120.838 619.707 128.013 619.928 135.188C620.149 136.844 619.486 137.285 617.941 137.175Z" fill="black"/>
<path d="M109.188 60.3484C103.448 53.0632 95.1694 48.2063 86.0077 46.661C79.2744 45.5571 72.3203 45.3364 65.5869 46.1091C45.9388 47.8752 31.258 57.1473 22.317 75.0293C16.3563 86.9506 13.7071 99.755 12.2722 112.89C10.6164 128.234 10.3957 143.687 11.4995 159.03C12.0514 170.731 14.0383 182.431 17.4601 193.58C19.2263 199.43 21.8754 205.06 25.2973 210.137C33.0241 221.507 43.8416 227.468 57.3082 228.792C72.9826 230.337 87.553 227.688 100.468 217.975C107.201 212.787 112.499 206.164 116.142 198.547C113.162 198.547 110.733 198.547 108.195 198.547C107.201 198.547 106.87 198.989 106.428 199.762C101.682 209.586 93.8448 216.098 83.8 219.962C70.8853 224.929 60.2886 221.838 52.0099 210.689C50.6853 208.923 49.5815 207.157 48.4776 205.281C45.0558 198.989 42.4066 192.256 40.7509 185.191C37.5498 172.166 35.6733 158.699 35.3421 145.233C34.6798 127.019 35.3421 108.917 39.5366 91.1451C41.8547 81.2107 45.2765 71.6074 51.6787 63.5495C60.2886 52.4009 75.411 48.5375 88.2153 54.3877C97.3771 58.3615 103.669 65.3156 107.753 74.2566C108.305 75.4708 108.857 76.0227 110.292 75.4708C112.168 74.8085 114.155 74.367 116.142 73.9254C117.467 73.5943 117.908 73.2632 117.136 71.8282C114.818 67.9648 112.168 64.1014 109.188 60.3484Z" fill="black"/>
<path d="M536.92 217.092C536.258 217.644 535.596 217.975 535.044 218.416C525.44 225.37 513.409 222.39 507.89 211.904C505.682 207.488 504.468 202.632 504.578 197.775C504.578 162.563 504.468 127.351 504.468 92.1388C504.468 90.483 505.02 90.2623 506.455 90.2623C510.539 90.3727 514.623 90.2623 518.707 90.2623C523.233 90.2623 523.233 90.2623 523.122 85.6262C523.122 84.3016 522.681 83.9705 521.467 83.9705C516.499 84.0809 511.532 83.9705 506.565 84.0809C504.909 84.0809 504.357 83.6393 504.468 81.9836C504.578 73.3737 504.468 64.8743 504.468 56.2645C504.468 55.7125 504.909 54.7191 503.695 54.6087C502.591 54.4983 502.37 55.0503 502.15 55.9333C501.819 57.4787 501.377 59.024 500.935 60.5694C496.962 73.8153 489.014 82.5355 474.444 83.8601C473.119 83.9705 471.132 83.3082 470.47 84.5224C469.808 85.7366 470.359 87.2819 470.249 88.7169C470.139 90.1519 470.801 90.2623 471.905 90.2623C474.112 90.1519 476.32 90.3727 478.638 90.2623C480.956 90.1519 481.287 90.8142 481.287 92.8011C481.177 125.916 481.177 159.031 481.287 192.145C481.287 195.567 481.508 199.099 482.06 202.411C484.378 215.436 491.663 224.156 504.688 227.578C511.311 229.344 518.265 229.565 524.999 228.572C529.635 227.909 534.05 226.033 537.693 223.052C538.245 222.501 538.907 222.059 538.465 221.066C538.024 219.962 537.582 218.527 536.92 217.092Z" fill="black"/>
<path d="M257.763 154.284C257.763 131.104 257.763 107.923 257.763 84.743C257.763 82.9768 257.431 82.5353 255.665 83.1976C249.153 85.2949 242.64 87.2818 236.128 89.2686C235.024 89.379 234.362 90.3725 234.472 91.4763C234.472 135.629 234.472 179.782 234.472 223.825C234.472 225.481 235.024 225.812 236.569 225.812C242.861 225.701 249.263 225.701 255.555 225.812C257.321 225.812 257.873 225.37 257.873 223.604C257.763 200.534 257.763 177.464 257.763 154.284Z" fill="black"/>
<path d="M561.645 70.5035L562.197 70.945C565.067 73.3734 564.957 73.3734 567.716 70.945C574.891 64.6532 582.177 58.3614 589.241 51.9592C590.345 50.9658 590.897 50.9658 592.001 51.9592C598.624 57.8095 605.357 63.5494 611.98 69.3997C616.726 73.4838 616.726 73.4838 621.362 69.1789C622.135 68.5166 622.245 68.0751 621.583 67.3024C614.408 57.4784 607.344 47.6543 600.169 37.8303C598.072 34.6292 594.429 32.7527 590.676 32.7527C586.592 32.7527 583.612 34.6292 581.183 37.8303C574.56 47.1024 567.827 56.3745 561.094 65.6467C559.107 68.4062 559.107 68.4062 561.645 70.5035Z" fill="black"/>
<path d="M246.725 39.8174C239.219 39.8174 233.147 45.778 233.037 53.2841C233.037 53.2841 233.037 53.2841 233.037 53.3944C233.037 61.0108 239.108 67.1922 246.614 67.3026C253.899 67.3026 259.97 61.0108 259.97 53.3944C260.191 46.1092 254.451 40.0381 247.276 39.9278C247.056 39.8174 246.835 39.8174 246.725 39.8174Z" fill="black"/>
</svg>
