<svg width="75" height="89" viewBox="0 0 75 89" fill="none" xmlns="http://www.w3.org/2000/svg">
<g clip-path="url(#clip0_122_464)">
<path d="M56.0202 79.1057H26.1362V86.9326H56.0202V79.1057Z" fill="#0D0D0D"/>
<path d="M56.0202 88.1089H26.1362V92.0224H56.0202V88.1089Z" fill="#0D0D0D"/>
<path d="M54.1881 5.17271C33.6094 -2.41288 10.0219 8.47538 2.44341 29.053C-5.13505 49.6306 5.45971 73.1112 26.5738 80.8928C37.6437 84.9722 47.1375 83.1549 55.8546 79.1435L55.9752 79.0907L56.028 64.3418H51.9636C45.2146 67.2297 38.0509 68.685 31.3773 66.2269C20.2547 62.1325 12.367 47.5419 17.0499 34.7535C21.7327 21.9651 36.8066 15.503 48.4797 19.801C54.8743 22.1611 59.8663 27.4695 62.7468 34.2106L75.6717 25.7126C70.544 15.6161 63.6442 8.65634 54.1881 5.17271Z" fill="#0D0D0D"/>
</g>
<defs>
<clipPath id="clip0_122_464">
<rect width="75" height="88.6364" fill="white"/>
</clipPath>
</defs>
</svg>
