<svg width="650" height="260" viewBox="0 0 650 260" fill="none" xmlns="http://www.w3.org/2000/svg">
<mask id="mask0_132_565" style="mask-type:luminance" maskUnits="userSpaceOnUse" x="79" y="209" width="492" height="29">
<path d="M79.4658 209.718H571V237.828H79.4658V209.718Z" fill="white"/>
</mask>
<g mask="url(#mask0_132_565)">
<mask id="mask1_132_565" style="mask-type:luminance" maskUnits="userSpaceOnUse" x="79" y="209" width="492" height="29">
<path d="M95.5452 212.442H82.0529V222.309H93.5566V224.533H82.0529V237.377H79.4658V210.173H95.5452V212.442ZM139.518 237.362H136.602L133.071 228.696H120.401L116.996 237.362H114.189L125.253 210.173H127.935L139.518 237.362ZM132.189 226.567L126.564 212.885L121.189 226.567H132.189ZM158.151 229.184L160.704 228.961C160.908 231.184 161.666 232.87 162.958 234.006C164.249 235.139 165.935 235.722 168.048 235.722L172.003 235.014C173.075 234.559 173.912 233.847 174.495 232.934L175.363 231.044C175.363 227.275 172.995 225.48 168.253 224.612C165.037 224.029 162.719 223.131 161.333 221.93C159.946 220.733 159.253 219.078 159.253 216.968C159.253 214.73 160.071 212.965 161.696 211.654C163.317 210.347 165.386 209.718 167.905 209.718C170.711 209.718 172.901 210.347 174.461 211.609C176.022 212.87 176.874 214.775 177.033 217.362L174.511 217.472C174.211 213.718 172.083 211.843 168.109 211.843C166.283 211.843 164.768 212.287 163.556 213.169C162.34 214.052 161.742 215.233 161.742 216.764C161.742 219.347 163.92 221.082 168.253 221.949C171.469 222.608 173.863 223.51 175.439 224.692C177.014 225.874 177.821 227.589 177.821 229.843L177.189 233.059C176.764 234.021 176.117 234.873 175.249 235.597L172.162 237.252C170.98 237.646 169.67 237.82 168.238 237.82C162.06 237.82 158.685 234.934 158.151 229.165V229.184ZM220.567 237.362H218.059V224.154H202.298V237.362H199.745V210.173H202.298V221.915H218.059V210.173H220.567V237.362ZM247.457 237.362H244.885V210.173H247.457V237.362ZM295.782 223.775C295.782 228.017 294.661 231.419 292.423 233.991C290.184 236.559 287.066 237.82 283.123 237.82C280.525 237.82 278.301 237.252 276.442 236.135C274.582 235.014 273.131 233.374 272.074 231.279C271.017 229.184 270.483 226.677 270.483 223.775C270.483 219.536 271.62 216.131 273.873 213.563C276.127 210.995 279.199 209.718 283.123 209.718C285.771 209.718 288.025 210.283 289.885 211.434C291.744 212.586 293.21 214.226 294.237 216.321C295.26 218.419 295.782 220.908 295.782 223.79V223.775ZM293.101 223.775C293.101 220.215 292.218 217.328 290.438 215.124C288.657 212.915 286.214 211.813 283.108 211.813C279.987 211.813 277.544 212.93 275.794 215.124C274.044 217.313 273.161 220.215 273.161 223.76C273.161 227.275 274.063 230.142 275.843 232.366C277.623 234.589 280.051 235.692 283.123 235.692C285.157 235.692 286.892 235.203 288.358 234.226C289.824 233.249 290.957 231.877 291.824 230.067C292.691 228.252 293.116 226.158 293.116 223.745L293.101 223.775ZM338.748 237.362H336.036L320.354 214.192L320.574 237.362H317.99V210.173H320.574L336.43 233.612L336.21 210.173H338.748V237.362ZM389.785 237.362V210.173H400.232C402.85 210.173 405.024 210.79 406.759 212.018C408.494 213.249 409.77 214.904 410.543 216.953C411.316 218.999 411.725 221.222 411.725 223.605C411.725 227.953 410.717 231.324 408.698 233.752C406.679 236.18 403.861 237.362 400.217 237.362H389.785ZM392.369 212.461V235.093H398.766C400.327 235.093 401.668 234.968 402.77 234.714L405.956 232.934C406.963 232.002 407.736 230.745 408.255 229.184C408.778 227.624 409.047 225.699 409.047 223.446C409.047 216.131 405.607 212.476 398.766 212.476L392.369 212.461ZM452.186 237.362H434.232V210.173H451.618V212.476H436.834V222.249H450.512V224.487H436.834V235.123H452.186V237.362ZM494.932 237.362H492.22L476.535 214.192L476.743 237.362H474.156V210.173H476.743L492.599 233.612L492.394 210.173H494.932V237.362ZM521.853 237.362H519.281V210.173H521.853V237.362ZM570.936 237.362H568.364L568.792 212.965L559.492 237.362H557.348L548.189 212.98L548.599 237.377H546.061V210.173H549.671L558.436 233.707L567.276 210.173H570.936V237.362Z" fill="white"/>
</mask>
<g mask="url(#mask1_132_565)">
<path d="M79.4658 209.718H570.89V237.828H79.4658V209.718Z" fill="black"/>
</g>
</g>
<mask id="mask2_132_565" style="mask-type:luminance" maskUnits="userSpaceOnUse" x="79" y="22" width="492" height="121">
<path d="M79 22H570.97V142.302H79V22Z" fill="white"/>
</mask>
<g mask="url(#mask2_132_565)">
<mask id="mask3_132_565" style="mask-type:luminance" maskUnits="userSpaceOnUse" x="79" y="22" width="492" height="120">
<path d="M181.81 133.389L182.423 134.92C182.423 137.473 181.84 138.874 180.658 140.056C179.477 141.238 178.075 141.821 176.435 141.821C173.772 141.821 171.878 140.594 170.761 138.132L160.484 113.295H101.11L90.8181 138.151C89.9962 140.609 88.1553 141.836 85.2992 141.836C83.5682 141.836 82.1477 141.253 81.0758 140.071C80.0038 138.889 79.4697 137.488 79.4697 135.848L79.625 133.957L125.038 26.1477C126.17 23.3901 128.109 22 130.867 22C133.625 22 135.519 23.3901 136.541 26.1477L181.81 133.389ZM105.398 103.015H156.34L130.867 41.4847L105.398 103.015ZM288.911 141.836C287.176 141.836 285.741 141.268 284.608 140.151C283.472 139.033 282.919 137.598 282.919 135.848V27.9924C282.919 26.2575 283.487 24.8219 284.608 23.6894C285.726 22.553 287.176 22 288.911 22C290.752 22 292.282 22.7121 293.514 24.1439L366.865 120.511V27.9924C366.865 26.2575 367.449 24.8219 368.63 23.6894C369.816 22.553 371.202 22 372.839 22C374.573 22 376.009 22.5682 377.142 23.6894C378.278 24.8068 378.831 26.2424 378.831 27.9924V135.848C378.831 137.488 378.263 138.889 377.142 140.071C376.024 141.253 374.589 141.836 372.839 141.836C370.793 141.836 369.308 141.177 368.396 139.836L294.9 43.4847V135.848C294.9 137.488 294.332 138.889 293.214 140.071C292.093 141.253 290.657 141.836 288.911 141.836ZM498.667 141.836C497.027 141.836 495.622 141.253 494.44 140.071C493.258 138.889 492.675 137.488 492.675 135.848V27.9924C492.675 26.3522 493.258 24.9507 494.44 23.7651C495.622 22.5833 497.027 22 498.667 22C500.398 22 501.834 22.5682 502.97 23.6894C504.103 24.8068 504.656 26.2424 504.656 27.9924V80.1624L560.655 24.1439C562.091 22.7121 563.667 22 565.417 22C567.167 22 568.504 22.5076 569.481 23.5303C570.458 24.553 570.932 25.8333 570.932 27.3598C570.932 29.2045 570.269 30.8446 568.932 32.2613L526.894 74.3291L569.405 132.332C570.223 133.658 570.633 134.885 570.633 136.022C570.633 137.548 570.098 138.904 569.027 140.086C567.955 141.268 566.644 141.851 565.117 141.851C562.864 141.851 561.174 140.988 560.057 139.253L518.303 82.7609L504.656 96.5714V135.848C504.656 137.488 504.088 138.889 502.97 140.071C501.849 141.253 500.413 141.836 498.667 141.836Z" fill="white"/>
</mask>
<g mask="url(#mask3_132_565)">
<path d="M79.4697 22H570.97V141.832H79.4697V22Z" fill="black"/>
</g>
</g>
</svg>
