<svg width="650" height="260" viewBox="0 0 650 260" fill="none" xmlns="http://www.w3.org/2000/svg">
<path d="M316.292 124.184C320.404 123.124 324.287 121.507 327.939 119.335C331.591 117.164 334.865 114.523 337.762 111.416C340.064 108.852 342.065 106.071 343.762 103.071C345.455 100.068 346.805 96.9186 347.813 93.623C351.544 82.2227 356.582 71.6112 364.598 62.614C376.483 49.3131 391.057 43.1393 409.048 46.3312C411.451 46.7485 412.07 47.2815 409.998 49.1821C403.986 54.9386 401.449 62.3673 400.243 70.3655C399.548 74.9159 399.18 79.5424 398.105 84.0075C392.528 107.265 377.137 120.697 354.51 126.246C342.483 129.192 330.303 128.375 318.275 125.515C317.845 125.503 317.449 125.375 317.09 125.135C316.734 124.897 316.466 124.577 316.292 124.184Z" fill="black"/>
<mask id="mask0_132_536" style="mask-type:luminance" maskUnits="userSpaceOnUse" x="304" y="11" width="68" height="78">
<path d="M304.145 11H371.201V88.381H304.145V11Z" fill="white"/>
</mask>
<g mask="url(#mask0_132_536)">
<path d="M304.34 54.3505C304.614 46.7482 307.702 40.1572 311.71 33.9255C314.671 29.232 318.219 25.0349 322.359 21.3373C326.498 17.6397 331.063 14.5848 336.058 12.1695C340.03 10.269 340.115 10.5157 340.886 14.8102C341.523 18.3342 343.737 20.984 346.53 23.1617C350.919 26.5913 355.353 29.963 359.697 33.4504C362.063 35.3509 364.165 37.5165 365.995 39.9409C367.829 42.3654 369.334 44.9756 370.515 47.7747C371.304 49.6174 371.6 51.2438 369.726 52.8307C359.155 61.77 351.829 72.9876 346.929 85.8317C345.808 88.7587 345.028 88.8714 342.796 86.4987C337 80.264 329.495 76.7888 321.533 74.0719C318.161 72.9115 314.799 71.7815 311.899 69.6068C306.789 65.7874 304.102 60.8106 304.34 54.3505Z" fill="black"/>
</g>
<path d="M327.302 203.898C328.67 201.913 328.249 200.46 328.249 199.092C328.249 179.286 328.347 159.476 328.195 139.669C328.195 136.459 329.382 135.926 332.136 136.06C334.645 136.173 336.525 135.871 336.516 139.611C336.363 174.479 336.43 209.353 336.394 244.218C336.394 245.708 337.143 247.962 334.396 247.846C332.315 247.761 329.858 249.016 328.935 245.224C323.538 223.081 317.857 201.011 312.271 178.914C311.881 177.385 311.446 175.856 310.922 173.955C309.384 175.762 309.868 177.242 309.868 178.6C309.868 200.451 309.774 222.243 309.917 244.066C309.917 247.316 308.86 248.047 305.82 247.998C302.972 247.998 301.632 247.532 301.651 244.151C301.763 209.286 301.718 174.412 301.727 139.547C301.727 137.97 301.224 135.746 303.941 136.182C306.286 136.553 309.64 134.284 310.693 138.597C315.71 158.906 320.763 179.209 325.846 199.5C326.19 200.813 326.693 202.086 327.302 203.898Z" fill="black"/>
<path d="M290.622 39.1309C291.572 42.9289 290.954 46.5686 291.761 50.1505C294.554 62.4341 302.086 70.3744 313.535 74.8517C320.032 77.4163 326.721 79.5057 332.8 83.0297C336.522 85.0094 339.687 87.6501 342.303 90.9517C342.595 91.2868 342.839 91.6522 343.028 92.0543C343.22 92.4563 343.351 92.8767 343.424 93.3152C343.497 93.7538 343.509 94.1924 343.457 94.6341C343.408 95.0757 343.299 95.5021 343.128 95.9133C337.646 108.812 328.935 118.19 314.428 120.005C307.075 120.956 300.597 117.514 294.917 112.9C283.011 103.235 278.5 90.5436 279.325 75.5066C279.934 64.3347 283.248 53.9394 287.829 43.8701C288.52 42.3228 289.072 40.5837 290.622 39.1309Z" fill="black"/>
<path d="M534.242 214.577C534.242 220.979 534.242 227.384 534.242 233.786C534.242 243.77 530.099 247.894 520.255 247.903H511.706C504.542 247.903 499.888 243.865 499.623 236.78C499.337 228.837 499.565 220.884 499.517 212.944C499.517 209.353 502.188 210.824 503.887 210.568C505.882 210.273 507.213 210.644 507.232 213.294C507.232 220.628 506.833 227.981 507.555 235.324C507.877 238.547 509.16 240.076 512.458 239.96C514.709 239.856 516.96 239.96 519.211 239.96C523.344 239.896 525.985 237.578 526.024 233.415C526.155 222.014 526.119 210.617 526.024 199.217C526.024 195.909 523.98 194.255 520.788 194.161C517.237 194.057 513.664 193.954 510.119 194.161C501.57 194.654 499.907 189.878 499.745 184.548C499.367 172.222 499.367 159.871 499.745 147.496C499.974 139.462 504.564 135.517 512.544 135.423C516.342 135.374 520.143 135.319 523.944 135.423C530.328 135.612 534.108 139.328 534.211 145.748C534.354 153.813 534.147 161.9 534.309 169.947C534.373 172.938 532.691 172.795 530.678 172.749C528.665 172.7 526.877 173.148 526.953 170.05C527.115 163.886 526.953 157.7 527.011 151.544C526.971 149.884 526.722 148.258 526.262 146.662C525.671 144.326 524.361 143.29 521.958 143.345C518.879 143.412 515.79 143.421 512.714 143.345C512.477 143.324 512.239 143.321 511.998 143.342C511.761 143.363 511.526 143.409 511.298 143.473C511.066 143.54 510.847 143.625 510.631 143.732C510.418 143.841 510.217 143.966 510.028 144.112C509.836 144.259 509.662 144.42 509.504 144.6C509.345 144.776 509.202 144.968 509.08 145.175C508.959 145.38 508.855 145.593 508.773 145.818C508.691 146.043 508.63 146.272 508.59 146.509C508.008 148.319 507.692 150.177 507.64 152.077C507.707 161.215 507.64 170.346 507.64 179.474C507.64 184.908 508.59 185.8 514.109 185.812C518.148 185.812 522.177 185.812 526.213 185.812C531.571 185.812 534.126 188.252 534.193 193.573C534.296 200.584 534.242 207.574 534.242 214.577Z" fill="black"/>
<path d="M467.74 190.838V233.844C467.74 241.986 464.036 246.67 456.102 247.685C451.61 248.321 447.126 248.263 442.652 247.505C437.358 246.555 434.843 243.99 433.874 238.669C433.53 236.683 433.369 234.682 433.387 232.666C433.35 205.433 433.35 178.18 433.387 150.908C433.375 149.248 433.469 147.597 433.673 145.949C434.547 139.678 437.416 136.383 443.563 135.71C448.881 134.991 454.186 135.061 459.486 135.917C465.243 137.001 467.74 140.108 467.749 146.044C467.743 160.977 467.74 175.908 467.74 190.838ZM460.482 191.475C460.482 178.085 460.482 164.702 460.482 151.325C460.509 149.781 460.333 148.261 459.949 146.766C459.294 144.296 457.841 143.26 455.322 143.336C452.6 143.495 449.877 143.495 447.154 143.336C443.858 143.08 442.451 144.667 441.824 147.667C441.397 149.76 441.196 151.87 441.217 154.006C441.217 179.225 441.217 204.45 441.217 229.684C441.217 239.022 442.165 239.942 451.22 239.942H452.996C458.782 239.942 459.647 239.184 460.415 233.406C460.519 232.346 460.552 231.28 460.509 230.214L460.482 191.475Z" fill="black"/>
<path d="M136.472 247.791C132.674 248.738 131.657 246.963 131.182 243.174C129.805 232.172 127.81 221.247 126.174 210.273C124.542 199.302 123.125 188.593 121.587 177.756C120.99 173.55 120.357 169.35 119.687 165.159C119.562 164.388 119.458 163.325 118.328 163.447C117.198 163.572 117.436 164.617 117.378 165.348C114.972 183.278 112.572 201.212 110.178 219.149C108.999 227.914 107.793 236.692 106.672 245.473C106.471 247.057 105.825 247.867 104.22 247.855C102.804 247.855 101.369 247.855 99.9532 247.855C97.9399 247.931 97.5226 246.819 97.7968 245.12C99.4811 234.67 101.238 224.22 102.834 213.694C104.43 203.167 105.874 192.471 107.461 181.868C109.359 169.518 111.259 157.112 113.16 144.734C113.422 143.336 113.61 141.932 113.729 140.516C113.9 137.162 115.033 135.46 118.947 135.679C122.279 135.88 123.287 136.894 123.695 140.193C124.932 149.769 126.64 159.287 128.218 168.817C130.469 182.447 132.796 196.071 135.028 209.713C136.929 221.113 138.44 232.617 140.623 243.981C141.403 248.33 139.493 248.217 136.472 247.791Z" fill="black"/>
<mask id="mask1_132_536" style="mask-type:luminance" maskUnits="userSpaceOnUse" x="565" y="135" width="44" height="114">
<path d="M565.351 135.164H609V248.425H565.351V135.164Z" fill="white"/>
</mask>
<g mask="url(#mask1_132_536)">
<path d="M586.215 161.595C584.686 165.71 584.64 169.984 584.022 174.126C582.17 186.741 580.574 199.397 578.88 212.04C577.616 221.655 576.349 231.274 575.082 240.892C574.957 241.843 574.9 242.793 574.738 243.743C574.705 243.959 574.656 244.17 574.595 244.38C574.537 244.59 574.464 244.794 574.379 244.998C574.296 245.199 574.199 245.394 574.092 245.583C573.986 245.775 573.87 245.957 573.739 246.134C573.611 246.311 573.474 246.478 573.325 246.64C573.179 246.798 573.02 246.95 572.856 247.093C572.691 247.234 572.518 247.368 572.335 247.489C572.155 247.611 571.966 247.721 571.775 247.821C571.58 247.922 571.382 248.01 571.178 248.086C570.974 248.163 570.763 248.23 570.553 248.281C570.34 248.333 570.127 248.373 569.911 248.403C569.694 248.431 569.478 248.443 569.259 248.446C569.039 248.449 568.823 248.44 568.607 248.415C568.388 248.391 568.174 248.357 567.961 248.309C567.748 248.26 567.538 248.199 567.334 248.129C567.127 248.056 566.926 247.971 566.731 247.876C565.421 247.316 565.905 246.326 566.018 245.473C566.682 240.332 567.331 235.194 568.098 230.071C569.438 221.198 570.891 212.353 572.241 203.472C574.141 190.731 576.042 177.982 577.942 165.244C579.261 156.485 580.705 147.734 581.932 138.956C582.197 137.056 582.471 135.414 584.716 135.965C586.958 136.517 590.415 133.778 591.155 138.481C593.113 150.737 595.221 162.963 597.265 175.201C599.57 189.056 601.87 202.924 604.16 216.8C605.701 226.093 607.227 235.386 608.741 244.684C609.082 246.783 608.571 247.952 605.985 247.971C599.762 248.038 599.735 247.971 598.861 241.815C596.674 226.358 594.31 210.928 592.02 195.492C590.43 184.725 588.846 173.989 587.271 163.286C587.195 162.725 587.335 162.071 586.215 161.595Z" fill="black"/>
</g>
<path d="M235.408 191.834C235.408 174.525 235.463 157.225 235.35 139.925C235.35 137.077 235.92 135.974 239.026 136.051C248.033 136.245 257.039 136.245 266.045 136.051C269.189 135.984 269.085 137.598 269.122 139.849C269.161 142.103 269.018 143.65 265.978 143.546C259.585 143.327 253.18 143.546 246.778 143.43C244.271 143.376 243.214 143.954 243.245 146.747C243.388 158.83 243.366 170.925 243.245 183.007C243.245 185.575 244.195 186.239 246.549 186.19C252.479 186.059 258.416 186.315 264.324 186.087C268.001 185.934 267.175 188.337 267.221 190.323C267.27 192.309 267.897 194.694 264.297 194.569C258.263 194.371 252.211 194.569 246.169 194.475C244.034 194.475 243.254 195.178 243.263 197.325C243.339 210.626 243.339 223.897 243.263 237.14C243.263 239.354 244.012 239.991 246.114 239.991C252.991 239.896 259.869 240.143 266.737 239.887C271.546 239.704 269.521 243.192 269.987 245.281C270.605 248.056 268.686 247.962 266.767 247.962C257.398 247.962 248.042 247.846 238.676 248.007C235.892 248.007 235.32 247.057 235.332 244.492C235.444 226.909 235.408 209.372 235.408 191.834Z" fill="black"/>
<path d="M170.387 191.377C170.387 173.955 170.493 156.533 170.301 139.127C170.301 135.67 171.66 135.374 174.492 135.329C177.322 135.28 178.644 135.746 178.625 139.127C178.491 171.01 178.625 202.884 178.473 234.764C178.473 238.337 179.308 239.516 182.984 239.345C189.255 239.031 195.545 239.345 201.825 239.193C204.475 239.117 205.34 239.905 205.255 242.592C205.054 248.939 205.596 247.846 199.903 247.876C191.25 247.876 182.594 247.761 173.95 247.952C171.099 248.007 170.313 247.133 170.332 244.322C170.387 226.69 170.387 209.03 170.387 191.377Z" fill="black"/>
<path d="M387.569 196.043C387.569 212.192 387.474 228.286 387.645 244.407C387.645 247.706 386.268 247.94 383.618 247.98C380.965 248.016 379.665 247.437 379.674 244.303C379.79 212.061 379.674 179.815 379.808 147.573C379.808 144.42 379.171 142.928 375.751 143.375C373.85 143.622 371.95 143.232 370.049 143.461C366.946 143.838 366.346 142.51 366.318 139.66C366.288 136.809 367.171 136.032 369.976 136.078C379.214 136.248 388.461 136.248 397.714 136.078C400.565 136.02 401.314 136.934 401.335 139.699C401.335 142.614 400.592 143.838 397.534 143.497C395.548 143.269 393.496 143.622 391.501 143.412C388.415 143.089 387.425 144.173 387.456 147.365C387.645 163.563 387.569 179.806 387.569 196.043Z" fill="black"/>
<path d="M68.53 195.434C68.53 211.433 68.53 227.43 68.53 243.429C68.53 246.28 68.3777 247.98 64.6345 247.94C60.8912 247.904 60.4922 246.366 60.5013 243.241C60.5958 211.366 60.5013 179.483 60.6354 147.612C60.6354 144.219 59.749 142.861 56.3104 143.309C54.7905 143.516 53.2037 143.175 51.696 143.376C48.4462 143.82 47.6299 142.425 47.7517 139.355C47.8461 136.934 48.4644 136.032 51.0016 136.06C60.3673 136.194 69.7361 136.23 79.0928 136.06C82.0959 136.002 82.5497 137.19 82.6259 139.861C82.7112 142.757 81.6756 143.497 78.9405 143.479C75.5688 143.479 71.2255 141.92 69.0783 144.259C67.1229 146.376 68.53 150.603 68.5178 153.89C68.4996 167.742 68.53 181.603 68.53 195.434Z" fill="black"/>
<mask id="mask2_132_536" style="mask-type:luminance" maskUnits="userSpaceOnUse" x="40" y="232" width="14" height="17">
<path d="M40 232.629H53.0755V248.224H40V232.629Z" fill="white"/>
</mask>
<g mask="url(#mask2_132_536)">
<path d="M46.3076 247.904C45.0071 247.904 43.7035 247.904 42.412 247.904C41.4618 247.904 40.3988 248.114 40.1216 246.819C39.8962 245.708 40.6729 245.101 41.4435 244.511C43.1826 243.183 46.0792 242.299 46.1949 240.21C46.335 237.929 43.1065 237.359 41.5866 235.8C40.9501 235.145 39.8658 234.593 40.2831 233.512C40.7034 232.428 41.8699 232.733 42.7928 232.723C45.272 232.723 47.7513 232.723 50.2306 232.723C51.1808 232.723 52.3017 232.571 52.3778 233.93C52.454 235.288 51.3697 235.194 50.4103 235.297C49.4508 235.401 47.7696 234.688 47.3158 236.189C46.8589 237.691 48.4549 238.09 49.3473 238.708C51.3819 240.058 50.6966 241.035 49.1584 242.156C48.3696 242.726 46.9716 243.106 47.5046 244.501C47.9219 245.586 49.1371 245.178 50.0326 245.223C51.0864 245.281 52.5118 245.062 52.521 246.487C52.521 248.169 50.992 247.913 49.8316 247.931L46.3076 247.904Z" fill="black"/>
</g>
<mask id="mask3_132_536" style="mask-type:luminance" maskUnits="userSpaceOnUse" x="40" y="148" width="14" height="14">
<path d="M40 148.419H53.0755V161.674H40V148.419Z" fill="white"/>
</mask>
<g mask="url(#mask3_132_536)">
<path d="M46.3838 161.596C39.2872 161.538 40.0852 162.726 40.076 154.746C40.076 152.845 39.4486 150.348 41.7756 149.416C43.8193 148.599 46.1554 148.362 47.9616 150.451C49.0519 151.715 49.7738 150.567 50.5626 149.9C51.0682 149.483 51.5129 148.554 52.2926 149.199C52.448 149.342 52.5729 149.51 52.6673 149.699C52.7587 149.891 52.8135 150.089 52.8318 150.302C52.85 150.512 52.8287 150.719 52.7678 150.923C52.7069 151.124 52.6125 151.31 52.4815 151.477C51.5312 152.674 50.52 153.823 49.4509 154.916C47.4377 157.179 47.7331 158.279 50.584 158.803C51.5312 158.982 52.5972 158.955 52.4267 160.313C52.2744 161.519 51.315 161.681 50.2794 161.623C49.5758 161.623 48.8631 161.623 48.1504 161.623L46.3838 161.596ZM45.9087 155.087C45.5188 153.911 46.5057 151.602 44.1026 151.733C42.0619 151.849 42.8294 153.948 42.869 155.202C42.9056 156.457 41.9949 158.812 44.465 158.69C46.5057 158.583 45.5858 156.485 45.9361 155.087H45.9087Z" fill="black"/>
</g>
<mask id="mask4_132_536" style="mask-type:luminance" maskUnits="userSpaceOnUse" x="40" y="164" width="14" height="14">
<path d="M40 164.793H53.0755V177.269H40V164.793Z" fill="white"/>
</mask>
<g mask="url(#mask4_132_536)">
<path d="M46.3935 177.138C40.0765 177.138 40.0765 177.138 40.0674 170.745C40.0674 169.679 40.0674 168.616 40.0674 167.544C40.0674 166.469 40.0674 165.5 41.3771 165.442C42.9731 165.375 42.8512 166.621 42.8604 167.705C42.8604 169.243 42.8604 170.782 42.8604 172.32C42.8604 173.148 42.8604 174.089 44.0665 174.089C45.2726 174.089 45.1965 173.139 45.2543 172.301C45.233 171.592 45.2635 170.882 45.3396 170.175C45.4158 169.776 45.7965 169.225 46.1193 169.14C46.7925 169.033 47.0696 169.642 47.2402 170.252C47.6666 171.598 46.2412 174.336 48.8545 174.05C51.1814 173.754 49.6799 171.077 50.1093 169.508C50.4687 168.159 49.159 165.71 51.2393 165.652C53.746 165.652 52.1896 168.226 52.6068 169.633C52.6678 170.105 52.6678 170.577 52.6068 171.05C52.6343 177.138 52.6343 177.138 46.3935 177.138Z" fill="black"/>
</g>
<mask id="mask5_132_536" style="mask-type:luminance" maskUnits="userSpaceOnUse" x="40" y="214" width="14" height="14">
<path d="M40 214.696H53.0755V227.951H40V214.696Z" fill="white"/>
</mask>
<g mask="url(#mask5_132_536)">
<path d="M46.0337 227.658C44.6083 227.658 43.1829 227.658 41.7574 227.658C40.8742 227.658 40.0762 227.402 40.0762 226.291C40.0762 225.179 40.8254 224.884 41.7392 224.884C43.7524 224.884 45.7748 224.78 47.7789 224.884C50.0876 224.99 50.2308 223.525 50.109 221.865C49.9841 220.202 50.7638 218.006 47.9221 217.893C46.0215 217.817 44.124 217.893 42.2234 217.893C41.0356 217.893 40.0274 217.571 40.1036 216.127C40.1797 214.683 41.2732 214.845 42.2143 214.796C42.8021 214.796 43.4022 214.796 43.99 214.796C52.6156 214.796 52.4634 214.796 52.6918 223.345C52.7862 226.918 51.4674 228.097 48.1414 227.698C47.4378 227.637 46.7373 227.625 46.0337 227.658Z" fill="black"/>
</g>
<mask id="mask6_132_536" style="mask-type:luminance" maskUnits="userSpaceOnUse" x="40" y="181" width="14" height="15">
<path d="M40 181.947H53.0755V195.982H40V181.947Z" fill="white"/>
</mask>
<g mask="url(#mask6_132_536)">
<path d="M46.4199 195.702H41.8056C40.9101 195.702 40.0847 195.492 40.0938 194.38C40.103 193.269 40.77 192.995 41.7172 192.897C42.8289 192.784 44.5681 193.354 44.8239 191.95C45.1742 189.958 45.1742 187.966 44.8239 185.974C44.6168 184.701 43.1152 185.024 42.0979 184.957C41.0807 184.89 40.0847 184.756 40.1974 183.464C40.2461 182.42 41.1477 182.209 42.0035 182.209H50.8759C51.7805 182.209 52.6638 182.41 52.7003 183.455C52.7003 184.692 51.75 185.06 50.7449 184.908C46.9438 184.378 47.4677 187.019 47.3032 189.382C47.1235 191.91 47.7692 193.26 50.5713 192.87C51.5216 192.736 52.6638 192.928 52.6912 194.17C52.6912 195.654 51.4942 195.672 50.3916 195.672H46.4199V195.702Z" fill="black"/>
</g>
<mask id="mask7_132_536" style="mask-type:luminance" maskUnits="userSpaceOnUse" x="40" y="198" width="14" height="13">
<path d="M40 198.322H53.0755V210.017H40V198.322Z" fill="white"/>
</mask>
<g mask="url(#mask7_132_536)">
<path d="M46.3348 209.895C44.7967 209.895 43.2677 209.895 41.7388 209.895C40.7885 209.895 40.0849 209.6 40.0758 208.516C40.0666 207.434 40.8433 207.148 41.7388 207.13C43.3865 207.035 45.0373 207.035 46.6881 207.13C49.2436 207.377 50.4862 206.539 50.136 203.804C50.0202 202.509 50.0202 201.215 50.136 199.917C50.1299 199.741 50.1573 199.567 50.2212 199.4C50.2822 199.232 50.3705 199.083 50.4923 198.949C50.6111 198.815 50.7512 198.711 50.9096 198.632C51.071 198.553 51.2416 198.507 51.4182 198.495C51.5949 198.519 51.7624 198.58 51.9177 198.672C52.07 198.76 52.204 198.876 52.3137 199.019C52.4233 199.159 52.5056 199.317 52.5543 199.488C52.6061 199.662 52.6213 199.835 52.6061 200.015C52.6061 202.863 52.6548 205.668 52.6061 208.497C52.6061 209.731 51.5979 209.923 50.5715 209.923H46.3348V209.895Z" fill="black"/>
</g>
</svg>
