<svg width="72" height="72" viewBox="0 0 72 72" fill="none" xmlns="http://www.w3.org/2000/svg">
<mask id="mask0_58_18" style="mask-type:luminance" maskUnits="userSpaceOnUse" x="0" y="0" width="72" height="58">
<path d="M0.389648 0H71.8691V57.1193H0.389648V0Z" fill="white"/>
</mask>
<g mask="url(#mask0_58_18)">
<path d="M64.2684 0.528137H13.9267C10.8174 0.528137 8.01144 2.57343 6.98075 5.60061L6.88767 5.89127L6.60846 5.93735C3.12342 6.63566 0.59668 9.7869 0.59668 13.4167V38.4706C0.59668 38.9031 0.924156 39.2398 1.3447 39.2398C1.7687 39.2398 2.09618 38.9031 2.09618 38.4706V13.4167C2.09618 10.0492 4.7608 7.30915 8.03212 7.30915H58.3773C61.6486 7.30915 64.3167 10.0492 64.3167 13.4167V49.0516C64.3167 49.4592 64.2684 49.8208 64.1995 50.1788L64.1512 50.3737C63.5445 53.1386 61.1109 55.1343 58.3773 55.1343H33.1926C32.7721 55.1343 32.4446 55.471 32.4446 55.9035C32.4446 56.3359 32.7721 56.6727 33.1926 56.6727H58.3773C61.5107 56.6727 64.3167 54.6274 65.3681 51.6002L65.4611 51.3095L65.7404 51.2635C69.2013 50.5403 71.7039 47.4139 71.7039 43.7841V8.14925C71.7039 3.94169 68.3602 0.528137 64.2684 0.528137ZM70.2078 43.809C70.2078 46.2619 68.7118 48.5447 66.4884 49.4592L65.7886 49.7463V13.4167C65.7886 9.20911 62.469 5.79556 58.3773 5.79556H8.40786L8.87666 5.00155C9.95217 3.17248 11.8446 2.06654 13.9508 2.06654H64.2926C67.5639 2.06654 70.232 4.80659 70.232 8.17406V43.809H70.2078Z" fill="#67075B"/>
</g>
<path d="M64.2679 1.53839H13.9262C11.6579 1.53839 9.57589 2.74005 8.40731 4.73571L7.47314 6.34855H58.3526C62.1651 6.34855 65.2503 9.52106 65.2503 13.4415V50.5404L66.6774 49.9378C69.1077 48.9311 70.7209 46.4533 70.7209 43.7842V8.14926C70.7209 4.49467 67.8219 1.53839 64.2679 1.53839ZM69.6937 43.7842C69.6937 46.0918 68.2907 48.1122 66.2776 48.9523V13.4167C66.2776 8.91846 62.7236 5.26387 58.3526 5.26387H9.3208C10.2791 3.62977 12.0096 2.59471 13.9503 2.59471H64.292C67.2841 2.59471 69.7178 5.09727 69.7178 8.17407V43.7842H69.6937Z" fill="#67075B"/>
<mask id="mask1_58_18" style="mask-type:luminance" maskUnits="userSpaceOnUse" x="0" y="0" width="72" height="59">
<path d="M0 0H72V58.0268H0V0Z" fill="white"/>
</mask>
<g mask="url(#mask1_58_18)">
<path d="M64.2679 0H13.9262C10.5342 0 7.61103 2.18708 6.49072 5.40922C2.84366 6.1536 0.0825195 9.45018 0.0825195 13.4167V38.4707C0.0825195 39.1902 0.6444 39.768 1.34417 39.768C2.04738 39.768 2.60926 39.1902 2.60926 38.4707V13.4167C2.60926 10.3399 5.03948 7.83734 8.03158 7.83734H58.3768C61.3689 7.83734 63.7991 10.3399 63.7991 13.4167V49.0516C63.7991 49.3848 63.7543 49.7003 63.706 50.0122C63.6819 50.1079 63.6819 50.1788 63.6612 50.2745C63.1235 52.7523 60.9725 54.6274 58.3768 54.6274H33.1921C32.4923 54.6274 31.9305 55.2052 31.9305 55.9248C31.9305 56.6479 32.4923 57.2257 33.1921 57.2257H58.3768C61.8135 57.2257 64.7574 54.9393 65.8329 51.7916C69.4834 51.0473 72.217 47.7046 72.217 43.809V8.14927C72.217 3.65459 68.6388 0 64.2679 0ZM71.1897 43.7842C71.1897 47.1516 68.8526 50.0831 65.6226 50.7318L65.0642 50.8523L64.8746 51.4301C63.8922 54.2659 61.2758 56.1658 58.3768 56.1658H33.1921C33.0749 56.1658 32.9577 56.0701 32.9577 55.9248C32.9577 55.8078 33.0508 55.6873 33.1921 55.6873H58.3768C61.3689 55.6873 64.0094 53.4967 64.6643 50.5156C64.6884 50.4447 64.6884 50.3738 64.7126 50.2745L64.7367 50.2036C64.7815 49.9165 64.8539 49.5053 64.8539 49.0516V13.4167C64.8539 9.76211 61.9514 6.78102 58.3975 6.78102H8.0109C4.45691 6.78102 1.55444 9.76211 1.55444 13.4167V38.4707C1.55444 38.5912 1.46137 38.7117 1.32348 38.7117C1.20628 38.7117 1.08908 38.616 1.08908 38.4707V13.4167C1.08908 10.0244 3.42623 7.09295 6.67686 6.44427L7.26287 6.32375L7.44902 5.74596C8.45557 2.9102 11.003 1.05632 13.9262 1.05632H64.2679C68.0804 1.05632 71.1656 4.23238 71.1656 8.14927V43.7842H71.1897Z" fill="#67075B"/>
</g>
<path d="M64.268 2.06659H13.9263C11.8201 2.06659 9.92761 3.17254 8.85211 5.0016L8.3833 5.79562H58.3528C62.4445 5.79562 65.7641 9.20916 65.7641 13.4167V49.7464L66.4673 49.4593C68.6872 48.5199 70.1833 46.2619 70.1833 43.809V8.1493C70.2074 4.78538 67.5428 2.06659 64.268 2.06659ZM69.6938 43.7842C69.6938 46.0918 68.2908 48.1123 66.2777 48.9524V13.4167C66.2777 8.9185 62.7237 5.26391 58.3528 5.26391H9.32092C10.2792 3.6298 12.0097 2.59475 13.9504 2.59475H64.2921C67.2842 2.59475 69.7179 5.09731 69.7179 8.17411V43.7842H69.6938Z" fill="#67075B"/>
<mask id="mask2_58_18" style="mask-type:luminance" maskUnits="userSpaceOnUse" x="0" y="0" width="72" height="59">
<path d="M0 0H72V58.0268H0V0Z" fill="white"/>
</mask>
<g mask="url(#mask2_58_18)">
<path d="M64.2679 0H13.9262C10.5342 0 7.61103 2.18708 6.49072 5.40922C2.84366 6.1536 0.0825195 9.45018 0.0825195 13.4167V38.4707C0.0825195 39.1902 0.6444 39.768 1.34417 39.768C2.04738 39.768 2.60926 39.1902 2.60926 38.4707V13.4167C2.60926 10.3399 5.03948 7.83734 8.03158 7.83734H58.3768C61.3689 7.83734 63.7991 10.3399 63.7991 13.4167V49.0516C63.7991 49.3848 63.7543 49.7003 63.706 50.0122C63.6819 50.1079 63.6819 50.1788 63.6612 50.2745C63.1235 52.7523 60.9725 54.6274 58.3768 54.6274H33.1921C32.4923 54.6274 31.9305 55.2052 31.9305 55.9248C31.9305 56.6479 32.4923 57.2257 33.1921 57.2257H58.3768C61.8135 57.2257 64.7574 54.9393 65.8329 51.7916C69.4834 51.0473 72.217 47.7046 72.217 43.809V8.14927C72.217 3.65459 68.6388 0 64.2679 0ZM71.7033 43.7842C71.7033 47.3891 69.2007 50.5404 65.7398 51.2635L65.4606 51.3096L65.3675 51.6002C64.3162 54.6274 61.5102 56.6727 58.3768 56.6727H33.1921C32.7716 56.6727 32.4441 56.336 32.4441 55.9035C32.4441 55.4711 32.7716 55.1343 33.1921 55.1343H58.3768C61.1103 55.1343 63.544 53.1386 64.1507 50.3738C64.1748 50.2993 64.1748 50.2284 64.199 50.1788L64.2196 50.1079C64.2679 49.8208 64.3162 49.4592 64.3162 49.0516V13.4167C64.3162 10.0492 61.6481 7.30918 58.3768 7.30918H8.0109C4.73613 7.30918 2.07151 10.0492 2.07151 13.4167V38.4707C2.07151 38.9031 1.74403 39.2399 1.32348 39.2399C0.902934 39.2399 0.575458 38.9031 0.575458 38.4707V13.4167C0.575458 9.78692 3.09875 6.63568 6.55966 5.93738L6.83888 5.89129L6.93539 5.60063C8.03158 2.57345 10.8169 0.52816 13.9262 0.52816H64.2679C68.3596 0.52816 71.6792 3.94171 71.6792 8.14927V43.7842H71.7033Z" fill="#67075B"/>
</g>
<path d="M51.269 48.931C51.2897 48.9771 51.269 49.0019 51.2897 49.0516C51.2897 49.0728 51.2897 49.0728 51.3139 49.0976L51.269 48.931Z" fill="#67075B"/>
<mask id="mask3_58_18" style="mask-type:luminance" maskUnits="userSpaceOnUse" x="3" y="13" width="52" height="59">
<path d="M3.03662 13.5621H54.2195V72H3.03662V13.5621Z" fill="white"/>
</mask>
<g mask="url(#mask3_58_18)">
<path d="M49.7935 30.1016C47.0116 23.3702 42.6166 16.0858 39.0384 15.026L38.873 14.9799L38.7799 14.8346C38.3835 14.232 37.7975 13.8491 37.1218 13.7038C36.9564 13.679 36.7944 13.6577 36.6289 13.6577C35.9291 13.6577 35.2501 13.9448 34.7606 14.473L33.1921 16.1106C32.9819 16.3269 32.9129 16.6636 33.0301 16.9507L34.1056 19.549L33.9884 19.7652C28.6109 29.4068 20.0034 34.7664 16.546 36.6203L16.053 36.8826L15.6566 35.922C15.5842 35.7306 15.4222 35.5852 15.2568 35.5144C15.1637 35.4647 15.0706 35.4647 14.9775 35.4647C14.8845 35.4647 14.7914 35.4895 14.6983 35.5356L6.53555 39.0945C6.16326 39.2646 5.97711 39.7219 6.13913 40.1047L6.74582 41.5722L6.39766 41.8133C3.87092 43.5431 2.91262 46.8609 4.0812 49.7215L4.33973 50.3489C4.99468 51.9334 6.20807 53.1847 7.77651 53.8334C8.54866 54.1489 9.3415 54.3155 10.1378 54.3155C10.5583 54.3155 11.003 54.2658 11.4718 54.1489L11.8924 54.0496L12.4991 55.4923C12.568 55.6873 12.7335 55.829 12.8955 55.9035C12.9886 55.9496 13.0851 55.9496 13.1781 55.9496C13.2712 55.9496 13.3884 55.9248 13.4574 55.9035L15.0465 55.2052L17.1044 68.792C17.2699 69.8235 17.8524 70.7132 18.7418 71.2201C19.2347 71.5073 19.7725 71.6526 20.3309 71.6526C20.7756 71.6526 21.1961 71.5569 21.6167 71.3867C22.9507 70.809 23.747 69.4407 23.6057 67.9732L22.6715 58.0409L23.0679 57.8991C24.2848 57.488 26.5047 56.4813 27.7905 54.3651C28.6798 52.8976 28.9832 51.1181 28.6557 49.1225L28.5868 48.5943L29.1004 48.5199C31.5547 48.1122 34.0332 47.896 36.4428 47.896C39.7865 47.896 43.013 48.3036 46.0533 49.0977L46.3119 49.1685L47.3874 51.7668C47.5011 52.0539 47.7838 52.2241 48.0871 52.2241L50.3071 52.1993C51.1964 52.1993 52.0169 51.742 52.5063 50.9728C52.8821 50.395 53.02 49.6754 52.8821 48.9523L52.8338 48.7609L52.9269 48.5943C54.5884 45.1559 52.5546 36.8365 49.7935 30.1016ZM10.5583 52.6813C10.3963 52.7062 10.2309 52.7062 10.0688 52.7062C9.4587 52.7062 8.85201 52.5856 8.266 52.3446C7.0733 51.8377 6.13913 50.9019 5.64964 49.7003L5.3911 49.0728C4.57413 47.0524 5.11188 44.7696 6.72514 43.3517L7.26289 42.8944L11.2615 52.6069L10.5583 52.6813ZM13.5056 54.1489L12.9437 52.7771L12.8955 52.6565V52.6317L7.77651 40.1792L14.557 37.2194L20.3102 51.189L13.5056 54.1489ZM20.9652 69.9192C20.7308 70.0149 20.4964 70.0646 20.262 70.0646C19.9586 70.0646 19.6553 69.9937 19.3968 69.8235C18.9073 69.5612 18.5798 69.0791 18.5074 68.5014L16.3805 54.5317L20.6136 52.6813L22.0614 68.0441C22.1338 68.8629 21.6891 69.6073 20.9652 69.9192ZM26.4806 53.4754C25.8049 54.6026 24.6364 55.5419 23.1162 56.1658L22.4819 56.4316L22.0407 51.6215C22.0166 51.6002 21.9924 51.5258 21.9924 51.4549L21.9683 51.3095L21.5719 50.3489L22.1096 50.1575C22.8577 49.8917 24.4227 49.4096 26.553 48.931L27.0907 48.8105L27.1597 49.3635C27.3699 50.9728 27.1355 52.3446 26.4806 53.4754ZM44.5573 47.102C41.9375 46.549 39.1798 46.2832 36.3497 46.2832C29.2865 46.2832 23.5574 48.0413 21.4306 48.7857L20.9859 48.9523L16.6149 38.3005L17.0355 38.0843C20.3102 36.3544 28.5626 31.3777 34.2918 22.1685L34.8295 21.3249L45.5397 47.3182L44.5573 47.102ZM51.1723 50.0583C50.962 50.395 50.6139 50.59 50.214 50.6112L48.4836 50.6361L34.571 16.8054L35.7878 15.5329C36.0222 15.2918 36.3014 15.1713 36.6048 15.1713H36.8392C37.2149 15.2422 37.5424 15.508 37.6837 15.8696C49.6763 45.0815 51.1275 48.5695 51.2895 49.0516C51.2688 49.0019 51.2895 48.9771 51.2688 48.931L51.2895 49.0728C51.2895 49.0728 51.2895 49.0516 51.2688 49.0268C51.3826 49.3848 51.3619 49.7463 51.1723 50.0583ZM39.5279 16.4687L41.5859 18.8259C43.9265 21.5199 46.4256 25.8479 48.4387 30.7042C50.4484 35.5852 51.7342 40.4167 51.9686 44.0252L52.1789 47.1729L39.5279 16.4687Z" fill="#67075B"/>
</g>
<path d="M20.0277 51.8874L20.986 51.4797L20.5896 50.4908L17.2217 42.2919L15.4223 37.9886L15.2121 37.4852L14.8156 36.4998L13.8539 36.9075L8.01103 39.4561L7.05273 39.8637L7.44915 40.8492L7.82144 41.7885L12.4061 52.9224L12.7784 53.8582L13.1783 54.8437L14.1366 54.436L17.4079 53.0181L20.0277 51.8874ZM13.7608 53.4506L13.3885 52.5112L8.80387 41.3809L8.43158 40.4415L14.2779 37.8929L14.4882 38.3998L16.2634 42.703L19.6313 50.9019L17.0597 52.0079L13.7608 53.4506Z" fill="#67075B"/>
<path d="M7.98673 43.3517L7.44897 42.0295L6.37347 42.9441C4.57408 44.5037 3.98807 47.0524 4.89811 49.2678L5.15664 49.8917C5.71852 51.2387 6.74576 52.2702 8.05567 52.8232C8.68649 53.089 9.36557 53.2343 10.0447 53.2343C10.2308 53.2343 10.4169 53.2343 10.6065 53.2095L11.9854 53.0642L11.4476 51.742L7.98673 43.3517ZM10.0688 52.1993C9.53103 52.1993 8.96915 52.0788 8.45553 51.8625C7.40071 51.4301 6.55962 50.59 6.11494 49.4841L5.85985 48.8566C5.11183 47.0311 5.64958 44.961 7.05256 43.7594L10.51 52.1745C10.3721 52.1745 10.2067 52.1993 10.0688 52.1993Z" fill="#67075B"/>
<path d="M51.7101 48.7361C51.2447 47.5096 49.0006 42.0756 38.1491 15.6995C37.9388 15.1713 37.4941 14.7849 36.9116 14.6892C36.8185 14.668 36.722 14.668 36.5841 14.668C36.1394 14.668 35.7189 14.8594 35.3914 15.1713L34.409 16.1816L33.916 16.6849L34.1745 17.3336L37.0977 24.4301L46.8944 48.2079L46.9427 48.3037L47.8286 50.4447L48.0871 51.0933H48.7662L50.1451 51.0685C50.7069 51.0685 51.2206 50.7814 51.5239 50.2993C51.8273 49.8208 51.8996 49.2182 51.6652 48.69L51.7101 48.7361ZM50.7518 49.7712C50.6828 49.8917 50.5208 50.0583 50.214 50.0583L48.8352 50.0831L47.9458 47.9421L38.1043 24.0437L35.1811 16.9508L36.1635 15.9405C36.3014 15.7739 36.491 15.7491 36.6048 15.7491C36.653 15.7491 36.7013 15.7491 36.722 15.7739C36.8392 15.7952 37.0736 15.8909 37.1908 16.1567L50.8 49.1934C50.9172 49.4344 50.8241 49.6506 50.7518 49.7712Z" fill="#67075B"/>
<mask id="mask4_58_18" style="mask-type:luminance" maskUnits="userSpaceOnUse" x="2" y="12" width="53" height="60">
<path d="M2.1543 12.6546H54.2196V72H2.1543V12.6546Z" fill="white"/>
</mask>
<g mask="url(#mask4_58_18)">
<path d="M50.262 29.9102C47.3629 22.8669 42.9196 15.6534 39.1795 14.5227C38.7107 13.8243 38.0074 13.3423 37.1905 13.1757C36.9802 13.126 36.7941 13.126 36.5838 13.126C35.7427 13.126 34.9464 13.4628 34.3397 14.0902L32.7713 15.7243C32.4197 16.1107 32.3025 16.6637 32.5127 17.1422L33.4745 19.4994C28.1177 29.1162 19.3516 34.4793 16.2389 36.1631L16.0527 35.7306C15.9114 35.4151 15.6804 35.1528 15.3736 35.0323C15.2358 34.9614 15.0703 34.9366 14.9083 34.9366C14.7428 34.9366 14.5808 34.9614 14.4153 35.0323L6.25601 38.5912C5.62519 38.8783 5.32184 39.6227 5.57693 40.2962L6.02161 41.356C3.35698 43.1816 2.20909 46.7653 3.519 49.9165L3.77753 50.5404C4.4773 52.2702 5.81133 53.5959 7.49353 54.2907C8.31394 54.6274 9.17917 54.7976 10.0444 54.7976C10.5339 54.7976 11.0027 54.7231 11.4922 54.6274L11.9127 55.6873C12.0541 55.9992 12.2885 56.2615 12.5918 56.382C12.7332 56.4565 12.8952 56.4813 13.0606 56.4813C13.2226 56.4813 13.3881 56.4565 13.5501 56.382L14.5325 55.9496L16.4974 68.8629C16.6836 70.0646 17.3626 71.0748 18.3899 71.6739C18.9759 72.0106 19.6067 72.1808 20.2375 72.1808C20.7305 72.1808 21.2441 72.0851 21.7129 71.8688C23.2538 71.1954 24.1672 69.6073 24.0018 67.9023L23.1159 58.3777C24.4706 57.924 26.7629 56.8393 28.1176 54.6026C29.0759 52.9933 29.4034 51.1182 29.0759 49.002C31.227 48.6404 33.6848 48.3781 36.3494 48.3781C39.3173 48.3781 42.5438 48.69 45.8427 49.5549L46.801 51.9122C46.9872 52.3907 47.456 52.7062 47.9696 52.7062C47.9696 52.7062 47.9696 52.7062 47.9937 52.7062L50.2137 52.6814C51.2685 52.6814 52.2475 52.1284 52.8335 51.2139C53.3023 50.4907 53.4402 49.6258 53.2782 48.8106C55.1258 45.2517 53.161 36.9323 50.262 29.9102ZM51.9924 50.6113C51.596 51.2139 50.941 51.6002 50.2378 51.6002L47.9937 51.6215C47.9007 51.6215 47.8076 51.5754 47.7835 51.4797L46.8252 49.1225L46.6149 48.6404L46.122 48.5199C43.0368 47.7259 39.762 47.3182 36.3735 47.3182C33.9398 47.3182 31.4372 47.5345 28.9381 47.9421L27.9315 48.1123L28.0935 49.1473C28.4003 51.0224 28.1176 52.6566 27.3007 54.0284C26.108 55.9992 24.0018 56.9598 22.8573 57.3462L22.0852 57.6085L22.1541 58.4521L23.0435 67.9732C23.1607 69.2245 22.4816 70.3765 21.3613 70.8586C21.0097 71.0039 20.6581 71.0748 20.2858 71.0748C19.817 71.0748 19.3516 70.9543 18.9518 70.7133C18.2037 70.2808 17.6901 69.5364 17.5729 68.6715L15.6081 55.7582L15.3978 54.4112L14.1809 54.9393L13.202 55.3718C13.1778 55.3966 13.1296 55.3966 13.1054 55.3966C13.0848 55.3966 13.0606 55.3966 13.0124 55.3718C12.9676 55.3505 12.9193 55.3009 12.8952 55.2548L12.4746 54.195L12.1471 53.3761L11.306 53.5711C10.8614 53.6668 10.4649 53.7129 10.0892 53.7129C9.34119 53.7129 8.61729 53.5711 7.91752 53.2804C6.49042 52.6814 5.36665 51.5506 4.75996 50.0831L4.50143 49.4592C3.42593 46.8362 4.31528 43.7842 6.6283 42.1961L7.33151 41.7176L7.00404 40.8988L6.58349 39.8425C6.53523 39.7219 6.58349 39.5766 6.70069 39.527L14.86 35.9681C14.8842 35.9468 14.9083 35.9468 14.9531 35.9468C14.9772 35.9468 15.0255 35.9468 15.0462 35.9681C15.0944 35.9929 15.1427 36.0425 15.1634 36.0886L15.3288 36.5211L15.7735 37.5809L16.7559 37.0528C20.2375 35.1776 28.9381 29.7436 34.3845 19.9815L34.6431 19.5242L34.4328 19.0421L33.4745 16.6849C33.4262 16.5892 33.4503 16.4935 33.5193 16.4226L35.0877 14.785C35.4841 14.3773 36.046 14.1363 36.6045 14.1363C36.7458 14.1363 36.8871 14.1611 37.0043 14.1859C37.5421 14.2816 38.0074 14.6184 38.3349 15.1004L38.5004 15.3379L40.2308 19.5703L50.4964 44.4825L52.2268 48.7149L52.2716 49.002C52.3888 49.5549 52.2958 50.1327 51.9924 50.6113ZM41.1891 19.1875C43.1781 21.4703 45.6773 25.4368 47.9455 30.9204C50.2137 36.4041 51.2444 41.0193 51.4305 44.0713L41.1891 19.1875ZM52.6922 47.4636L52.4612 44.0004C52.2268 40.3458 50.9169 35.4399 48.8831 30.5128C46.8493 25.5821 44.3226 21.208 41.9372 18.4892L39.669 15.8909C42.5232 17.5037 46.3322 23.1788 49.2795 30.3178C52.2475 37.4604 53.5574 44.2414 52.6922 47.4636Z" fill="#67075B"/>
</g>
<path d="M21.0585 51.9335L19.7727 52.4864L16.5669 53.8831L15.8188 54.195L15.936 55.0138L17.994 68.5723C18.1112 69.2954 18.5317 69.9193 19.1626 70.2809C19.5142 70.4723 19.8899 70.568 20.2863 70.568C20.5897 70.568 20.893 70.4971 21.1757 70.3766C22.1098 69.9689 22.6717 69.0083 22.5787 67.9732L21.1964 53.3762L21.0585 51.9335ZM20.7758 69.4408C20.6138 69.5117 20.4483 69.5365 20.2863 69.5365C20.076 69.5365 19.8658 69.4868 19.6762 69.3663C19.328 69.1749 19.0936 68.8382 19.0454 68.4305L16.9874 54.8685L20.1932 53.4754L21.548 68.0938C21.5962 68.6716 21.2929 69.2245 20.7758 69.4408Z" fill="#67075B"/>
<path d="M36.2324 23.4199L35.6464 22.0232L34.8777 20.1729L33.8229 21.8566C28.1661 30.9453 20.0034 35.8724 16.7768 37.5809L15.9116 38.0382L16.2874 38.9527L20.286 48.69L20.6583 49.6046L21.5718 49.2891C23.6745 48.5447 29.3347 46.8149 36.3255 46.8149C39.1073 46.8149 41.8202 47.0772 44.4159 47.6302L46.3325 48.0414L45.5603 46.1875L36.2324 23.4199ZM36.3496 45.7302C29.3106 45.7302 23.6297 47.4388 21.2684 48.2576L17.2698 38.5167C20.3308 36.9075 28.8659 31.835 34.7122 22.4344L35.2982 23.8275L44.6503 46.5739C41.7512 45.9713 38.9694 45.7302 36.3496 45.7302Z" fill="#67075B"/>
<path d="M27.4871 48.1832L26.4116 48.4242C24.2847 48.9063 22.6922 49.4096 21.9235 49.6755L20.8687 50.037L21.3133 51.0934L21.4547 51.4549C21.4547 51.501 21.4788 51.5258 21.4788 51.5754C21.4788 51.6215 21.5029 51.6712 21.5236 51.7172L21.8993 55.783L22.0407 57.1761L23.3264 56.6479C24.9397 55.9744 26.2013 54.9642 26.9494 53.7377C27.6974 52.5112 27.9318 51.0225 27.6974 49.2891L27.4871 48.1832ZM26.0359 53.1847C25.243 54.5069 23.909 55.2548 22.9059 55.6625L22.5302 51.4797C22.5302 51.4301 22.506 51.3805 22.4819 51.3592C22.4612 51.2848 22.4612 51.1891 22.4371 51.1182L22.2509 50.6857C23.2092 50.349 24.7294 49.8917 26.6219 49.4841C26.8322 50.902 26.646 52.1532 26.0359 53.1847Z" fill="#67075B"/>
<path d="M7.51824 43.5679L7.23902 42.9193L6.70127 43.3765C5.06389 44.7944 4.52614 47.0772 5.36724 49.0977L5.62577 49.7215C6.11526 50.948 7.05288 51.8873 8.24214 52.3694C8.82815 52.6069 9.43484 52.7274 10.045 52.7274C10.207 52.7274 10.3725 52.7274 10.5345 52.7062L11.2136 52.6317L10.9343 51.9831L7.51824 43.5679ZM10.0691 52.1993C9.53136 52.1993 8.96948 52.0788 8.45586 51.8625C7.40104 51.4301 6.55994 50.59 6.11526 49.484L5.86018 48.8566C5.11215 47.0311 5.6499 44.961 7.05288 43.7593L10.5103 52.1745C10.3725 52.1745 10.207 52.1993 10.0691 52.1993Z" fill="#67075B"/>
<path d="M51.2447 48.9524C50.9414 48.1371 49.0454 43.5183 37.6596 15.9157C37.4941 15.5577 37.1908 15.2919 36.8185 15.221C36.7461 15.221 36.6772 15.1962 36.5841 15.1962C36.2807 15.1962 35.9981 15.3167 35.7637 15.5577L34.7813 16.5644L34.5503 16.8055L34.6882 17.1422L37.6113 24.2352L47.4322 48.0875L47.4563 48.1371L48.3457 50.2745L48.4836 50.6113H48.8352L50.214 50.59C50.6139 50.59 50.962 50.3951 51.1723 50.0583C51.3826 49.7216 51.4308 49.3139 51.2447 48.9524ZM50.7518 49.7712C50.6828 49.8917 50.5208 50.0583 50.214 50.0583L48.8352 50.0831L47.9458 47.9421L38.1043 24.0437L35.1811 16.9508L36.1635 15.9406C36.3014 15.774 36.491 15.7491 36.6048 15.7491C36.653 15.7491 36.7013 15.7491 36.722 15.774C36.8392 15.7952 37.0736 15.8909 37.1908 16.1568L50.8 49.1934C50.9172 49.4344 50.8241 49.6507 50.7518 49.7712Z" fill="#67075B"/>
<mask id="mask5_58_18" style="mask-type:luminance" maskUnits="userSpaceOnUse" x="2" y="12" width="53" height="60">
<path d="M2.1543 12.6546H54.2196V72H2.1543V12.6546Z" fill="white"/>
</mask>
<g mask="url(#mask5_58_18)">
<path d="M50.262 29.9102C47.3629 22.8669 42.9196 15.6534 39.1795 14.5227C38.7107 13.8243 38.0074 13.3423 37.1905 13.1757C36.9802 13.126 36.7941 13.126 36.5838 13.126C35.7427 13.126 34.9464 13.4628 34.3397 14.0902L32.7713 15.7243C32.4197 16.1107 32.3025 16.6637 32.5127 17.1422L33.4745 19.4994C28.1177 29.1162 19.3516 34.4793 16.2389 36.1631L16.0527 35.7306C15.9114 35.4151 15.6804 35.1528 15.3736 35.0323C15.2358 34.9614 15.0703 34.9366 14.9083 34.9366C14.7428 34.9366 14.5808 34.9614 14.4153 35.0323L6.25601 38.5912C5.62519 38.8783 5.32184 39.6227 5.57693 40.2962L6.02161 41.356C3.35698 43.1816 2.20909 46.7653 3.519 49.9165L3.77753 50.5404C4.4773 52.2702 5.81133 53.5959 7.49353 54.2907C8.31394 54.6274 9.17917 54.7976 10.0444 54.7976C10.5339 54.7976 11.0027 54.7231 11.4922 54.6274L11.9127 55.6873C12.0541 55.9992 12.2885 56.2615 12.5918 56.382C12.7332 56.4565 12.8952 56.4813 13.0606 56.4813C13.2226 56.4813 13.3881 56.4565 13.5501 56.382L14.5325 55.9496L16.4974 68.8629C16.6836 70.0646 17.3626 71.0748 18.3899 71.6739C18.9759 72.0106 19.6067 72.1808 20.2375 72.1808C20.7305 72.1808 21.2441 72.0851 21.7129 71.8688C23.2538 71.1954 24.1672 69.6073 24.0018 67.9023L23.1159 58.3777C24.4706 57.924 26.7629 56.8393 28.1176 54.6026C29.0759 52.9933 29.4034 51.1182 29.0759 49.002C31.227 48.6404 33.6848 48.3781 36.3494 48.3781C39.3173 48.3781 42.5438 48.69 45.8427 49.5549L46.801 51.9122C46.9872 52.3907 47.456 52.7062 47.9696 52.7062C47.9696 52.7062 47.9696 52.7062 47.9937 52.7062L50.2137 52.6814C51.2685 52.6814 52.2475 52.1284 52.8335 51.2139C53.3023 50.4907 53.4402 49.6258 53.2782 48.8106C55.1258 45.2517 53.161 36.9323 50.262 29.9102ZM52.8335 48.5199L52.7404 48.69L52.7646 48.8815C52.9024 49.5798 52.7646 50.2993 52.3888 50.9019C51.8993 51.6711 51.0789 52.1284 50.193 52.1284L47.9455 52.1532C47.6421 52.1532 47.3871 51.9583 47.2699 51.6959L46.3116 49.3387L46.215 49.0977L45.9599 49.0268C42.9196 48.2328 39.6931 47.8251 36.3494 47.8251C33.9398 47.8251 31.4614 48.0414 29.007 48.449L28.4934 48.5447L28.5623 49.0729C28.8657 51.0685 28.5865 52.848 27.6971 54.3155C26.4113 56.4317 24.1914 57.4419 22.9745 57.8495L22.5781 57.9949L22.6229 58.4025L23.5123 67.9236C23.6536 69.3911 22.8573 70.7629 21.5233 71.3407C21.1028 71.5073 20.6822 71.603 20.2375 71.603C19.6757 71.603 19.1379 71.4577 18.6484 71.1705C17.7591 70.6672 17.1524 69.7775 17.011 68.7424L15.0462 55.8291L14.9531 55.1556L14.3464 55.4214L13.364 55.8539C13.2709 55.9035 13.1778 55.9248 13.0848 55.9248C12.9882 55.9248 12.8952 55.9035 12.8021 55.8787C12.6159 55.8078 12.4746 55.6625 12.4057 55.4711L11.9851 54.4112L11.8197 54.0035L11.3991 54.0993C10.9338 54.195 10.4891 54.2659 10.0685 54.2659C9.24811 54.2659 8.45527 54.0993 7.7038 53.7873C6.13881 53.1386 4.92198 51.9122 4.26702 50.2993L4.01194 49.6755C2.84336 46.8149 3.80166 43.497 6.32495 41.7637L6.67656 41.5226L6.51455 41.115L6.09055 40.0587C5.92854 39.6723 6.11468 39.215 6.49042 39.0484L14.6498 35.4896C14.7428 35.4399 14.8359 35.4399 14.929 35.4399C15.0255 35.4399 15.1186 35.4648 15.2116 35.4896C15.3978 35.5605 15.5391 35.7058 15.6081 35.8972L15.7942 36.3297L16.0079 36.8578L16.4974 36.5955C19.9342 34.7452 28.5382 29.382 33.9398 19.7405L34.057 19.5242L33.964 19.2832L33.0057 16.926C32.8885 16.6388 32.9574 16.3021 33.1677 16.0859L34.7361 14.4482C35.2256 13.9449 35.9047 13.6329 36.6045 13.6329C36.7699 13.6329 36.9319 13.6577 37.0974 13.679C37.7765 13.8243 38.359 14.2107 38.7589 14.8098L38.852 14.9551L39.014 15.0047C42.5921 16.0611 46.9872 23.3454 49.769 30.0803C52.5543 36.8366 54.5881 45.156 52.8335 48.5199Z" fill="#67075B"/>
</g>
<path d="M19.8171 51.4053L20.2859 51.189L20.0756 50.7105L16.7078 42.5081L14.9291 38.2048L14.7188 37.7014L14.5085 37.2194L14.0432 37.4356L8.19684 39.9842L7.72803 40.2005L7.9383 40.6825L8.31404 41.6183L12.8953 52.7522L13.271 53.6916L13.4813 54.1701L13.9501 53.9539L17.2214 52.536L19.8171 51.4053ZM13.7605 53.4506L13.3882 52.5112L8.80353 41.3808L8.43124 40.4415L14.2776 37.8929L14.4878 38.3997L16.2631 42.703L19.6309 50.9019L17.0594 52.0079L13.7605 53.4506Z" fill="#67075B"/>
<path d="M48.4147 30.7042C46.405 25.848 43.9265 21.4951 41.5653 18.8259L39.5073 16.4687L40.7 19.3789L50.9414 44.2662L52.1341 47.1729L51.9204 44.0252C51.7101 40.4167 50.4244 35.5605 48.4147 30.7042ZM41.1895 19.1875C43.1785 21.4703 45.6777 25.4368 47.9459 30.9204C50.2141 36.4041 51.2448 41.0193 51.4309 44.0713L41.1895 19.1875Z" fill="#67075B"/>
<path d="M35.7637 23.6361L35.1811 22.2395L34.8054 21.325L34.2677 22.1686C28.5385 31.3529 20.2861 36.3545 17.0114 38.0843L16.5908 38.3005L16.777 38.7578L20.7756 48.4951L20.9652 48.9524L21.4064 48.7858C23.5368 48.0414 29.2659 46.2832 36.3256 46.2832C39.1315 46.2832 41.8927 46.5739 44.5332 47.102L45.4915 47.2934L45.1192 46.3825L35.7637 23.6361ZM36.3497 45.7302C29.3107 45.7302 23.6298 47.4388 21.2686 48.2576L17.2699 38.5168C20.3309 36.9075 28.866 31.835 34.7123 22.4344L35.2983 23.8275L44.6504 46.5739C41.7514 45.9713 38.9695 45.7302 36.3497 45.7302Z" fill="#67075B"/>
<path d="M27.0667 48.8105L26.5289 48.9311C24.4227 49.4096 22.8578 49.8917 22.0856 50.1575L21.5479 50.3241L21.7581 50.8523L21.9443 51.3096C21.9443 51.3592 21.9443 51.3805 21.9684 51.4301L22.0167 51.5506L22.4131 55.6873L22.482 56.382L23.1163 56.1197C24.6365 55.4923 25.805 54.5565 26.4807 53.4257C27.1598 52.295 27.37 50.9267 27.1598 49.3387L27.0667 48.8105ZM26.036 53.1847C25.2432 54.5069 23.9091 55.2548 22.906 55.6625L22.5303 51.4797C22.5303 51.4301 22.5062 51.3805 22.482 51.3592C22.4613 51.2847 22.4613 51.189 22.4372 51.1181L22.2511 50.6857C23.2094 50.3489 24.7295 49.8917 26.622 49.484C26.8323 50.9019 26.6461 52.1532 26.036 53.1847Z" fill="#67075B"/>
<path d="M20.6139 52.7062L19.959 52.9933L16.7566 54.3864L16.3809 54.5565L16.4498 54.9642L18.5077 68.5262C18.6008 69.0792 18.9283 69.5612 19.3971 69.8484C19.6556 69.9937 19.959 70.0894 20.2623 70.0894C20.4967 70.0894 20.7311 70.0398 20.9655 69.9441C21.6894 69.6321 22.1341 68.8877 22.041 68.0689L20.6829 53.4506L20.6139 52.7062ZM20.7759 69.4407C20.6139 69.5116 20.4485 69.5364 20.2864 69.5364C20.0762 69.5364 19.8659 69.4868 19.6763 69.3663C19.3281 69.1749 19.0937 68.8381 19.0455 68.4305L16.9876 54.8684L20.1934 53.4754L21.5481 68.0937C21.5964 68.6715 21.293 69.2245 20.7759 69.4407Z" fill="#67075B"/>
</svg>
