<svg width="72" height="72" viewBox="0 0 72 72" fill="none" xmlns="http://www.w3.org/2000/svg">
<path d="M18.918 43.4283C18.332 43.4283 17.8516 43.9058 17.8516 44.4947V49.8239C17.8516 50.4098 18.332 50.8874 18.918 50.8874C19.5039 50.8874 19.9844 50.4098 19.9844 49.8239V44.4947C19.9844 43.9058 19.5039 43.4283 18.918 43.4283Z" fill="#67075B"/>
<mask id="mask0_58_19" style="mask-type:luminance" maskUnits="userSpaceOnUse" x="4" y="4" width="64" height="64">
<path d="M4 4H68V68H4V4Z" fill="white"/>
</mask>
<g mask="url(#mask0_58_19)">
<path d="M65.8086 54.0838H27.4437V46.6247C27.4437 41.9254 23.6175 38.0992 18.9182 38.0992C14.2189 38.0992 10.3927 41.9254 10.3927 46.6247V54.0838H6.12992V25.3138H12.5255C13.1115 25.3138 13.589 24.8333 13.589 24.2474V17.8518H55.1502V32.7729C55.1502 32.7875 55.159 32.8022 55.159 32.8139C55.1619 32.9399 55.1854 33.06 55.2352 33.1772C55.2352 33.1801 55.2352 33.1831 55.2381 33.1889C55.2381 33.1919 55.2381 33.1919 55.2381 33.1919L58.4344 40.651C58.6014 41.0435 58.9881 41.2984 59.413 41.2984C59.8378 41.2984 60.2245 41.0435 60.3915 40.651L63.5878 33.1919C63.5878 33.1919 63.5878 33.1919 63.5878 33.1889C63.5937 33.1831 63.5937 33.1801 63.5937 33.1772C63.6435 33.06 63.664 32.9399 63.6669 32.8139C63.6669 32.8022 63.6757 32.7875 63.6757 32.7729V17.8518H65.8086V54.0838ZM25.3138 59.413C25.3138 62.9404 22.4456 65.8086 18.9182 65.8086C15.3937 65.8086 12.5255 62.9404 12.5255 59.413V46.6247C12.5255 43.1002 15.3937 40.232 18.9182 40.232C22.4456 40.232 25.3138 43.1002 25.3138 46.6247V59.413ZM11.4591 19.3606V23.181H7.63873L11.4591 19.3606ZM9.95322 17.8518L6.12992 21.6751V17.8518H9.95322ZM57.283 6.12991H61.5458V8.26276H57.283V6.12991ZM60.995 33.8364L59.413 37.5249L57.8309 33.8364H60.995ZM61.5458 31.7065H57.283V10.3927H61.5458V31.7065ZM66.8721 15.7219H63.6757V5.06642C63.6757 4.47755 63.1982 4 62.6093 4H56.2166C55.6307 4 55.1502 4.47755 55.1502 5.06642V15.7219H5.06642C4.47755 15.7219 4 16.1994 4 16.7883V55.1502C4 55.7391 4.47755 56.2166 5.06642 56.2166H10.3927V59.413C10.3927 64.1122 14.2189 67.9385 18.9182 67.9385C23.6175 67.9385 27.4437 64.1122 27.4437 59.413V56.2166H66.8721C67.4609 56.2166 67.9385 55.7391 67.9385 55.1502V16.7883C67.9385 16.1994 67.4609 15.7219 66.8721 15.7219Z" fill="#67075B"/>
</g>
<path d="M62.6089 49.8239H60.479C59.8931 49.8239 59.4126 50.3015 59.4126 50.8874C59.4126 51.4763 59.8931 51.9538 60.479 51.9538H62.6089C63.1978 51.9538 63.6754 51.4763 63.6754 50.8874C63.6754 50.3015 63.1978 49.8239 62.6089 49.8239Z" fill="#67075B"/>
<path d="M56.2164 49.8239H54.0835C53.4976 49.8239 53.02 50.3015 53.02 50.8874C53.02 51.4763 53.4976 51.9538 54.0835 51.9538H56.2164C56.8023 51.9538 57.2828 51.4763 57.2828 50.8874C57.2828 50.3015 56.8023 49.8239 56.2164 49.8239Z" fill="#67075B"/>
<path d="M47.451 23.5735C47.076 23.1194 46.4051 23.0491 45.951 23.4212L34.9381 32.4359L24.9595 23.4563C24.5933 23.1223 24.0483 23.0901 23.6382 23.3684L9.78639 32.9604C9.30299 33.2973 9.18287 33.9594 9.51393 34.4457C9.72194 34.7416 10.0559 34.9028 10.3928 34.9028C10.6067 34.9028 10.8147 34.8413 11.0022 34.7153L24.1597 25.6038L34.1911 34.6274C34.5836 34.9819 35.1696 34.9936 35.5768 34.6625L47.2987 25.0706C47.7528 24.7014 47.826 24.0276 47.451 23.5735Z" fill="#67075B"/>
<path d="M40.0236 45.5612L43.428 40.1119L46.8323 45.5612H40.0236ZM44.3303 37.5338C43.9407 36.9127 42.9153 36.9127 42.5256 37.5338L37.1964 46.0593C36.9914 46.3874 36.9796 46.8034 37.1672 47.1404C37.3547 47.4802 37.7121 47.6911 38.0988 47.6911H48.7572C49.1439 47.6911 49.5013 47.4802 49.6888 47.1404C49.8763 46.8034 49.8646 46.3874 49.6595 46.0593L44.3303 37.5338Z" fill="#67075B"/>
</svg>
