<svg width="72" height="72" viewBox="0 0 72 72" fill="none" xmlns="http://www.w3.org/2000/svg">
<mask id="mask0_58_20" style="mask-type:luminance" maskUnits="userSpaceOnUse" x="3" y="17" width="62" height="54">
<path d="M3 17.5555H65V70.4285H3V17.5555Z" fill="white"/>
</mask>
<g mask="url(#mask0_58_20)">
<path d="M61.1725 42.7399H51.1848V23.5086C51.1848 20.6129 48.8295 18.2576 45.9338 18.2576H28.0938C25.1981 18.2576 22.8427 20.6129 22.8427 23.5086V23.9616H7.73016C6.42306 23.9616 5.20654 24.5601 4.3071 25.6537C3.4659 26.6761 3 28.0252 3 29.4456V43.814C3 45.2376 3.4659 46.5835 4.3071 47.6059C5.20654 48.6995 6.42306 49.3012 7.73016 49.3012H22.8427C22.8427 49.311 22.8427 49.3174 22.8427 49.3271V64.9477C22.8427 67.8433 25.1981 70.1987 28.0938 70.1987H45.9338C48.8295 70.1987 51.1848 67.8433 51.1848 64.9477V60.6284H61.1725C63.4341 60.6284 65.2718 58.7907 65.2718 56.5324V46.8391C65.2718 44.5808 63.4341 42.7399 61.1725 42.7399ZM6.19334 46.0561C5.70803 45.4673 5.44273 44.6714 5.44273 43.814V29.4456C5.44273 28.5882 5.70803 27.7923 6.19334 27.2067C6.62041 26.6858 7.16396 26.4011 7.73016 26.4011H26.0069C26.5731 26.4011 27.1199 26.6858 27.5438 27.2067C28.0291 27.7923 28.2944 28.5882 28.2944 29.4456V50.3107L24.7904 47.1724C24.564 46.9718 24.276 46.8585 23.9751 46.8585H7.73016C7.16396 46.8585 6.62041 46.5738 6.19334 46.0561ZM45.9338 67.536H28.0938C26.667 67.536 25.5055 66.3745 25.5055 64.9477V51.0904L28.702 53.9538C28.9285 54.1576 29.2197 54.2644 29.5174 54.2644C29.6856 54.2644 29.8538 54.2288 30.0156 54.1576C30.4524 53.9635 30.7371 53.5267 30.7371 53.0446V29.4456C30.7371 28.0252 30.2744 26.6761 29.43 25.6537C28.5306 24.5601 27.314 23.9616 26.0069 23.9616H25.5087V23.5086C25.5087 22.0818 26.667 20.9203 28.097 20.9203H45.9338C47.3606 20.9203 48.5221 22.0818 48.5221 23.5086V42.7399H47.5709C45.3126 42.7399 43.4749 44.5808 43.4749 46.8391V64.1162C43.4749 64.6144 43.779 65.0609 44.2384 65.2485C44.3873 65.31 44.5426 65.3391 44.6946 65.3391C45.0214 65.3391 45.3417 65.2065 45.5747 64.9638L48.5221 61.9096V64.9477C48.5221 66.3745 47.3606 67.536 45.9338 67.536ZM62.8291 56.5324C62.8291 57.4448 62.0849 58.1889 61.1725 58.1889H49.2371C48.9039 58.1889 48.5868 58.3215 48.3571 58.561L45.9176 61.0943V46.8391C45.9176 45.9267 46.6585 45.1826 47.5709 45.1826H61.1725C62.0849 45.1826 62.8291 45.9267 62.8291 46.8391V56.5324Z" fill="#67075B"/>
</g>
<path d="M54.4395 47.3471C53.8442 46.9491 53.1421 46.7356 52.4077 46.7356C51.4241 46.7356 50.502 47.1206 49.8064 47.8162C48.3699 49.2527 48.3699 51.5887 49.8064 53.022L50.0943 53.3132L53.5756 56.7945C53.8151 57.0339 54.1289 57.1536 54.4395 57.1536C54.7533 57.1536 55.0639 57.0339 55.3033 56.7945L59.0758 53.022C59.7714 52.3264 60.1532 51.4043 60.1532 50.4207C60.1532 49.4372 59.7714 48.5118 59.0758 47.8162C57.8172 46.5576 55.8695 46.4023 54.4395 47.3471ZM51.5309 51.2975C51.2979 51.0613 51.1685 50.7507 51.1685 50.4207C51.1685 50.0875 51.2979 49.7769 51.5309 49.5407C51.767 49.3077 52.0776 49.1783 52.4077 49.1783C52.7409 49.1783 53.0515 49.3077 53.2877 49.5407L53.5756 49.8319C53.6501 49.9063 53.7342 49.9678 53.8183 50.0195C54.2486 50.2719 54.7954 50.2428 55.1933 49.9289C55.1998 49.9225 55.2063 49.9192 55.2095 49.916H55.2127C55.2419 49.8901 55.2742 49.861 55.3033 49.8319L55.5945 49.5407C55.8275 49.3077 56.1381 49.1783 56.4713 49.1783C56.8013 49.1783 57.1152 49.3077 57.3481 49.5407C57.5843 49.7769 57.7137 50.0875 57.7137 50.4175C57.7137 50.7507 57.5843 51.0613 57.3481 51.2975L54.4395 54.2061L51.5309 51.2975Z" fill="#67075B"/>
<path d="M25.5896 42.879C25.5896 42.5555 25.5249 42.2481 25.4116 41.9666C25.7481 41.5493 25.9519 41.0154 25.9519 40.4363C25.9519 40.0707 25.8711 39.7213 25.7222 39.4074C26.0069 39.0095 26.1719 38.5209 26.1719 37.9968C26.1719 37.7088 26.1234 37.4306 26.0296 37.175C26.4146 36.7447 26.6476 36.1753 26.6476 35.5573C26.6476 34.2081 25.5507 33.1146 24.2048 33.1146H19.7206C19.7723 32.1601 19.7561 31.2024 19.672 30.2545C19.6397 28.5656 18.2582 27.2035 16.5628 27.2035C15.301 27.2035 14.2721 28.2323 14.2721 29.4942V30.1348C14.2721 30.9501 14.1751 31.7686 13.9777 32.5613C13.7933 33.2958 13.1365 33.8102 12.3794 33.8102H8.98226C8.30606 33.8102 7.75928 34.357 7.75928 35.0299V44.0988C7.75928 44.7717 8.30606 45.3185 8.98226 45.3185H23.1468C24.4928 45.3185 25.5896 44.2249 25.5896 42.879ZM11.1597 42.879H10.202V36.2497H11.1597V42.879ZM23.5092 37.9968C22.8362 37.9968 22.2895 38.5436 22.2895 39.2165C22.2895 39.8766 22.8168 40.4169 23.4704 40.4363H23.1468C22.4739 40.4363 21.9271 40.9831 21.9271 41.656V41.6593C21.9271 42.3193 22.4545 42.8596 23.1113 42.879H13.6024V36.0653C14.9354 35.6479 15.9966 34.564 16.346 33.1502C16.5919 32.1634 16.7149 31.1507 16.7149 30.1348V29.6624C17.0093 29.7336 17.2293 29.9989 17.2293 30.3127C17.2293 30.3515 17.2325 30.3871 17.2358 30.4227C17.3425 31.6036 17.3296 32.8007 17.2002 33.9817L17.1743 34.2017C17.1355 34.5446 17.2487 34.8908 17.4784 35.1496C17.7114 35.4085 18.0414 35.5573 18.3876 35.5573H23.6936C23.0368 35.5767 22.5095 36.1138 22.5095 36.777C22.5095 37.4371 23.0368 37.9774 23.6936 37.9968H23.5092Z" fill="#67075B"/>
<path d="M38.6476 13.3335C38.6476 13.5502 38.6056 13.7573 38.5215 13.9579C38.4406 14.1585 38.3209 14.3332 38.1688 14.4885C38.0167 14.6406 37.8388 14.757 37.6382 14.8412C37.4376 14.9253 37.2305 14.9641 37.0138 14.9641C36.797 14.9641 36.5899 14.9253 36.3893 14.8412C36.1887 14.757 36.0108 14.6406 35.8587 14.4885C35.7067 14.3332 35.5869 14.1585 35.5061 13.9579C35.4219 13.7573 35.3799 13.5502 35.3799 13.3335C35.3799 13.1167 35.4219 12.9064 35.5061 12.7058C35.5869 12.5084 35.7067 12.3305 35.8587 12.1784C36.0108 12.0231 36.1887 11.9067 36.3893 11.8225C36.5899 11.7416 36.797 11.6996 37.0138 11.6996C37.2305 11.6996 37.4376 11.7416 37.6382 11.8225C37.8388 11.9067 38.0167 12.0231 38.1688 12.1784C38.3209 12.3305 38.4406 12.5084 38.5215 12.7058C38.6056 12.9064 38.6476 13.1167 38.6476 13.3335Z" fill="#67075B"/>
<path d="M29.8636 6.17988C31.7725 4.27099 34.3122 3.21949 37.0138 3.21949C39.7154 3.21949 42.2552 4.27099 44.164 6.17988C44.3808 6.39665 44.6655 6.50665 44.9502 6.50665C45.235 6.50665 45.5164 6.39665 45.7332 6.17988C46.1668 5.74634 46.1668 5.04425 45.7332 4.61071C43.4037 2.28122 40.3074 1 37.0138 1C33.7202 1 30.6239 2.28122 28.2944 4.61071C27.8609 5.04425 27.8609 5.74634 28.2944 6.17988C28.7279 6.61342 29.43 6.61342 29.8636 6.17988Z" fill="#67075B"/>
<path d="M40.6085 11.3048C41.042 10.8712 41.042 10.1691 40.6085 9.7356C39.6508 8.77469 38.3728 8.24731 37.0139 8.24731C35.6551 8.24731 34.3771 8.77469 33.4194 9.7356C32.9859 10.1691 32.9859 10.8712 33.4194 11.3048C33.6362 11.5215 33.9176 11.6315 34.2024 11.6315C34.4871 11.6315 34.7718 11.5215 34.9886 11.3048C35.5289 10.7645 36.2471 10.4668 37.0139 10.4668C37.7807 10.4668 38.499 10.7645 39.0393 11.3048C39.4728 11.7383 40.1781 11.7383 40.6085 11.3048Z" fill="#67075B"/>
<path d="M42.3456 9.10791C42.6303 9.10791 42.915 9.00115 43.1318 8.78437C43.5653 8.35083 43.5653 7.64875 43.1318 7.2152C41.4979 5.58133 39.3237 4.68188 37.0136 4.68188C34.7035 4.68188 32.5293 5.58133 30.8955 7.2152C30.4619 7.64875 30.4619 8.35083 30.8955 8.78437C31.329 9.21792 32.0311 9.21792 32.4646 8.78437C33.6812 7.56786 35.2956 6.90137 37.0136 6.90137C38.7316 6.90137 40.3461 7.56786 41.5626 8.78437C41.7794 9.00115 42.0641 9.10791 42.3456 9.10791Z" fill="#67075B"/>
<path d="M34.4871 25.7281H39.337C40.0132 25.7281 40.56 25.1813 40.56 24.5051C40.56 23.8322 40.0132 23.2854 39.337 23.2854H34.4871C33.8109 23.2854 33.2642 23.8322 33.2642 24.5051C33.2642 25.1813 33.8109 25.7281 34.4871 25.7281Z" fill="#67075B"/>
<path d="M38.6444 63.8412C38.6444 64.0807 38.5991 64.3104 38.5085 64.5336C38.4147 64.7536 38.2853 64.9478 38.117 65.1192C37.9488 65.2875 37.7514 65.4169 37.5314 65.5107C37.3082 65.6013 37.0785 65.6466 36.839 65.6466C36.5996 65.6466 36.3699 65.6013 36.1499 65.5107C35.9299 65.4169 35.7325 65.2875 35.5643 65.1192C35.3961 64.9478 35.2634 64.7536 35.1728 64.5336C35.0822 64.3104 35.0337 64.0807 35.0337 63.8412C35.0337 63.6018 35.0822 63.3721 35.1728 63.1521C35.2634 62.9289 35.3961 62.7347 35.5643 62.5665C35.7325 62.395 35.9299 62.2656 36.1499 62.175C36.3699 62.0844 36.5996 62.0359 36.839 62.0359C37.0785 62.0359 37.3082 62.0844 37.5314 62.175C37.7514 62.2656 37.9488 62.395 38.117 62.5665C38.2853 62.7347 38.4147 62.9289 38.5085 63.1521C38.5991 63.3721 38.6444 63.6018 38.6444 63.8412Z" fill="#67075B"/>
<path d="M33.3999 30.054H36.3474V32.4967H33.3999V30.054Z" fill="#67075B"/>
<path d="M38.7998 30.054H45.4874V32.4967H38.7998V30.054Z" fill="#67075B"/>
<path d="M33.2544 34.205H45.4874V36.6477H33.2544V34.205Z" fill="#67075B"/>
<path d="M33.2544 38.3591H45.4874V40.7986H33.2544V38.3591Z" fill="#67075B"/>
<path d="M33.2739 56.5454H41.1554V58.9881H33.2739V56.5454Z" fill="#67075B"/>
<path d="M33.2739 52.5626H41.1554V55.0021H33.2739V52.5626Z" fill="#67075B"/>
<path d="M28.2783 56.5454H30.8408V58.9881H28.2783V56.5454Z" fill="#67075B"/>
</svg>
