<svg width="229" height="57" viewBox="0 0 229 57" fill="none" xmlns="http://www.w3.org/2000/svg">
<g clip-path="url(#clip0_112_464)">
<path d="M80.1151 43.7296L68.0766 27.2082C72.5701 25.6191 75.9443 21.0137 75.9443 15.6076C75.9443 8.14351 69.5227 2.10669 61.4957 2.10669H47.856V11.8109C55.2375 22.6108 62.4598 33.0995 69.682 43.7539L80.1151 43.7296ZM56.3731 10.3674H61.8307C63.2277 10.4032 64.5575 10.9685 65.5457 11.9466C66.5339 12.9247 67.105 14.241 67.1412 15.6238C67.1412 18.6443 64.5717 21.0299 61.8307 20.8803H56.3731V10.3674Z" fill="#0D0D0D"/>
<path d="M52.0716 43.7942C54.3503 43.7942 56.1975 41.9658 56.1975 39.7103C56.1975 37.4549 54.3503 35.6265 52.0716 35.6265C49.793 35.6265 47.9458 37.4549 47.9458 39.7103C47.9458 41.9658 49.793 43.7942 52.0716 43.7942Z" fill="#0D0D0D"/>
<path d="M134.298 43.7619H143.449L123.224 1.0271H123.064L102.999 43.7619H111.986C116.957 33.2774 117.603 31.846 123.22 19.7724C128.841 32.0077 129.163 32.8002 134.298 43.7619Z" fill="#0D0D0D"/>
<path d="M182.505 43.7618L170.47 27.2404C174.964 25.6514 178.334 21.0419 178.334 15.6399C178.334 8.17169 171.912 2.13892 163.885 2.13892H150.246V11.8431C157.627 22.6471 164.854 33.1357 172.072 43.7861L182.505 43.7618ZM158.751 10.3956H164.216C165.613 10.4323 166.942 10.998 167.93 11.9759C168.918 12.9538 169.49 14.2695 169.527 15.652C169.527 18.6724 166.957 21.054 164.216 20.9084H158.751V10.3956Z" fill="#0D0D0D"/>
<path d="M154.461 43.7456C156.74 43.7456 158.587 41.9172 158.587 39.6617C158.587 37.4063 156.74 35.5779 154.461 35.5779C152.183 35.5779 150.335 37.4063 150.335 39.6617C150.335 41.9172 152.183 43.7456 154.461 43.7456Z" fill="#0D0D0D"/>
<path d="M229 17.0835C228.13 5.89941 218.857 1.0271 210.454 1.0271C200.025 1.0271 189.302 7.33482 189.302 22.534C189.302 36.0148 199.735 43.7619 209.874 43.7619C217.411 43.7619 224.944 39.4597 227.848 30.0143C225.242 34.3165 221.186 36.3221 216.819 36.3221C205.81 36.3221 199.433 26.8605 199.433 17.1037L229 17.0835ZM199.445 15.9392C199.756 5.89941 204.952 1.8843 209.874 1.8843C214.797 1.8843 219.147 5.61233 219.147 10.4927C219.147 12.2112 218.857 14.2167 217.701 15.9392H199.445Z" fill="#0D0D0D"/>
<path d="M30.3475 42.4194H14.1587V46.6165H30.3475V42.4194Z" fill="#0D0D0D"/>
<path d="M30.3475 47.2473H14.1587V49.3458H30.3475V47.2473Z" fill="#0D0D0D"/>
<path d="M30.3475 49.9807H14.1587V51.028H30.3475V49.9807Z" fill="#0D0D0D"/>
<path d="M87.4474 39.4273C87.4474 36.8678 89.2407 35.1373 91.8265 35.1373C94.4899 35.1373 96.2832 36.8678 96.2832 39.4273C96.2832 42.0677 94.4899 43.7619 91.8265 43.7619C89.2407 43.7619 87.4474 42.0515 87.4474 39.4273ZM87.2881 5.15535C87.2881 0.590338 91.0953 0 94.4899 0H96.2015V26.9291C96.2015 31.4941 92.3044 32.0845 88.9997 32.0845H87.2881V5.15535Z" fill="#0D0D0D"/>
<path d="M29.355 2.77381C18.207 -1.29387 5.42923 4.54482 1.32382 15.5793C-2.78159 26.6138 2.95781 39.205 14.3958 43.3778C20.3925 45.5653 25.5355 44.5908 30.2577 42.4397L30.3231 42.4114L30.3517 34.5025H28.1499C24.4938 36.0511 20.6131 36.8315 16.9979 35.5133C10.9725 33.3178 6.69965 25.4937 9.23643 18.6361C11.7732 11.7785 19.9391 8.31328 26.2626 10.618C29.7267 11.8836 32.431 14.7302 33.9914 18.345L40.9931 13.7881C38.2153 8.37393 34.4775 4.64186 29.355 2.77381Z" fill="#0D0D0D"/>
<path d="M132.636 56.8342V51.3513L135.446 55.3017L135.144 55.2411L137.946 51.3513V56.8301H137.256V52.9687L137.297 53.3285L135.275 56.1589L133.232 53.3285L133.359 52.997V56.8342H132.636Z" fill="#0D0D0D"/>
<path d="M139.707 56.8341L142.051 51.3027H142.092L144.433 56.8341H143.616L141.863 52.4187L142.378 52.0872L140.417 56.8341H139.707ZM141.079 54.8124H143.073L143.309 55.4311H140.859L141.079 54.8124Z" fill="#0D0D0D"/>
<path d="M147.623 51.5211C147.878 51.5186 148.131 51.5555 148.375 51.6303C148.595 51.6926 148.8 51.8 148.975 51.9457C149.149 52.0844 149.288 52.2599 149.384 52.4592C149.482 52.6821 149.531 52.9235 149.527 53.1668C149.526 53.3764 149.495 53.5849 149.433 53.7854C149.371 53.9868 149.266 54.1728 149.126 54.3313C148.973 54.5062 148.782 54.6444 148.567 54.7356C148.297 54.843 148.008 54.8939 147.717 54.8852H146.9V56.8422H146.181V51.5211H147.623ZM147.697 54.1979C147.879 54.2035 148.06 54.1705 148.228 54.1008C148.356 54.046 148.47 53.9614 148.559 53.8542C148.635 53.7558 148.693 53.6449 148.73 53.5267C148.761 53.4201 148.778 53.31 148.779 53.1991C148.779 53.0852 148.761 52.972 148.726 52.8635C148.688 52.7463 148.627 52.6377 148.546 52.5441C148.458 52.4422 148.35 52.3596 148.228 52.3015C148.078 52.2329 147.915 52.1997 147.75 52.2045H146.933V54.1817L147.697 54.1979ZM148.579 54.6022L149.984 56.8382H149.167L147.742 54.6265L148.579 54.6022Z" fill="#0D0D0D"/>
<path d="M152.558 53.6602L152.533 53.923L152.631 53.7936L154.829 51.5212H155.756L153.538 53.7977L155.883 56.8343H154.968L153.011 54.2546L152.558 54.6872V56.8343H151.831V51.5212H152.558V53.6602Z" fill="#0D0D0D"/>
<path d="M157.611 51.5212H161.095V52.2046H158.33V53.8219H160.801V54.5053H158.33V56.1509H161.189V56.8343H157.599L157.611 51.5212Z" fill="#0D0D0D"/>
<path d="M162.794 51.5212H166.357V52.2046H164.919V56.8343H164.216V52.2046H162.811L162.794 51.5212Z" fill="#0D0D0D"/>
<path d="M168.244 51.5212H168.963V56.8343H168.244V51.5212Z" fill="#0D0D0D"/>
<path d="M175.891 57.0121L171.745 52.8514L171.954 52.8999V56.8463H171.23V51.3513H171.267L175.373 55.5322L175.201 55.4958V51.5131H175.916V57.0121H175.891Z" fill="#0D0D0D"/>
<path d="M182.398 56.3773C182.305 56.4542 182.2 56.5169 182.088 56.5633C181.945 56.6296 181.798 56.685 181.647 56.729C181.484 56.779 181.317 56.8182 181.148 56.8463C180.991 56.876 180.831 56.8909 180.671 56.8908C180.275 56.8973 179.881 56.8301 179.51 56.6927C179.182 56.5693 178.882 56.3823 178.628 56.1428C178.386 55.9141 178.195 55.6389 178.064 55.3341C177.93 55.0052 177.862 54.6536 177.864 54.2989C177.858 53.8922 177.933 53.4882 178.085 53.1102C178.222 52.7763 178.426 52.4736 178.685 52.2206C178.938 51.9808 179.236 51.7938 179.563 51.6707C179.9 51.5457 180.258 51.4827 180.617 51.4847C180.911 51.4823 181.204 51.519 181.488 51.5939C181.732 51.6579 181.968 51.7516 182.19 51.8729L181.945 52.5279C181.83 52.4608 181.708 52.4065 181.581 52.3662C181.434 52.3178 181.284 52.2773 181.132 52.2449C180.99 52.2139 180.845 52.1976 180.699 52.1964C180.407 52.1933 180.117 52.2412 179.841 52.3379C179.593 52.426 179.368 52.5664 179.18 52.7493C178.993 52.9322 178.847 53.1533 178.755 53.3973C178.653 53.6688 178.603 53.9568 178.608 54.2464C178.602 54.5229 178.652 54.7978 178.755 55.0551C178.846 55.2872 178.985 55.4979 179.163 55.6737C179.351 55.8525 179.575 55.9902 179.821 56.0781C180.09 56.1777 180.375 56.2271 180.662 56.2236C180.845 56.223 181.027 56.204 181.206 56.167C181.365 56.1367 181.519 56.0836 181.663 56.0093V54.954H180.597V54.2706H182.382L182.398 56.3773Z" fill="#0D0D0D"/>
<path d="M187.603 56.8342V51.5212H189.061C189.525 51.5091 189.987 51.5917 190.418 51.7638C190.763 51.907 191.072 52.1253 191.32 52.4027C191.541 52.6611 191.71 52.9589 191.819 53.2801C191.923 53.5892 191.976 53.9126 191.978 54.2384C191.985 54.6091 191.913 54.9771 191.766 55.3179C191.631 55.6242 191.433 55.8995 191.186 56.1266C190.938 56.3511 190.65 56.5267 190.336 56.6442C190.012 56.7663 189.669 56.8279 189.323 56.8261L187.603 56.8342ZM188.322 56.1509H189.18C189.458 56.1535 189.734 56.1083 189.997 56.0175C190.238 55.9347 190.46 55.8056 190.65 55.6374C190.838 55.4658 190.985 55.2561 191.083 55.0228C191.19 54.7663 191.243 54.4913 191.239 54.2141C191.246 53.9175 191.19 53.6227 191.075 53.3488C190.977 53.1127 190.826 52.9013 190.634 52.7302C190.447 52.5636 190.229 52.4345 189.993 52.3501C189.753 52.2641 189.5 52.2203 189.245 52.2207H188.318L188.322 56.1509Z" fill="#0D0D0D"/>
<path d="M193.931 51.5212H197.419V52.2046H194.65V53.8219H197.121V54.5053H194.65V56.1509H197.509V56.8343H193.918L193.931 51.5212Z" fill="#0D0D0D"/>
<path d="M202.615 56.8342V51.3513L205.43 55.3017L205.123 55.2411L207.926 51.3513V56.8301H207.215V52.9687L207.26 53.3285L205.217 56.1589L203.175 53.3285L203.302 52.997V56.8342H202.615Z" fill="#0D0D0D"/>
<path d="M209.883 54.1817C209.88 53.8245 209.952 53.4705 210.095 53.1425C210.233 52.8195 210.433 52.5258 210.683 52.2772C210.934 52.0247 211.23 51.8216 211.557 51.6788C211.893 51.5375 212.253 51.4646 212.617 51.4646C212.982 51.4646 213.342 51.5375 213.678 51.6788C214.005 51.8225 214.303 52.0255 214.556 52.2772C214.808 52.5254 215.011 52.8191 215.152 53.1425C215.297 53.4703 215.37 53.8242 215.369 54.1817C215.371 54.5445 215.297 54.9038 215.152 55.237C214.869 55.8883 214.342 56.4057 213.682 56.6805C213.346 56.8222 212.984 56.8938 212.62 56.8908C212.255 56.8939 211.894 56.8238 211.557 56.6846C211.233 56.5505 210.936 56.3571 210.683 56.1144C210.423 55.8632 210.216 55.5626 210.076 55.2305C209.935 54.8984 209.864 54.5417 209.866 54.1817H209.883ZM210.626 54.1817C210.625 54.5763 210.74 54.9626 210.958 55.2931C211.175 55.6236 211.486 55.8838 211.852 56.0417C212.1 56.1477 212.369 56.2014 212.64 56.1994C212.908 56.201 213.174 56.1473 213.42 56.0417C213.658 55.9399 213.872 55.7914 214.049 55.605C214.223 55.4163 214.361 55.1986 214.458 54.9621C214.562 54.7122 214.615 54.4441 214.613 54.1736C214.614 53.9033 214.561 53.6354 214.458 53.3851C214.356 53.1432 214.209 52.9224 214.025 52.7342C213.842 52.5497 213.626 52.4014 213.388 52.2975C213.141 52.1914 212.876 52.1377 212.607 52.1398C212.337 52.1367 212.069 52.1919 211.823 52.3015C211.34 52.5144 210.959 52.9042 210.761 53.3892C210.667 53.6428 210.621 53.9115 210.626 54.1817Z" fill="#0D0D0D"/>
<path d="M217.321 56.8342V51.5212H218.784C219.248 51.5091 219.709 51.5917 220.14 51.7638C220.484 51.907 220.791 52.1254 221.039 52.4027C221.262 52.6599 221.433 52.958 221.541 53.2801C221.645 53.5892 221.699 53.9126 221.7 54.2384C221.708 54.6091 221.635 54.9771 221.488 55.3179C221.353 55.6254 221.154 55.9011 220.904 56.1266C220.658 56.3528 220.369 56.5287 220.054 56.6442C219.732 56.7662 219.39 56.8279 219.045 56.8261L217.321 56.8342ZM218.04 56.1509H218.902C219.18 56.1535 219.457 56.1083 219.719 56.0175C219.96 55.9338 220.182 55.8047 220.373 55.6374C220.559 55.4647 220.706 55.2553 220.806 55.0228C221.018 54.479 221.018 53.8764 220.806 53.3326C220.704 53.097 220.552 52.886 220.361 52.714C220.176 52.5467 219.959 52.4175 219.723 52.3339C219.482 52.2475 219.228 52.2037 218.972 52.2045H218.044L218.04 56.1509Z" fill="#0D0D0D"/>
<path d="M222.824 56.8341L225.169 51.3027H225.213L227.534 56.8341H226.717L224.968 52.4187L225.479 52.0872L223.518 56.8341H222.824ZM224.196 54.8124H226.194L226.431 55.4311H223.98L224.196 54.8124Z" fill="#0D0D0D"/>
</g>
<defs>
<clipPath id="clip0_112_464">
<rect width="229" height="57" fill="white"/>
</clipPath>
</defs>
</svg>
