<svg width="72" height="72" viewBox="0 0 72 72" fill="none" xmlns="http://www.w3.org/2000/svg">
<mask id="mask0_58_22" style="mask-type:luminance" maskUnits="userSpaceOnUse" x="24" y="2" width="24" height="68">
<path d="M24 2H48V69.1969H24V2Z" fill="white"/>
</mask>
<g mask="url(#mask0_58_22)">
<path d="M35.8668 8.20587C37.5764 8.20587 38.9698 6.81252 38.9698 5.10294C38.9698 3.39335 37.5764 2 35.8668 2C34.1541 2 32.7639 3.39335 32.7639 5.10294C32.7639 6.81252 34.1541 8.20587 35.8668 8.20587ZM35.8668 4.0728C36.4336 4.0728 36.8939 4.5362 36.8939 5.10294C36.8939 5.66967 36.4336 6.12994 35.8668 6.12994C35.3001 6.12994 34.8367 5.66967 34.8367 5.10294C34.8367 4.5362 35.3001 4.0728 35.8668 4.0728ZM47.6837 67.7879C47.6336 67.2243 47.1451 66.8078 46.5847 66.8423C46.5283 66.8203 46.2434 66.6669 45.7173 65.8153C45.2602 65.0701 44.7717 64.0524 44.2582 62.9785C43.5036 61.4066 42.6488 59.6219 41.625 58.1597C40.4946 56.5409 38.7412 55.5953 37.5138 55.0975C38.1964 54.5933 38.6379 53.7886 38.6379 52.8775C38.6379 51.719 37.924 50.7264 36.9095 50.3162V45.2751H45.1256C45.6672 45.2751 46.1181 44.8587 46.1588 44.317C46.8414 35.5875 43.6915 29.6227 42.7616 28.0759L45.6453 14.8C45.7048 14.5151 45.6453 14.2176 45.4762 13.9796C45.3072 13.7417 45.0441 13.5883 44.7561 13.5507C42.9056 13.3284 41.3933 12.6802 40.2567 11.6313C39.6273 11.0489 39.2923 10.4978 39.1608 10.2505C39.0481 9.79961 38.641 9.46771 38.1557 9.46458C38.14 9.46458 38.1244 9.46458 38.1087 9.46458H33.5937C33.1678 9.46458 32.7858 9.72446 32.6293 10.119C32.6261 10.1252 32.3318 10.8078 31.5459 11.5593C30.403 12.6521 28.8625 13.3221 26.9682 13.5507C26.6802 13.5883 26.4171 13.7417 26.2481 13.9796C26.079 14.2176 26.0195 14.5151 26.0821 14.8L28.9659 28.0759C28.0391 29.6227 24.8954 35.5875 25.578 44.317C25.6187 44.8587 26.0696 45.2751 26.6113 45.2751H34.8367V50.3162C33.8254 50.7264 33.1083 51.719 33.1083 52.8775C33.1083 53.7886 33.553 54.5933 34.2324 55.0975C33.005 55.5953 31.2516 56.5378 30.115 58.1597C29.0911 59.6219 28.2394 61.4066 27.4848 62.9785C26.9682 64.0524 26.4829 65.0701 26.0226 65.8153C25.4966 66.6669 25.2148 66.8203 25.1584 66.8423C24.598 66.8078 24.1064 67.2243 24.0563 67.7879C24.0062 68.3577 24.4289 68.8618 24.9987 68.9119C25.0614 68.9182 25.124 68.9182 25.1866 68.9182C26.9369 68.9182 28.0109 66.6826 29.3541 63.874C30.0743 62.3742 30.8884 60.674 31.8152 59.3495C32.6105 58.2129 33.8817 57.499 34.8367 57.092V67.9475C34.8367 68.5205 35.3001 68.9839 35.8731 68.9839C36.4461 68.9839 36.9095 68.5205 36.9095 67.9475V57.0951C37.8645 57.5021 39.1357 58.216 39.9279 59.3464C40.8516 60.674 41.6688 62.3742 42.3858 63.874C43.7322 66.6826 44.803 68.9182 46.5565 68.9182C46.616 68.9182 46.6786 68.9182 46.7443 68.9119C47.3142 68.8618 47.7369 68.3577 47.6837 67.7879ZM30.9259 28.8493C31.0856 28.6145 31.142 28.3264 31.0794 28.0477L28.3396 15.4231C31.8809 14.6654 33.5623 12.6051 34.2136 11.5405H37.5107C38.1651 12.6051 39.8434 14.6654 43.3878 15.4231L40.6449 28.0477C40.5854 28.3233 40.6418 28.6145 40.7984 28.8493C40.8077 28.865 41.8191 30.3773 42.724 33.0137C43.5005 35.2744 44.3459 38.8219 44.1518 43.1992H27.585C27.1968 34.5104 30.8884 28.9057 30.9259 28.8493ZM35.8731 52.1855C36.2551 52.1855 36.5651 52.4955 36.5651 52.8775C36.5651 53.2595 36.2551 53.5695 35.8731 53.5695C35.4942 53.5695 35.1811 53.2595 35.1811 52.8775C35.1811 52.4955 35.4942 52.1855 35.8731 52.1855Z" fill="#67075B"/>
</g>
</svg>
