<svg width="72" height="72" viewBox="0 0 72 72" fill="none" xmlns="http://www.w3.org/2000/svg">
<mask id="mask0_58_21" style="mask-type:luminance" maskUnits="userSpaceOnUse" x="17" y="53" width="11" height="14">
<path d="M17.4932 53.0231H27.1324V67H17.4932V53.0231Z" fill="white"/>
</mask>
<g mask="url(#mask0_58_21)">
<path fill-rule="evenodd" clip-rule="evenodd" d="M26.2703 66.9473H18.8187C18.4497 66.9473 18.0845 66.7025 18.0845 66.2168V54.2393C18.0845 53.874 18.4497 53.5088 18.8187 53.5088H26.2703C26.6393 53.5088 27.0045 53.874 27.0045 54.2393V66.2168C27.0045 66.7025 26.6393 66.9473 26.2703 66.9473ZM19.5492 65.4825H25.5398V54.9735H19.5492V65.4825Z" fill="#67075B"/>
</g>
<mask id="mask1_58_21" style="mask-type:luminance" maskUnits="userSpaceOnUse" x="30" y="48" width="10" height="19">
<path d="M30.0239 48.2034H39.6632V66.9999H30.0239V48.2034Z" fill="white"/>
</mask>
<g mask="url(#mask1_58_21)">
<path fill-rule="evenodd" clip-rule="evenodd" d="M38.368 66.9472H30.9126C30.5474 66.9472 30.1821 66.7025 30.1821 66.2167V49.3518C30.1821 48.9866 30.5474 48.6213 30.9126 48.6213H38.368C38.8575 48.6213 39.1022 48.9866 39.1022 49.3518V66.2167C39.1022 66.7025 38.8575 66.9472 38.368 66.9472ZM31.6468 65.4825H37.6337V50.0861H31.6468V65.4825Z" fill="#67075B"/>
</g>
<mask id="mask2_58_21" style="mask-type:luminance" maskUnits="userSpaceOnUse" x="41" y="41" width="12" height="26">
<path d="M41.5913 41.4559H52.1945V67H41.5913V41.4559Z" fill="white"/>
</mask>
<g mask="url(#mask2_58_21)">
<path fill-rule="evenodd" clip-rule="evenodd" d="M50.5869 66.9472H43.0111C42.6459 66.9472 42.2769 66.7025 42.2769 66.2168V42.2655C42.2769 41.9003 42.6459 41.5312 43.0111 41.5312H50.5869C50.9522 41.5312 51.3212 41.9003 51.3212 42.2655V66.2168C51.3212 66.7025 50.9522 66.9472 50.5869 66.9472ZM43.7453 65.4825H49.8527V42.9997H43.7453V65.4825Z" fill="#67075B"/>
</g>
<mask id="mask3_58_21" style="mask-type:luminance" maskUnits="userSpaceOnUse" x="50" y="18" width="18" height="49">
<path d="M50.2666 18.3218H67.6173V67H50.2666V18.3218Z" fill="white"/>
</mask>
<g mask="url(#mask3_58_21)">
<path fill-rule="evenodd" clip-rule="evenodd" d="M62.6847 66.9473H55.2294C54.8641 66.9473 54.4989 66.7025 54.4989 66.2168V31.7565H51.0762C50.8315 31.7565 50.5867 31.636 50.4662 31.3912C50.342 31.1465 50.342 30.9017 50.4662 30.657L58.1626 18.928C58.2831 18.6832 58.5278 18.5627 58.7726 18.5627C59.0173 18.5627 59.1416 18.6832 59.3863 18.928L67.3274 30.5365C67.4479 30.657 67.5721 30.9017 67.5721 31.026C67.5721 31.3912 67.2031 31.7565 66.8379 31.7565H63.4152V66.2168C63.4152 66.7025 63.05 66.9473 62.6847 66.9473ZM55.9636 65.4826H61.9505V31.026C61.9505 30.657 62.3157 30.2918 62.6847 30.2918H65.3732L58.7726 20.6374L52.4204 30.2918H55.2294C55.5984 30.2918 55.9636 30.657 55.9636 31.026V65.4826Z" fill="#67075B"/>
</g>
<mask id="mask4_58_21" style="mask-type:luminance" maskUnits="userSpaceOnUse" x="13" y="64" width="54" height="3">
<path d="M13.6377 64.5902H66.6536V67H13.6377V64.5902Z" fill="white"/>
</mask>
<g mask="url(#mask4_58_21)">
<path fill-rule="evenodd" clip-rule="evenodd" d="M65.4937 66.9473H14.417C14.0518 66.9473 13.6865 66.7025 13.6865 66.2168C13.6865 65.8478 14.0518 65.4825 14.417 65.4825H65.4937C65.9832 65.4825 66.228 65.8478 66.228 66.2168C66.228 66.7025 65.9832 66.9473 65.4937 66.9473Z" fill="#67075B"/>
</g>
<mask id="mask5_58_21" style="mask-type:luminance" maskUnits="userSpaceOnUse" x="9" y="5" width="47" height="47">
<path d="M9.78174 5H55.0862V51.0952H9.78174V5Z" fill="white"/>
</mask>
<g mask="url(#mask5_58_21)">
<path fill-rule="evenodd" clip-rule="evenodd" d="M13.8068 50.4513C12.2178 50.4513 10.8736 49.3518 10.6288 47.8871C10.5083 46.5429 11.2426 44.9539 13.1968 44.3439C14.541 43.9749 16.0057 43.3649 16.9847 42.8754C17.3499 42.7549 17.7189 42.6345 18.0842 42.3897C20.7726 41.166 23.4611 39.4565 25.9048 37.7433C33.4806 32.2459 38.978 25.28 42.2764 17.0942C42.7659 15.6295 43.3759 14.0405 43.7449 12.5758L43.8654 12.2068L39.8327 10.4973C39.588 10.3731 39.347 10.1283 39.347 9.7631C39.347 9.51835 39.588 9.2736 39.8327 9.15311L49.4871 5.12044C49.8523 4.99995 50.3418 5.12044 50.466 5.48568L54.4987 15.2605C54.6192 15.5052 54.4987 15.8742 54.3745 15.9947C54.1297 16.2395 53.7645 16.36 53.5197 16.2395L49.6075 14.53C47.8981 20.2721 45.3339 25.5248 42.0317 30.2917C38.6128 34.9343 34.3354 39.2118 29.448 42.7549C26.27 45.0782 22.8511 47.0324 19.4284 48.4971C18.2047 49.1071 16.6195 49.8413 15.0305 50.2103C14.541 50.3308 14.1758 50.4513 13.8068 50.4513ZM42.0317 9.7631L45.0891 11.1073C45.3339 11.2316 45.5786 11.5968 45.4544 11.9621L45.2096 12.941C44.7201 14.53 44.2344 16.119 43.6207 17.7042C40.2017 26.1385 34.5801 33.2249 26.8838 38.8465C24.1953 40.8007 21.5069 42.3897 18.6942 43.7339C18.3289 43.8544 17.9637 44.0992 17.5947 44.2197C16.4952 44.7092 15.0305 45.4434 13.6863 45.8086C12.3421 46.1776 11.973 47.0324 12.0973 47.6423C12.2178 48.3766 12.7073 48.9866 13.8068 48.9866C14.0515 48.9866 14.2963 48.9866 14.541 48.8661C16.0057 48.3766 17.5947 47.7628 18.8184 47.1529C22.2373 45.6881 25.4153 43.7339 28.5932 41.5312C38.2438 34.5691 45.0891 25.0391 48.2633 13.7958L48.3876 13.3063C48.3876 13.1858 48.6323 12.941 48.7528 12.941C48.9976 12.8168 49.1218 12.8168 49.3666 12.941L52.4202 14.161L49.3666 6.70941L42.0317 9.7631Z" fill="#67075B"/>
</g>
<mask id="mask6_58_21" style="mask-type:luminance" maskUnits="userSpaceOnUse" x="5" y="5" width="27" height="29">
<path d="M5 5.79077H31.9523V33.7446H5V5.79077Z" fill="white"/>
</mask>
<g mask="url(#mask6_58_21)">
<path fill-rule="evenodd" clip-rule="evenodd" d="M18.4497 33.2249C11.1186 33.2249 5.01123 27.2381 5.01123 19.907C5.01123 12.4516 11.1186 6.46472 18.4497 6.46472C25.9051 6.46472 31.8919 12.4516 31.8919 19.907C31.8919 27.2381 25.9051 33.2249 18.4497 33.2249ZM18.4497 7.92944C11.8528 7.92944 6.47594 13.3063 6.47594 19.907C6.47594 26.5038 11.8528 31.7565 18.4497 31.7565C25.0503 31.7565 30.4272 26.5038 30.4272 19.907C30.4272 13.3063 25.0503 7.92944 18.4497 7.92944Z" fill="#67075B"/>
</g>
<path fill-rule="evenodd" clip-rule="evenodd" d="M18.4494 27.8481C16.13 27.8481 14.1758 25.8939 14.1758 23.4502C14.1758 23.0812 14.4168 22.7159 14.9063 22.7159C15.2753 22.7159 15.6405 23.0812 15.6405 23.4502C15.6405 25.0392 16.8642 26.3834 18.4494 26.3834C20.0384 26.3834 21.3826 25.0392 21.3826 23.4502C21.3826 21.8612 20.0384 20.6375 18.4494 20.6375C16.13 20.6375 14.1758 18.6833 14.1758 16.2396C14.1758 13.9164 16.13 11.9622 18.4494 11.9622C20.8931 11.9622 22.8511 13.9164 22.8511 16.2396C22.8511 16.6048 22.4821 16.9738 22.1169 16.9738C21.6274 16.9738 21.3826 16.6048 21.3826 16.2396C21.3826 14.6506 20.0384 13.4306 18.4494 13.4306C16.8642 13.4306 15.6405 14.6506 15.6405 16.2396C15.6405 17.8285 16.8642 19.1728 18.4494 19.1728C20.8931 19.1728 22.8511 21.127 22.8511 23.4502C22.8511 25.8939 20.8931 27.8481 18.4494 27.8481Z" fill="#67075B"/>
<path fill-rule="evenodd" clip-rule="evenodd" d="M18.4497 28.9476C18.0845 28.9476 17.7192 28.5823 17.7192 28.2133V11.5969C17.7192 11.1074 18.0845 10.8627 18.4497 10.8627C18.8187 10.8627 19.184 11.1074 19.184 11.5969V28.2133C19.184 28.5823 18.8187 28.9476 18.4497 28.9476Z" fill="#67075B"/>
</svg>
