<svg width="80" height="80" viewBox="0 0 80 80" fill="none" xmlns="http://www.w3.org/2000/svg">
<g clip-path="url(#clip0_170_2217)">
<circle cx="59.625" cy="18.625" r="15.625" fill="url(#paint0_linear_170_2217)"/>
<circle cx="17.7642" cy="62.7643" r="15.625" transform="rotate(-157.237 17.7642 62.7643)" fill="url(#paint1_linear_170_2217)"/>
<path d="M6.57984 54.5501C10.4988 65.0181 21.2756 74.7149 32.0079 75.7887C39.5857 76.5468 38.9335 77.5834 46.4862 68.2316C49.6949 61.6251 63.0817 77.6957 72.2285 69.4908C82.803 60.0053 73.1133 30.1465 69.387 23.5572V23.5572C64.0978 14.2041 53.0661 9.65609 42.3231 9.86601C32.7747 10.0526 24.4986 12.4173 19.2864 15.8158C4.35011 25.5547 -0.0531174 36.8321 6.57984 54.5501Z" fill="url(#paint2_linear_170_2217)"/>
<mask id="mask0_170_2217" style="mask-type:luminance" maskUnits="userSpaceOnUse" x="13" y="18" width="57" height="46">
<path d="M13.5415 18.625H69.9599V63.5278H13.5415V18.625Z" fill="white"/>
</mask>
<g mask="url(#mask0_170_2217)">
<path fill-rule="evenodd" clip-rule="evenodd" d="M50.2577 24.4474H70.0082V63.3596H13.5537V24.4474H25.511L27.4608 18.601H48.3079L50.2577 24.4474ZM46.9499 20.4847H28.8187L26.8689 26.3312H15.4404V61.4759H68.1214V26.3312H48.8967L46.9499 20.4847Z" fill="#F3F3F3"/>
</g>
<path fill-rule="evenodd" clip-rule="evenodd" d="M37.8824 28.3441C29.8337 28.3441 23.2993 34.8815 23.2993 42.9301C23.2993 50.9787 29.8337 57.5131 37.8824 57.5131C45.934 57.5131 52.4684 50.9787 52.4684 42.9301C52.4684 34.8815 45.934 28.3441 37.8824 28.3441ZM37.8824 30.2308C44.8915 30.2308 50.5817 35.921 50.5817 42.9301C50.5817 49.9392 44.8915 55.6294 37.8824 55.6294C30.8732 55.6294 25.183 49.9392 25.183 42.9301C25.183 35.921 30.8732 30.2308 37.8824 30.2308Z" fill="#F3F3F3"/>
<path fill-rule="evenodd" clip-rule="evenodd" d="M37.8827 32.3428C32.0393 32.3428 27.2954 37.0866 27.2954 42.93C27.2954 48.7735 32.0393 53.5173 37.8827 53.5173C43.7261 53.5173 48.47 48.7735 48.47 42.93C48.47 37.0866 43.7261 32.3428 37.8827 32.3428ZM37.8827 34.2265C42.6866 34.2265 46.5862 38.1261 46.5862 42.93C46.5862 47.731 42.6866 51.6306 37.8827 51.6306C33.0818 51.6306 29.1821 47.731 29.1821 42.93C29.1821 38.1261 33.0818 34.2265 37.8827 34.2265Z" fill="#F3F3F3"/>
<path fill-rule="evenodd" clip-rule="evenodd" d="M54.4814 28.3441V34.1274H64.1614V28.3441H54.4814ZM56.3652 30.2308V32.2437H62.2747V30.2308H56.3652Z" fill="#F3F3F3"/>
</g>
<defs>
<linearGradient id="paint0_linear_170_2217" x1="20.875" y1="53" x2="75.25" y2="8.625" gradientUnits="userSpaceOnUse">
<stop stop-color="#5C0C91"/>
<stop offset="0.0809998" stop-color="#5C0C91"/>
<stop offset="0.541" stop-color="#F97B02"/>
<stop offset="1" stop-color="#F97B02" stop-opacity="0"/>
</linearGradient>
<linearGradient id="paint1_linear_170_2217" x1="-7.20638" y1="59.4307" x2="33.3892" y2="62.7643" gradientUnits="userSpaceOnUse">
<stop stop-color="#590B8C"/>
<stop offset="1" stop-color="#F97B02" stop-opacity="0"/>
</linearGradient>
<linearGradient id="paint2_linear_170_2217" x1="68.0785" y1="73.2134" x2="17.3504" y2="16.6617" gradientUnits="userSpaceOnUse">
<stop stop-color="#5C0C91"/>
<stop offset="1" stop-color="#F97B02"/>
</linearGradient>
<clipPath id="clip0_170_2217">
<rect width="80" height="80" fill="white"/>
</clipPath>
</defs>
</svg>
