<svg width="80" height="80" viewBox="0 0 80 80" fill="none" xmlns="http://www.w3.org/2000/svg">
<g clip-path="url(#clip0_170_2139)">
<circle cx="59.625" cy="21.625" r="15.625" fill="url(#paint0_linear_170_2139)"/>
<circle cx="17.7642" cy="62.7643" r="15.625" transform="rotate(-157.237 17.7642 62.7643)" fill="url(#paint1_linear_170_2139)"/>
<path d="M64.062 71.4015C55.4339 77.1392 19.7756 77.31 13.1524 71.6597C6.12833 65.6672 0.692533 52.6813 1.87321 43.8842C2.84376 36.6513 7.87641 34.338 13.0421 31.9634C16.3809 30.4287 19.7752 28.8684 22.1643 25.9378C24.347 23.2604 25.5899 19.8988 26.8171 16.5793C28.9242 10.8802 30.9853 5.30539 37.6779 3.53128C46.5688 1.17447 65.0562 12.6976 68.3343 21.7189C71.5474 30.5616 72.3573 68.8214 64.4649 71.3483C31.5 84.5 64.1775 71.4143 64.062 71.4015Z" fill="url(#paint2_linear_170_2139)"/>
<mask id="mask0_170_2139" style="mask-type:luminance" maskUnits="userSpaceOnUse" x="10" y="23" width="58" height="49">
<path d="M10.75 23.0926H67.5833V71.5594H10.75V23.0926Z" fill="white"/>
</mask>
<g mask="url(#mask0_170_2139)">
<path d="M64.0748 46.1782H54.9194V28.5496C54.9194 25.8952 52.7603 23.7361 50.106 23.7361H33.7526C31.0983 23.7361 28.9392 25.8952 28.9392 28.5496V28.9648H15.086C13.8878 28.9648 12.7727 29.5134 11.9482 30.5159C11.1771 31.4531 10.75 32.6898 10.75 33.9918V47.1628C10.75 48.4678 11.1771 49.7015 11.9482 50.6387C12.7727 51.6412 13.8878 52.1928 15.086 52.1928H28.9392C28.9392 52.2017 28.9392 52.2076 28.9392 52.2165V66.5353C28.9392 69.1897 31.0983 71.3488 33.7526 71.3488H50.106C52.7603 71.3488 54.9194 69.1897 54.9194 66.5353V62.576H64.0748C66.1479 62.576 67.8325 60.8914 67.8325 58.8213V49.9358C67.8325 47.8657 66.1479 46.1782 64.0748 46.1782ZM13.6772 49.2181C13.2324 48.6783 12.9892 47.9488 12.9892 47.1628V33.9918C12.9892 33.2058 13.2324 32.4763 13.6772 31.9394C14.0687 31.462 14.567 31.201 15.086 31.201H31.8397C32.3587 31.201 32.8599 31.462 33.2484 31.9394C33.6933 32.4763 33.9365 33.2058 33.9365 33.9918V53.1181L30.7246 50.2413C30.517 50.0574 30.253 49.9536 29.9772 49.9536H15.086C14.567 49.9536 14.0687 49.6926 13.6772 49.2181ZM50.106 68.908H33.7526C32.4447 68.908 31.38 67.8432 31.38 66.5353V53.8329L34.3102 56.4576C34.5178 56.6444 34.7847 56.7423 35.0576 56.7423C35.2118 56.7423 35.366 56.7097 35.5143 56.6444C35.9147 56.4665 36.1757 56.0661 36.1757 55.6242V33.9918C36.1757 32.6898 35.7516 31.4531 34.9775 30.5159C34.153 29.5134 33.0379 28.9648 31.8397 28.9648H31.383V28.5496C31.383 27.2416 32.4447 26.1769 33.7556 26.1769H50.106C51.4139 26.1769 52.4786 27.2416 52.4786 28.5496V46.1782H51.6067C49.5365 46.1782 47.852 47.8657 47.852 49.9358V65.7731C47.852 66.2299 48.1308 66.6391 48.5519 66.8111C48.6883 66.8675 48.8307 66.8942 48.9701 66.8942C49.2696 66.8942 49.5632 66.7726 49.7768 66.5502L52.4786 63.7505V66.5353C52.4786 67.8432 51.4139 68.908 50.106 68.908ZM65.5933 58.8213C65.5933 59.6577 64.9112 60.3398 64.0748 60.3398H53.134C52.8286 60.3398 52.5379 60.4614 52.3273 60.6809L50.0911 63.0031V49.9358C50.0911 49.0995 50.7703 48.4173 51.6067 48.4173H64.0748C64.9112 48.4173 65.5933 49.0995 65.5933 49.9358V58.8213Z" fill="#F3F3F3"/>
</g>
<path d="M57.9031 50.4015C57.3574 50.0367 56.7138 49.8409 56.0406 49.8409C55.139 49.8409 54.2937 50.1939 53.6561 50.8315C52.3393 52.1483 52.3393 54.2896 53.6561 55.6035L53.92 55.8704L57.1112 59.0616C57.3307 59.281 57.6184 59.3908 57.9031 59.3908C58.1907 59.3908 58.4755 59.281 58.6949 59.0616L62.153 55.6035C62.7907 54.9658 63.1406 54.1206 63.1406 53.219C63.1406 52.3174 62.7907 51.4692 62.153 50.8315C60.9993 49.6778 59.2139 49.5355 57.9031 50.4015ZM55.2368 54.0227C55.0233 53.8062 54.9047 53.5215 54.9047 53.219C54.9047 52.9135 55.0233 52.6288 55.2368 52.4123C55.4533 52.1987 55.738 52.0801 56.0406 52.0801C56.346 52.0801 56.6307 52.1987 56.8472 52.4123L57.1112 52.6792C57.1794 52.7474 57.2565 52.8038 57.3336 52.8512C57.7281 53.0825 58.2293 53.0559 58.5941 52.7682C58.6 52.7622 58.606 52.7593 58.6089 52.7563H58.6119C58.6386 52.7326 58.6682 52.7059 58.6949 52.6792L58.9619 52.4123C59.1754 52.1987 59.4601 52.0801 59.7656 52.0801C60.0681 52.0801 60.3558 52.1987 60.5693 52.4123C60.7858 52.6288 60.9044 52.9135 60.9044 53.216C60.9044 53.5215 60.7858 53.8062 60.5693 54.0227L57.9031 56.6889L55.2368 54.0227Z" fill="#F3F3F3"/>
<path d="M31.4572 46.3057C31.4572 46.0091 31.3979 45.7274 31.2941 45.4693C31.6026 45.0868 31.7894 44.5974 31.7894 44.0665C31.7894 43.7314 31.7153 43.4111 31.5788 43.1234C31.8398 42.7586 31.9911 42.3108 31.9911 41.8303C31.9911 41.5664 31.9466 41.3113 31.8606 41.077C32.2135 40.6826 32.427 40.1606 32.427 39.5941C32.427 38.3574 31.4216 37.355 30.1879 37.355H26.0773C26.1248 36.48 26.1099 35.6022 26.0328 34.7332C26.0032 33.1851 24.7368 31.9365 23.1827 31.9365C22.026 31.9365 21.0829 32.8796 21.0829 34.0362V34.6235C21.0829 35.3708 20.9939 36.1212 20.813 36.8478C20.644 37.521 20.0419 37.9926 19.3479 37.9926H16.2339C15.614 37.9926 15.1128 38.4938 15.1128 39.1107V47.4238C15.1128 48.0407 15.614 48.5419 16.2339 48.5419H29.2181C30.4518 48.5419 31.4572 47.5395 31.4572 46.3057ZM18.2298 46.3057H17.352V40.2288H18.2298V46.3057ZM29.5502 41.8303C28.9333 41.8303 28.4321 42.3315 28.4321 42.9484C28.4321 43.5534 28.9156 44.0487 29.5146 44.0665H29.2181C28.6012 44.0665 28.1 44.5677 28.1 45.1846V45.1876C28.1 45.7926 28.5834 46.2879 29.1854 46.3057H20.469V40.0597C21.6909 39.6772 22.6637 38.6836 22.984 37.3876C23.2094 36.483 23.3221 35.5547 23.3221 34.6235V34.1905C23.592 34.2557 23.7936 34.4989 23.7936 34.7866C23.7936 34.8222 23.7966 34.8548 23.7996 34.8874C23.8974 35.9699 23.8856 37.0673 23.767 38.1498L23.7432 38.3515C23.7076 38.6658 23.8114 38.9832 24.022 39.2204C24.2355 39.4577 24.5381 39.5941 24.8554 39.5941H29.7193C29.1172 39.6119 28.6338 40.1042 28.6338 40.7122C28.6338 41.3172 29.1172 41.8125 29.7193 41.8303H29.5502Z" fill="#F3F3F3"/>
<path d="M43.4271 19.2223C43.4271 19.421 43.3885 19.6108 43.3114 19.7947C43.2373 19.9785 43.1275 20.1387 42.9881 20.2811C42.8488 20.4204 42.6856 20.5272 42.5018 20.6043C42.3179 20.6814 42.1281 20.717 41.9294 20.717C41.7307 20.717 41.5408 20.6814 41.357 20.6043C41.1731 20.5272 41.01 20.4204 40.8706 20.2811C40.7312 20.1387 40.6215 19.9785 40.5473 19.7947C40.4702 19.6108 40.4316 19.421 40.4316 19.2223C40.4316 19.0236 40.4702 18.8308 40.5473 18.6469C40.6215 18.466 40.7312 18.3029 40.8706 18.1635C41.01 18.0211 41.1731 17.9144 41.357 17.8372C41.5408 17.7631 41.7307 17.7245 41.9294 17.7245C42.1281 17.7245 42.3179 17.7631 42.5018 17.8372C42.6856 17.9144 42.8488 18.0211 42.9881 18.1635C43.1275 18.3029 43.2373 18.466 43.3114 18.6469C43.3885 18.8308 43.4271 19.0236 43.4271 19.2223Z" fill="#F3F3F3"/>
<path d="M35.3751 12.6649C37.125 10.9151 39.4531 9.95122 41.9295 9.95122C44.406 9.95122 46.7341 10.9151 48.4839 12.6649C48.6826 12.8636 48.9436 12.9645 49.2046 12.9645C49.4656 12.9645 49.7236 12.8636 49.9223 12.6649C50.3197 12.2675 50.3197 11.6239 49.9223 11.2265C47.7869 9.09114 44.9487 7.91669 41.9295 7.91669C38.9104 7.91669 36.0721 9.09114 33.9367 11.2265C33.5393 11.6239 33.5393 12.2675 33.9367 12.6649C34.3341 13.0623 34.9777 13.0623 35.3751 12.6649Z" fill="#F3F3F3"/>
<path d="M45.2245 17.3627C45.6219 16.9653 45.6219 16.3217 45.2245 15.9243C44.3466 15.0435 43.1751 14.5601 41.9295 14.5601C40.6838 14.5601 39.5124 15.0435 38.6345 15.9243C38.2371 16.3217 38.2371 16.9653 38.6345 17.3627C38.8332 17.5614 39.0912 17.6623 39.3522 17.6623C39.6132 17.6623 39.8742 17.5614 40.0729 17.3627C40.5682 16.8674 41.2266 16.5946 41.9295 16.5946C42.6324 16.5946 43.2908 16.8674 43.7861 17.3627C44.1835 17.7601 44.83 17.7601 45.2245 17.3627Z" fill="#F3F3F3"/>
<path d="M46.8169 15.3489C47.0779 15.3489 47.3389 15.2511 47.5376 15.0524C47.935 14.6549 47.935 14.0114 47.5376 13.614C46.0399 12.1162 44.0469 11.2917 41.9293 11.2917C39.8117 11.2917 37.8187 12.1162 36.321 13.614C35.9236 14.0114 35.9236 14.6549 36.321 15.0524C36.7184 15.4498 37.362 15.4498 37.7594 15.0524C38.8746 13.9372 40.3545 13.3263 41.9293 13.3263C43.5041 13.3263 44.9841 13.9372 46.0992 15.0524C46.2979 15.2511 46.5589 15.3489 46.8169 15.3489Z" fill="#F3F3F3"/>
<path d="M39.6133 30.5841H44.059C44.6788 30.5841 45.18 30.0829 45.18 29.4631C45.18 28.8462 44.6788 28.345 44.059 28.345H39.6133C38.9934 28.345 38.4922 28.8462 38.4922 29.4631C38.4922 30.0829 38.9934 30.5841 39.6133 30.5841Z" fill="#F3F3F3"/>
<path d="M43.4241 65.5211C43.4241 65.7406 43.3826 65.9512 43.2995 66.1558C43.2135 66.3575 43.0949 66.5354 42.9407 66.6926C42.7864 66.8468 42.6055 66.9655 42.4038 67.0515C42.1992 67.1345 41.9886 67.176 41.7692 67.176C41.5497 67.176 41.3391 67.1345 41.1375 67.0515C40.9358 66.9655 40.7549 66.8468 40.6006 66.6926C40.4464 66.5354 40.3248 66.3575 40.2418 66.1558C40.1587 65.9512 40.1143 65.7406 40.1143 65.5211C40.1143 65.3017 40.1587 65.0911 40.2418 64.8894C40.3248 64.6848 40.4464 64.5068 40.6006 64.3526C40.7549 64.1954 40.9358 64.0768 41.1375 63.9937C41.3391 63.9107 41.5497 63.8662 41.7692 63.8662C41.9886 63.8662 42.1992 63.9107 42.4038 63.9937C42.6055 64.0768 42.7864 64.1954 42.9407 64.3526C43.0949 64.5068 43.2135 64.6848 43.2995 64.8894C43.3826 65.0911 43.4241 65.3017 43.4241 65.5211Z" fill="#F3F3F3"/>
<path d="M38.6167 34.5494H41.3185V36.7886H38.6167V34.5494Z" fill="#F3F3F3"/>
<path d="M43.5664 34.5494H49.6967V36.7886H43.5664V34.5494Z" fill="#F3F3F3"/>
<path d="M38.4834 38.3546H49.697V40.5937H38.4834V38.3546Z" fill="#F3F3F3"/>
<path d="M38.4834 42.1626H49.697V44.3988H38.4834V42.1626Z" fill="#F3F3F3"/>
<path d="M38.501 58.8333H45.7256V61.0724H38.501V58.8333Z" fill="#F3F3F3"/>
<path d="M38.501 55.1824H45.7256V57.4186H38.501V55.1824Z" fill="#F3F3F3"/>
<path d="M33.9219 58.8333H36.2708V61.0724H33.9219V58.8333Z" fill="#F3F3F3"/>
</g>
<defs>
<linearGradient id="paint0_linear_170_2139" x1="20.875" y1="56" x2="75.25" y2="11.625" gradientUnits="userSpaceOnUse">
<stop stop-color="#5C0C91"/>
<stop offset="0.0809998" stop-color="#5C0C91"/>
<stop offset="0.541" stop-color="#F97B02"/>
<stop offset="1" stop-color="#F97B02" stop-opacity="0"/>
</linearGradient>
<linearGradient id="paint1_linear_170_2139" x1="-7.20638" y1="59.4306" x2="33.3892" y2="62.7643" gradientUnits="userSpaceOnUse">
<stop stop-color="#590B8C"/>
<stop offset="1" stop-color="#F97B02" stop-opacity="0"/>
</linearGradient>
<linearGradient id="paint2_linear_170_2139" x1="1.71143" y1="40.2152" x2="70.6454" y2="40.2152" gradientUnits="userSpaceOnUse">
<stop stop-color="#5C0C91"/>
<stop offset="1" stop-color="#F97B02"/>
</linearGradient>
<clipPath id="clip0_170_2139">
<rect width="80" height="80" fill="white"/>
</clipPath>
</defs>
</svg>
