<svg width="80" height="80" viewBox="0 0 80 80" fill="none" xmlns="http://www.w3.org/2000/svg">
<g clip-path="url(#clip0_170_2166)">
<circle cx="62.1565" cy="18.8391" r="16.8391" fill="url(#paint0_linear_170_2166)"/>
<circle cx="17.0432" cy="63.175" r="16.8391" transform="rotate(-157.237 17.0432 63.175)" fill="url(#paint1_linear_170_2166)"/>
<path d="M77.2911 47.6202C81.9109 66.5192 62.5279 72.7075 62.5279 72.7075C43.1455 78.8953 24.9382 71.9204 24.9382 71.9204C6.73155 64.9455 7.76958 45.2394 7.76958 45.2394C8.80821 25.534 26.235 10.493 26.235 10.493C43.6619 -4.54741 58.1662 12.0866 58.1662 12.0866C72.6706 28.7211 77.2911 47.6202 77.2911 47.6202Z" fill="url(#paint2_linear_170_2166)"/>
<g clip-path="url(#clip1_170_2166)">
<path d="M55.4528 61.4848C55.3409 61.4843 55.2325 61.4461 55.145 61.3764C55.0575 61.3067 54.996 61.2096 54.9704 61.1007C54.9449 60.9918 54.9567 60.8774 55.0041 60.7761C55.0514 60.6747 55.1315 60.5923 55.2315 60.542C55.9795 60.168 56.7575 60.1857 57.4447 60.2001C57.7794 60.2162 58.1148 60.208 58.4483 60.1757L59.0016 60.1082C61.5468 59.7961 63.9515 59.5018 66.3052 58.4859C67.84 57.822 67.6021 57.2322 67.4749 56.9146C66.8264 55.3056 66.3683 53.6258 65.9312 52.0013C65.5416 50.5627 65.1388 49.0776 64.6032 47.6601C63.0142 43.4307 62.39 39.7789 62.691 36.4945C63.044 32.6756 63.5763 28.6067 65.0647 24.7325C65.4686 23.6823 65.514 22.8822 65.1986 22.3522C64.912 21.8697 64.2857 21.5609 63.3373 21.437C61.6055 21.209 60.2908 20.5761 59.441 19.548C58.6752 18.6296 58.2901 17.4167 58.2923 15.9383H57.1691C56.0371 15.9383 54.9681 15.9494 53.9124 15.925C53.5096 15.9151 52.9596 15.9726 52.6287 16.3013C52.4074 16.5171 52.3056 16.8391 52.3122 17.2607C52.3565 19.9508 50.773 20.5086 48.8541 20.9191C47.0957 21.2954 46.33 21.6439 46.029 22.2061C45.697 22.8291 45.8187 23.9268 46.1596 25.7361C46.1738 25.8012 46.1748 25.8684 46.1626 25.9339C46.1503 25.9993 46.1251 26.0617 46.0884 26.1172C46.0516 26.1727 46.0041 26.2203 45.9487 26.2572C45.8932 26.294 45.8309 26.3194 45.7655 26.3318C45.7001 26.3441 45.6328 26.3432 45.5678 26.3292C45.5027 26.3151 45.4411 26.2881 45.3866 26.2498C45.3322 26.2115 45.2859 26.1626 45.2507 26.1062C45.2154 26.0497 45.1918 25.9867 45.1813 25.9209C44.4244 21.9084 44.6656 20.7974 48.6461 19.9453C50.6756 19.5115 51.3462 19.06 51.3163 17.2773C51.3052 16.5923 51.5166 16.0069 51.9272 15.5964C52.3853 15.1416 53.0824 14.9125 53.9356 14.9324C54.9769 14.9568 56.0382 14.9512 57.1647 14.9457C57.6892 14.9457 58.2326 14.9457 58.8069 14.9457C58.8749 14.9459 58.9421 14.9599 59.0045 14.9869C59.0669 15.014 59.1232 15.0534 59.1698 15.1028C59.2165 15.1523 59.2524 15.2109 59.2754 15.2748C59.2985 15.3388 59.3081 15.4068 59.3037 15.4746C59.1267 18.3916 60.5265 20.067 63.4646 20.4543C64.7305 20.6214 65.6014 21.0906 66.0529 21.8487C66.5309 22.6543 66.511 23.7465 65.992 25.0954C64.5457 28.8579 64.0267 32.8416 63.6815 36.5919C63.3926 39.7224 63.9979 43.2315 65.5339 47.3148C66.0872 48.7766 66.4922 50.2871 66.8884 51.7467C67.3199 53.3425 67.7681 54.9935 68.3945 56.5483C68.878 57.7489 68.3059 58.7106 66.6958 59.4055C64.2093 60.4789 61.621 60.7954 59.1167 61.1019L58.569 61.1694C58.1874 61.2081 57.8035 61.2188 57.4203 61.2015C56.794 61.1871 56.2031 61.175 55.6752 61.4383C55.6056 61.4707 55.5295 61.4866 55.4528 61.4848Z" fill="white" stroke="white" stroke-width="1.0777"/>
<path d="M27.781 63.6725C23.2805 63.6725 19.1994 62.6666 15.4048 60.6349C15.3132 60.5858 15.2392 60.5092 15.1932 60.416C15.1471 60.3227 15.1314 60.2174 15.1481 60.1148C15.5277 57.8219 16.2547 55.6884 16.9496 53.6224C17.3004 52.5844 17.6634 51.5121 17.971 50.4509C19.8888 43.8212 21.2333 36.6759 18.1071 29.348C17.1101 27.0109 16.9253 25.6243 17.4653 24.5598C18.1381 23.2418 19.8689 22.6188 22.6331 21.988C22.8154 21.9532 23.0018 21.945 23.1864 21.9637C23.2418 21.9637 23.2971 21.9703 23.3524 21.9703C23.4845 21.9703 23.6112 22.0228 23.7045 22.1162C23.7979 22.2096 23.8504 22.3362 23.8504 22.4683C23.8504 22.6004 23.7979 22.727 23.7045 22.8204C23.6112 22.9138 23.4845 22.9663 23.3524 22.9663C23.2783 22.9663 23.203 22.9663 23.1311 22.9574C23.0403 22.9466 22.9486 22.9466 22.8578 22.9574C20.4421 23.5118 18.8475 24.0474 18.3506 25.0146C17.9644 25.7715 18.1647 26.9511 19.0146 28.9574C22.2713 36.5719 20.8958 43.9253 18.9271 50.7275C18.614 51.8098 18.2477 52.8931 17.8925 53.9367C17.244 55.8599 16.5723 57.8407 16.1916 59.9245C21.0186 62.4221 26.3425 63.2078 32.4586 62.328C32.5894 62.3091 32.7223 62.3429 32.8281 62.4219C32.934 62.501 33.0041 62.6189 33.023 62.7496C33.0419 62.8804 33.0081 63.0133 32.9291 63.1191C32.85 63.225 32.7321 63.2951 32.6014 63.314C31.0052 63.5486 29.3943 63.6684 27.781 63.6725Z" fill="white" stroke="white" stroke-width="1.0777"/>
<path d="M44.366 72.0507C40.8073 72.0437 37.2706 71.4922 33.8788 70.4151C31.4133 69.6405 31.4675 68.0193 31.7906 66.6903C32.8817 62.2008 33.871 58.4484 35.1547 54.7258C37.2163 48.7501 36.0566 43.1065 34.4974 37.8966C34.2274 36.9969 33.9717 36.0918 33.7017 35.1301C33.5711 34.6698 33.4383 34.1973 33.2978 33.7048C33.2615 33.5788 33.2766 33.4435 33.3399 33.3286C34.4066 31.3832 36.5003 30.7834 38.553 30.3264C39.881 30.032 40.0813 29.6281 39.9717 28.6366C39.8666 27.6882 40.0392 26.9999 40.4984 26.5341C41.1558 25.8701 42.2214 25.8778 42.9651 25.9465C43.4819 25.977 44.0005 25.9603 44.5143 25.8967C45.6652 25.7937 46.9687 25.6753 48.3741 26.45C48.4674 26.5024 48.5415 26.5833 48.5855 26.6809C48.6295 26.7784 48.6411 26.8875 48.6187 26.9922C48.0587 29.5506 49.5117 30.4713 52.2118 31.1973C53.5851 31.5658 54.3807 32.0527 54.7913 32.7775C55.3446 33.7624 55.089 35.0814 54.7249 36.3607C54.6341 36.6794 54.543 36.9981 54.4516 37.3168C53.5231 40.5502 52.6456 43.6045 52.5371 46.9342C52.3678 52.1408 53.9967 56.8615 55.6124 60.7921L55.6212 60.8176C55.7396 60.8586 55.8381 60.9429 55.897 61.0535C55.9559 61.1641 55.9709 61.2929 55.9388 61.4141C55.6334 62.5727 56.0495 63.6073 56.4833 64.7029C56.7389 65.3425 57.0034 66.0053 57.1273 66.7102C57.3088 67.7361 57.6452 69.6438 55.3047 70.3532C51.5766 71.4863 47.9481 72.0507 44.366 72.0507ZM34.3137 33.6395C34.4332 34.06 34.5483 34.4662 34.66 34.8568C34.9289 35.8118 35.1835 36.7126 35.4512 37.6056C36.9817 42.7147 38.2554 48.7822 36.0964 55.0445C34.8249 58.7306 33.8423 62.4587 32.7578 66.9205C32.4513 68.1831 32.5863 68.9611 34.1753 69.459C41.0086 71.597 47.8241 71.5771 55.0115 69.3993C56.283 69.0142 56.3892 68.2816 56.1424 66.884C56.0318 66.2787 55.8016 65.6922 55.5537 65.0714C55.1045 63.946 54.6408 62.784 54.9108 61.4196C54.8104 61.3642 54.7323 61.2758 54.6895 61.1695C53.0296 57.1415 51.3697 52.2957 51.5401 46.901C51.6508 43.4473 52.588 40.1906 53.4932 37.0412L53.7666 36.0873C54.1782 34.6421 54.2247 33.7989 53.9237 33.2677C53.6559 32.7941 53.0473 32.4521 51.9529 32.1611C49.4862 31.4972 47.0628 30.3839 47.5718 27.1648C46.556 26.71 45.6043 26.7963 44.6028 26.8871C44.0301 26.9561 43.4522 26.9724 42.8765 26.9357C42.0278 26.8583 41.4833 26.9535 41.2166 27.2301C40.9831 27.4669 40.9001 27.904 40.9699 28.527C41.1458 30.1128 40.5095 30.9162 38.7755 31.2991C37.006 31.6908 35.2178 32.1954 34.3137 33.6395Z" fill="white" stroke="white" stroke-width="1.0777"/>
<path d="M28.2458 33.0563H28.2337C28.1326 33.054 28.0347 33.021 27.9529 32.9617C27.871 32.9024 27.8092 32.8196 27.7755 32.7243C27.4048 31.6487 26.8504 30.4923 26.265 29.2673C24.6483 25.8878 22.8169 22.0567 24.1105 18.3341C24.1746 18.1631 24.2527 17.9977 24.344 17.8395C24.3761 17.7808 24.4082 17.7222 24.438 17.6624C24.4792 17.5801 24.5424 17.5109 24.6205 17.4622C24.6986 17.4136 24.7887 17.3875 24.8807 17.3869C25.3499 17.3869 25.8257 17.3924 26.2849 17.3979C27.3229 17.4101 28.3963 17.4223 29.4421 17.3714C31.1363 17.2895 32.2407 17.6989 32.5151 19.9531C32.7364 21.7657 32.504 23.3559 31.7748 25.1109C31.0367 26.8881 30.3141 28.7085 29.6158 30.4691C29.3156 31.2275 29.0142 31.9855 28.7117 32.7431C28.6746 32.8361 28.6102 32.9158 28.5271 32.9716C28.444 33.0275 28.346 33.057 28.2458 33.0563ZM25.1817 18.3839C25.1314 18.473 25.0881 18.5659 25.0522 18.6617C23.8914 21.997 25.6298 25.6332 27.1636 28.8335C27.5531 29.6502 27.9294 30.4359 28.2525 31.1972L28.6874 30.1017C29.3867 28.3378 30.1105 26.513 30.8519 24.7292C31.5158 23.1401 31.7195 21.7048 31.5236 20.0715C31.3377 18.5222 30.8762 18.3009 29.4919 18.3662C28.4174 18.4182 27.3285 18.406 26.2761 18.3939C25.9164 18.3895 25.5435 18.385 25.1817 18.3839Z" fill="white" stroke="white" stroke-width="1.0777"/>
<path d="M37.4164 31.5314C37.2845 31.5311 37.158 31.4785 37.0646 31.3852C36.9713 31.2919 36.9188 31.1654 36.9185 31.0334C36.9185 30.8884 36.9085 30.7368 36.8974 30.5764C36.872 30.1869 36.8454 29.7852 36.9528 29.3813L36.9605 29.3514C37.5968 26.9611 37.9476 25.6454 37.5769 24.9416C37.2062 24.2378 35.917 23.7774 33.581 22.9431C33.3807 22.8722 33.1704 22.8036 32.9679 22.7372L32.6747 22.641C32.6123 22.6206 32.5545 22.5881 32.5047 22.5454C32.4549 22.5026 32.414 22.4504 32.3844 22.3918C32.3549 22.3332 32.3372 22.2694 32.3324 22.2039C32.3276 22.1384 32.3358 22.0727 32.3565 22.0104C32.3772 21.9481 32.41 21.8905 32.4531 21.841C32.4961 21.7914 32.5485 21.7509 32.6073 21.7216C32.6661 21.6924 32.7301 21.6751 32.7956 21.6707C32.8611 21.6663 32.9268 21.6749 32.9889 21.6959L33.2778 21.7911C33.4869 21.8586 33.7027 21.9294 33.9163 22.0058C36.5721 22.9541 37.9056 23.43 38.4533 24.4768C39.0011 25.5237 38.6426 26.8892 37.9188 29.607L37.9111 29.6369C37.8447 29.8826 37.8657 30.1902 37.8867 30.5089C37.8989 30.6793 37.91 30.8553 37.91 31.0334C37.91 31.1647 37.8581 31.2907 37.7657 31.384C37.6733 31.4772 37.5477 31.5302 37.4164 31.5314Z" fill="white" stroke="white" stroke-width="1.0777"/>
<path d="M55.518 23.4256C53.8681 23.4256 52.1982 22.516 50.224 20.6968C50.1269 20.6072 50.0693 20.4828 50.0639 20.3508C50.0585 20.2188 50.1058 20.0901 50.1953 19.993C50.2848 19.8958 50.4092 19.8382 50.5412 19.8328C50.6732 19.8274 50.8019 19.8747 50.8991 19.9642C52.7427 21.6639 54.1669 22.4219 55.5158 22.4219C56.8647 22.4219 58.2425 21.6672 59.9975 19.9719C60.0937 19.8879 60.2185 19.844 60.3461 19.8493C60.4737 19.8546 60.5944 19.9088 60.6832 20.0006C60.772 20.0924 60.8221 20.2148 60.8232 20.3425C60.8244 20.4702 60.7763 20.5935 60.6891 20.6868C58.7991 22.5127 57.1691 23.4256 55.518 23.4256Z" fill="white" stroke="white" stroke-width="1.0777"/>
<path d="M38.9448 37.3355C38.8361 37.3356 38.7304 37.3 38.6439 37.2343C38.5573 37.1685 38.4947 37.0762 38.4657 36.9714L36.9419 31.4683C36.9231 31.4049 36.9172 31.3385 36.9243 31.2727C36.9315 31.207 36.9517 31.1434 36.9837 31.0856C37.0158 31.0278 37.059 30.9769 37.1109 30.936C37.1628 30.895 37.2223 30.8648 37.286 30.8471C37.3497 30.8294 37.4163 30.8246 37.4818 30.8329C37.5474 30.8411 37.6107 30.8624 37.668 30.8954C37.7252 30.9284 37.7754 30.9725 37.8154 31.0251C37.8555 31.0776 37.8847 31.1377 37.9013 31.2016L39.4295 36.7047C39.4649 36.832 39.4482 36.968 39.3833 37.083C39.3183 37.198 39.2104 37.2824 39.0832 37.3178C39.0381 37.3301 38.9915 37.336 38.9448 37.3355Z" fill="white" stroke="white" stroke-width="1.0777"/>
<path d="M44.4738 39.5775C43.9219 39.5568 43.3917 39.3571 42.9632 39.0087C40.5431 37.133 38.2469 37.9485 36.1267 39.1083C36.0692 39.1422 36.0055 39.1642 35.9393 39.1731C35.8731 39.1819 35.8059 39.1773 35.7415 39.1596C35.6771 39.142 35.617 39.1115 35.5646 39.0701C35.5122 39.0287 35.4687 38.9772 35.4367 38.9186C35.4046 38.8601 35.3847 38.7957 35.378 38.7293C35.3713 38.6628 35.3781 38.5957 35.3978 38.532C35.4176 38.4682 35.45 38.4091 35.4931 38.3581C35.5362 38.3071 35.5891 38.2653 35.6486 38.2352C37.9504 36.9747 40.6925 35.9888 43.5741 38.2208C43.6659 38.2927 44.4915 38.9058 44.9828 38.3403C45.9157 37.2669 47.1506 37.112 48.2395 36.9747C48.6834 36.931 49.1236 36.8548 49.5564 36.7468L50.6895 31.8346C50.7224 31.7096 50.8025 31.6023 50.9131 31.5353C51.0236 31.4683 51.1558 31.4469 51.2819 31.4757C51.4079 31.5044 51.5178 31.581 51.5883 31.6893C51.6589 31.7976 51.6846 31.929 51.66 32.0559L50.4627 37.2436C50.4437 37.3248 50.4047 37.4 50.3492 37.4622C50.2938 37.5245 50.2236 37.5718 50.1451 37.6C49.5586 37.8102 48.9522 37.8866 48.3657 37.9596C47.3221 38.0913 46.4203 38.2042 45.7364 38.991C45.5826 39.1763 45.3896 39.3251 45.1712 39.4265C44.9528 39.528 44.7145 39.5795 44.4738 39.5775Z" fill="white" stroke="white" stroke-width="1.0777"/>
<path d="M53.0074 39.1669C52.9614 39.1667 52.9157 39.1603 52.8713 39.1481C51.9484 38.887 50.7743 38.4609 49.8835 37.4739C49.8038 37.3745 49.7652 37.2485 49.7756 37.1215C49.786 36.9946 49.8446 36.8765 49.9394 36.7915C50.0342 36.7065 50.158 36.661 50.2853 36.6644C50.4126 36.6678 50.5337 36.7199 50.6238 36.8099C51.1915 37.4418 51.944 37.8545 53.1402 38.1931C53.2558 38.2259 53.3557 38.2993 53.4215 38.3999C53.4872 38.5005 53.5144 38.6214 53.4979 38.7405C53.4815 38.8595 53.4225 38.9686 53.332 39.0476C53.2414 39.1265 53.1254 39.1701 53.0052 39.1703L53.0074 39.1669Z" fill="white" stroke="white" stroke-width="1.0777"/>
</g>
</g>
<defs>
<linearGradient id="paint0_linear_170_2166" x1="20.3955" y1="55.8851" x2="78.9956" y2="8.06208" gradientUnits="userSpaceOnUse">
<stop stop-color="#5C0C91"/>
<stop offset="0.0809998" stop-color="#5C0C91"/>
<stop offset="0.541" stop-color="#F97B02"/>
<stop offset="1" stop-color="#F97B02" stop-opacity="0"/>
</linearGradient>
<linearGradient id="paint1_linear_170_2166" x1="-9.8677" y1="59.5823" x2="33.8823" y2="63.175" gradientUnits="userSpaceOnUse">
<stop stop-color="#590B8C"/>
<stop offset="1" stop-color="#F97B02" stop-opacity="0"/>
</linearGradient>
<linearGradient id="paint2_linear_170_2166" x1="7.66881" y1="40.2999" x2="77.7835" y2="39.1921" gradientUnits="userSpaceOnUse">
<stop stop-color="#5C0C91"/>
<stop offset="1" stop-color="#F97B02"/>
</linearGradient>
<clipPath id="clip0_170_2166">
<rect width="80" height="80" fill="white"/>
</clipPath>
<clipPath id="clip1_170_2166">
<rect width="53.4189" height="57.1182" fill="white" transform="translate(15.1416 14.9324)"/>
</clipPath>
</defs>
</svg>
