<svg width="80" height="80" viewBox="0 0 80 80" fill="none" xmlns="http://www.w3.org/2000/svg">
<g clip-path="url(#clip0_170_1957)">
<rect width="80" height="80" fill="white"/>
<circle cx="63.625" cy="15.625" r="15.625" fill="url(#paint0_linear_170_1957)"/>
<circle cx="16.2641" cy="64.2642" r="15.625" transform="rotate(-111.499 16.2641 64.2642)" fill="url(#paint1_linear_170_1957)"/>
<path d="M73.2625 17.7267C63.6523 9.34768 54.3312 16.1763 43.9342 13.762C33.4621 11.3301 29.2899 3.23246 17.3625 6.97023C6.79679 10.2813 0.385828 23.5561 6.19418 34.6697C7.84937 37.8367 10.6691 40.226 11.8214 43.7695C13.6802 49.4859 10.8508 53.8746 11.4027 59.4923C13.6962 82.834 45.1284 73.7927 56.6941 66.5305C74.8326 55.1415 87.1033 29.7947 73.2625 17.7267Z" fill="url(#paint2_linear_170_1957)"/>
<mask id="mask0_170_1957" style="mask-type:luminance" maskUnits="userSpaceOnUse" x="14" y="18" width="53" height="42">
<path d="M14.2842 18H66.4046V59.6495H14.2842V18Z" fill="white"/>
</mask>
<g mask="url(#mask0_170_1957)">
<path d="M60.8624 18.3851H24.1549C21.8877 18.3851 19.8417 19.8764 19.0901 22.0837L19.0222 22.2957L18.8186 22.3293C16.2775 22.8385 14.4351 25.1363 14.4351 27.783V46.0515C14.4351 46.3668 14.6738 46.6123 14.9805 46.6123C15.2897 46.6123 15.5284 46.3668 15.5284 46.0515V27.783C15.5284 25.3275 17.4714 23.3296 19.8567 23.3296H56.5668C58.9521 23.3296 60.8976 25.3275 60.8976 27.783V53.7667C60.8976 54.064 60.8624 54.3276 60.8121 54.5887L60.7769 54.7308C60.3345 56.7469 58.56 58.202 56.5668 58.202H38.203C37.8963 58.202 37.6575 58.4476 37.6575 58.7629C37.6575 59.0783 37.8963 59.3238 38.203 59.3238H56.5668C58.8516 59.3238 60.8976 57.8324 61.6642 55.6251L61.7321 55.4132L61.9357 55.3796C64.4592 54.8523 66.2841 52.5726 66.2841 49.9259V23.9421C66.2841 20.8741 63.8459 18.3851 60.8624 18.3851ZM65.1932 49.944C65.1932 51.7326 64.1023 53.3971 62.4811 54.064L61.9708 54.2733V27.783C61.9708 24.7149 59.5503 22.2259 56.5668 22.2259H20.1307L20.4725 21.6469C21.2568 20.3132 22.6367 19.5068 24.1725 19.5068H60.88C63.2653 19.5068 65.2108 21.5048 65.2108 23.9602V49.944H65.1932Z" fill="#F7F7F7"/>
</g>
<path d="M60.8621 19.1218H24.1545C22.5006 19.1218 20.9825 19.998 20.1304 21.4531L19.4492 22.6292H56.5488C59.3288 22.6292 61.5784 24.9425 61.5784 27.8011V54.8524L62.619 54.413C64.391 53.6789 65.5674 51.8722 65.5674 49.926V23.9422C65.5674 21.2774 63.4535 19.1218 60.8621 19.1218ZM64.8183 49.926C64.8183 51.6086 63.7953 53.0819 62.3274 53.6944V27.783C62.3274 24.5031 59.736 21.8383 56.5488 21.8383H20.7965C21.4952 20.6467 22.757 19.892 24.1721 19.892H60.8797C63.0614 19.892 64.8359 21.7168 64.8359 23.9603V49.926H64.8183Z" fill="#F7F7F7"/>
<mask id="mask1_170_1957" style="mask-type:luminance" maskUnits="userSpaceOnUse" x="14" y="18" width="53" height="43">
<path d="M14 18H66.5V60.3112H14V18Z" fill="white"/>
</mask>
<g mask="url(#mask1_170_1957)">
<path d="M60.8619 18H24.1544C21.6811 18 19.5496 19.5947 18.7327 21.9442C16.0734 22.487 14.0601 24.8908 14.0601 27.783V46.0515C14.0601 46.5762 14.4698 46.9975 14.98 46.9975C15.4928 46.9975 15.9025 46.5762 15.9025 46.0515V27.783C15.9025 25.5395 17.6745 23.7147 19.8562 23.7147H56.5663C58.748 23.7147 60.5201 25.5395 60.5201 27.783V53.7668C60.5201 54.0097 60.4874 54.2398 60.4522 54.4672C60.4346 54.537 60.4346 54.5887 60.4195 54.6585C60.0274 56.4652 58.459 57.8325 56.5663 57.8325H38.2025C37.6922 57.8325 37.2825 58.2538 37.2825 58.7785C37.2825 59.3058 37.6922 59.7271 38.2025 59.7271H56.5663C59.0723 59.7271 61.2188 58.0599 62.003 55.7647C64.6649 55.222 66.6581 52.7846 66.6581 49.944V23.9422C66.6581 20.6648 64.049 18 60.8619 18ZM65.9091 49.926C65.9091 52.3814 64.2049 54.5189 61.8497 54.9919L61.4425 55.0798L61.3043 55.5011C60.5879 57.5688 58.6802 58.9542 56.5663 58.9542H38.2025C38.117 58.9542 38.0315 58.8844 38.0315 58.7785C38.0315 58.6932 38.0994 58.6053 38.2025 58.6053H56.5663C58.748 58.6053 60.6734 57.008 61.151 54.8343C61.1685 54.7826 61.1685 54.7309 61.1861 54.6585L61.2037 54.6068C61.2364 54.3974 61.2892 54.0976 61.2892 53.7668V27.783C61.2892 25.1182 59.1728 22.9445 56.5814 22.9445H19.8412C17.2497 22.9445 15.1333 25.1182 15.1333 27.783V46.0515C15.1333 46.1394 15.0655 46.2273 14.9649 46.2273C14.8795 46.2273 14.794 46.1575 14.794 46.0515V27.783C14.794 25.3095 16.4982 23.1719 18.8684 22.6989L19.2957 22.6111L19.4315 22.1898C20.1654 20.122 22.0229 18.7702 24.1544 18.7702H60.8619C63.6419 18.7702 65.8915 21.0861 65.8915 23.9422V49.926H65.9091Z" fill="#F7F7F7"/>
</g>
<path d="M60.8621 19.5069H24.1545C22.6188 19.5069 21.2389 20.3133 20.4546 21.647L20.1128 22.226H56.5489C59.5324 22.226 61.9529 24.715 61.9529 27.783V54.2734L62.4657 54.0641C64.0844 53.3791 65.1753 51.7327 65.1753 49.9441V23.9422C65.1929 21.4893 63.2499 19.5069 60.8621 19.5069ZM64.8183 49.926C64.8183 51.6086 63.7953 53.0819 62.3274 53.6944V27.783C62.3274 24.5031 59.736 21.8383 56.5489 21.8383H20.7965C21.4952 20.6467 22.757 19.892 24.1721 19.892H60.8797C63.0614 19.892 64.8359 21.7168 64.8359 23.9603V49.926H64.8183Z" fill="#F7F7F7"/>
<mask id="mask2_170_1957" style="mask-type:luminance" maskUnits="userSpaceOnUse" x="14" y="18" width="53" height="43">
<path d="M14 18H66.5V60.3112H14V18Z" fill="white"/>
</mask>
<g mask="url(#mask2_170_1957)">
<path d="M60.8619 18H24.1544C21.6811 18 19.5496 19.5947 18.7327 21.9442C16.0734 22.487 14.0601 24.8908 14.0601 27.783V46.0515C14.0601 46.5762 14.4698 46.9975 14.98 46.9975C15.4928 46.9975 15.9025 46.5762 15.9025 46.0515V27.783C15.9025 25.5395 17.6745 23.7147 19.8562 23.7147H56.5663C58.748 23.7147 60.5201 25.5395 60.5201 27.783V53.7668C60.5201 54.0097 60.4874 54.2398 60.4522 54.4672C60.4346 54.537 60.4346 54.5887 60.4195 54.6585C60.0274 56.4652 58.459 57.8325 56.5663 57.8325H38.2025C37.6922 57.8325 37.2825 58.2538 37.2825 58.7785C37.2825 59.3058 37.6922 59.7271 38.2025 59.7271H56.5663C59.0723 59.7271 61.2188 58.0599 62.003 55.7647C64.6649 55.222 66.6581 52.7846 66.6581 49.944V23.9422C66.6581 20.6648 64.049 18 60.8619 18ZM66.2836 49.926C66.2836 52.5546 64.4587 54.8524 61.9352 55.3796L61.7316 55.4132L61.6637 55.6252C60.8971 57.8325 58.8511 59.3238 56.5663 59.3238H38.2025C37.8958 59.3238 37.657 59.0783 37.657 58.763C37.657 58.4476 37.8958 58.2021 38.2025 58.2021H56.5663C58.5595 58.2021 60.3341 56.7469 60.7764 54.7309C60.794 54.6766 60.794 54.6249 60.8116 54.5887L60.8267 54.537C60.8619 54.3277 60.8971 54.064 60.8971 53.7668V27.783C60.8971 25.3276 58.9516 23.3296 56.5663 23.3296H19.8412C17.4533 23.3296 15.5104 25.3276 15.5104 27.783V46.0515C15.5104 46.3668 15.2716 46.6124 14.9649 46.6124C14.6583 46.6124 14.4195 46.3668 14.4195 46.0515V27.783C14.4195 25.1363 16.2594 22.8385 18.783 22.3293L18.9866 22.2957L19.0569 22.0838C19.8562 19.8765 21.8872 18.3851 24.1544 18.3851H60.8619C63.8455 18.3851 66.266 20.8742 66.266 23.9422V49.926H66.2836Z" fill="#F7F7F7"/>
</g>
<path d="M51.3838 53.6789C51.3989 53.7125 51.3838 53.7306 51.3989 53.7668C51.3989 53.7823 51.3989 53.7823 51.4165 53.8004L51.3838 53.6789Z" fill="#F7F7F7"/>
<mask id="mask3_170_1957" style="mask-type:luminance" maskUnits="userSpaceOnUse" x="16" y="27" width="38" height="44">
<path d="M16.2144 27.889H53.5352V70.5001H16.2144V27.889Z" fill="white"/>
</mask>
<g mask="url(#mask3_170_1957)">
<path d="M50.3076 39.9491C48.2792 35.0408 45.0745 29.7292 42.4654 28.9564L42.3448 28.9228L42.2769 28.8169C41.9879 28.3775 41.5606 28.0983 41.0679 27.9923C40.9473 27.9742 40.8291 27.9587 40.7085 27.9587C40.1982 27.9587 39.7031 28.1681 39.3462 28.5532L38.2025 29.7473C38.0492 29.905 37.9989 30.1505 38.0844 30.3599L38.8686 32.2545L38.7831 32.4121C34.862 39.4425 28.5858 43.3505 26.0647 44.7023L25.7053 44.8936L25.4162 44.1931C25.3634 44.0535 25.2453 43.9476 25.1246 43.8959C25.0568 43.8597 24.9889 43.8597 24.921 43.8597C24.8532 43.8597 24.7853 43.8778 24.7174 43.9114L18.7654 46.5064C18.4939 46.6305 18.3582 46.9639 18.4764 47.243L18.9187 48.3131L18.6649 48.4888C16.8225 49.7502 16.1237 52.1694 16.9758 54.2553L17.1643 54.7128C17.6419 55.8681 18.5266 56.7805 19.6703 57.2535C20.2333 57.4835 20.8114 57.605 21.392 57.605C21.6987 57.605 22.0229 57.5688 22.3648 57.4835L22.6714 57.4112L23.1138 58.4631C23.1641 58.6053 23.2847 58.7087 23.4029 58.7629C23.4707 58.7965 23.5411 58.7965 23.609 58.7965C23.6768 58.7965 23.7623 58.7785 23.8126 58.7629L24.9713 58.2538L26.4719 68.1608C26.5925 68.913 27.0173 69.5617 27.6658 69.9313C28.0252 70.1407 28.4173 70.2467 28.8245 70.2467C29.1488 70.2467 29.4554 70.1769 29.7621 70.0528C30.7348 69.6315 31.3154 68.6338 31.2124 67.5638L30.5312 60.3215L30.8203 60.2181C31.7076 59.9183 33.3263 59.1842 34.2638 57.6412C34.9123 56.5711 35.1335 55.2736 34.8947 53.8185L34.8444 53.4333L35.2189 53.3791C37.0086 53.0818 38.8158 52.9242 40.5728 52.9242C43.0109 52.9242 45.3635 53.2214 47.5805 53.8004L47.769 53.8521L48.5532 55.7466C48.6361 55.956 48.8423 56.08 49.0634 56.08L50.6822 56.062C51.3306 56.062 51.9289 55.7285 52.2858 55.1677C52.5598 54.7464 52.6603 54.2217 52.5598 53.6944L52.5246 53.5548L52.5924 53.4333C53.804 50.9262 52.321 44.86 50.3076 39.9491ZM21.6987 56.4135C21.5806 56.4316 21.4599 56.4316 21.3418 56.4316C20.8969 56.4316 20.4545 56.3437 20.0272 56.1679C19.1575 55.7983 18.4764 55.116 18.1194 54.2398L17.9309 53.7823C17.3352 52.309 17.7273 50.6445 18.9037 49.6106L19.2958 49.2772L22.2115 56.3592L21.6987 56.4135ZM23.8478 57.4835L23.4381 56.4833L23.4029 56.3954V56.3773L19.6703 47.2973L24.6144 45.1391L28.8095 55.3253L23.8478 57.4835ZM29.287 68.9828C29.1161 69.0526 28.9452 69.0887 28.7743 69.0887C28.5531 69.0887 28.3319 69.037 28.1434 68.913C27.7865 68.7217 27.5477 68.3702 27.4949 67.9489L25.944 57.7627L29.0306 56.4135L30.0863 67.6155C30.1391 68.2125 29.8149 68.7553 29.287 68.9828ZM33.3087 56.9924C32.816 57.8144 31.9639 58.4993 30.8555 58.9542L30.393 59.1481L30.0712 55.6407C30.0537 55.6251 30.0361 55.5709 30.0361 55.5192L30.0185 55.4132L29.7294 54.7128L30.1215 54.5732C30.667 54.3793 31.8081 54.0278 33.3615 53.6789L33.7536 53.591L33.8038 53.9942C33.9572 55.1677 33.7862 56.1679 33.3087 56.9924ZM46.4896 52.3452C44.5793 51.942 42.5685 51.7481 40.5049 51.7481C35.3547 51.7481 31.1772 53.0301 29.6264 53.5729L29.3021 53.6944L26.115 45.9274L26.4216 45.7698C28.8095 44.5084 34.8268 40.8796 39.0043 34.1646L39.3964 33.5494L47.2059 52.5029L46.4896 52.3452ZM51.313 54.5008C51.1597 54.7464 50.9059 54.8885 50.6143 54.904L49.3525 54.9221L39.2079 30.2539L40.0952 29.326C40.2661 29.1503 40.4697 29.0624 40.6909 29.0624H40.8618C41.1358 29.1141 41.3746 29.3079 41.4776 29.5716C50.2222 50.8719 51.2804 53.4152 51.3985 53.7668C51.3834 53.7306 51.3985 53.7125 51.3834 53.6789L51.3985 53.7823C51.3985 53.7823 51.3985 53.7668 51.3834 53.7487C51.4664 54.0097 51.4513 54.2734 51.313 54.5008ZM42.8224 30.0084L44.3229 31.7272C46.0296 33.6916 47.8519 36.8475 49.3198 40.3885C50.7852 43.9476 51.7228 47.4705 51.8937 50.1017L52.047 52.3969L42.8224 30.0084Z" fill="#F7F7F7"/>
</g>
<path d="M28.6035 55.8345L29.3022 55.5373L29.0132 54.8162L26.5575 48.8378L25.2454 45.7L25.0921 45.333L24.803 44.6144L24.1018 44.9117L19.8413 46.7701L19.1426 47.0673L19.4316 47.7858L19.7031 48.4708L23.0461 56.5893L23.3175 57.2716L23.6091 57.9902L24.3079 57.6929L26.6932 56.659L28.6035 55.8345ZM24.0339 56.9744L23.7624 56.2894L20.4194 48.1735L20.148 47.4886L24.4109 45.6302L24.5643 45.9998L25.8587 49.1376L28.3144 55.116L26.4393 55.9224L24.0339 56.9744Z" fill="#F7F7F7"/>
<path d="M19.8236 49.6106L19.4315 48.6465L18.6473 49.3134C17.3352 50.4507 16.9079 52.309 17.5715 53.9245L17.76 54.3794C18.1697 55.3615 18.9187 56.1137 19.8739 56.5169C20.3339 56.7107 20.829 56.8167 21.3242 56.8167C21.4599 56.8167 21.5956 56.8167 21.7339 56.7986L22.7393 56.6927L22.3472 55.7286L19.8236 49.6106ZM21.3418 56.062C20.9497 56.062 20.54 55.9741 20.1655 55.8164C19.3963 55.5011 18.783 54.8885 18.4588 54.0821L18.2728 53.6246C17.7273 52.2935 18.1194 50.7841 19.1424 49.9079L21.6635 56.0439C21.563 56.0439 21.4423 56.062 21.3418 56.062Z" fill="#F7F7F7"/>
<path d="M51.7053 53.5367C51.366 52.6424 49.7297 48.6801 41.8171 29.4475C41.6638 29.0624 41.3395 28.7807 40.9147 28.7109C40.8469 28.6954 40.7765 28.6954 40.6759 28.6954C40.3517 28.6954 40.045 28.8349 39.8063 29.0624L39.0899 29.799L38.7305 30.1661L38.919 30.6391L41.0505 35.8136L48.1939 53.1516L48.2291 53.2214L48.8751 54.7825L49.0636 55.2555H49.5587L50.5641 55.2374C50.9738 55.2374 51.3484 55.0281 51.5696 54.6766C51.7907 54.3276 51.8435 53.8882 51.6726 53.5031L51.7053 53.5367ZM51.0065 54.2915C50.9563 54.3793 50.8381 54.5008 50.6144 54.5008L49.609 54.5189L48.9605 52.9578L41.7844 35.5318L39.6529 30.3599L40.3693 29.6233C40.4698 29.5018 40.6081 29.4837 40.691 29.4837C40.7262 29.4837 40.7614 29.4837 40.7765 29.5018C40.8619 29.5173 41.0329 29.5871 41.1183 29.7809L51.0417 53.8701C51.1272 54.0459 51.0593 54.2036 51.0065 54.2915Z" fill="#F7F7F7"/>
<mask id="mask4_170_1957" style="mask-type:luminance" maskUnits="userSpaceOnUse" x="15" y="27" width="39" height="44">
<path d="M15.5708 27.2273H53.5351V70.5H15.5708V27.2273Z" fill="white"/>
</mask>
<g mask="url(#mask4_170_1957)">
<path d="M50.6492 39.8095C48.5353 34.6737 45.2954 29.4139 42.5682 28.5894C42.2264 28.0802 41.7136 27.7287 41.1179 27.6072C40.9646 27.571 40.8289 27.571 40.6755 27.571C40.0622 27.571 39.4816 27.8166 39.0392 28.2741L37.8956 29.4656C37.6392 29.7473 37.5537 30.1506 37.7071 30.4995L38.4083 32.2183C34.5023 39.2305 28.1104 43.1411 25.8407 44.3689L25.705 44.0535C25.6019 43.8235 25.4335 43.6322 25.2098 43.5444C25.1093 43.4927 24.9886 43.4746 24.8705 43.4746C24.7498 43.4746 24.6317 43.4927 24.5111 43.5444L18.5615 46.1394C18.1016 46.3487 17.8804 46.8915 18.0664 47.3826L18.3906 48.1554C16.4477 49.4865 15.6107 52.0996 16.5658 54.3974L16.7543 54.8523C17.2646 56.1137 18.2373 57.0803 19.4639 57.5869C20.0621 57.8325 20.693 57.9565 21.3239 57.9565C21.6808 57.9565 22.0227 57.9022 22.3796 57.8325L22.6862 58.6053C22.7893 58.8327 22.9602 59.024 23.1814 59.1119C23.2845 59.1662 23.4026 59.1842 23.5232 59.1842C23.6414 59.1842 23.762 59.1662 23.8802 59.1119L24.5965 58.7965L26.0292 68.2125C26.165 69.0887 26.6601 69.8254 27.4092 70.2622C27.8365 70.5077 28.2964 70.6318 28.7564 70.6318C29.1158 70.6318 29.4904 70.562 29.8322 70.4043C30.9557 69.9132 31.6218 68.7553 31.5012 67.5121L30.8552 60.5671C31.843 60.2362 33.5145 59.4453 34.5023 57.8144C35.2011 56.6409 35.4399 55.2736 35.2011 53.7306C36.7695 53.4669 38.5617 53.2757 40.5046 53.2757C42.6688 53.2757 45.0214 53.5031 47.4269 54.1338L48.1256 55.8526C48.2614 56.2015 48.6032 56.4316 48.9777 56.4316C48.9777 56.4316 48.9777 56.4316 48.9953 56.4316L50.614 56.4135C51.3832 56.4135 52.097 56.0103 52.5243 55.3434C52.8661 54.8161 52.9667 54.1855 52.8485 53.591C54.1958 50.996 52.7631 44.9297 50.6492 39.8095ZM51.911 54.904C51.6219 55.3434 51.1444 55.6251 50.6316 55.6251L48.9953 55.6407C48.9274 55.6407 48.8596 55.6071 48.842 55.5373L48.1432 53.8185L47.9899 53.4669L47.6305 53.3791C45.3809 52.8001 42.993 52.5029 40.5222 52.5029C38.7477 52.5029 36.9228 52.6605 35.1005 52.9578L34.3666 53.0818L34.4847 53.8365C34.7084 55.2038 34.5023 56.3954 33.9066 57.3957C33.0369 58.8327 31.5012 59.5332 30.6667 59.8149L30.1037 60.0062L30.1539 60.6213L30.8024 67.5638C30.8879 68.4762 30.3927 69.3162 29.5758 69.6677C29.3194 69.7737 29.0631 69.8254 28.7916 69.8254C28.4498 69.8254 28.1104 69.7375 27.8189 69.5617C27.2734 69.2464 26.8989 68.7036 26.8134 68.073L25.3807 58.657L25.2274 57.6748L24.3401 58.0599L23.6263 58.3752C23.6087 58.3933 23.5735 58.3933 23.5559 58.3933C23.5408 58.3933 23.5232 58.3933 23.4881 58.3752C23.4554 58.3597 23.4202 58.3236 23.4026 58.2899L23.0959 57.5171L22.8572 56.9201L22.2439 57.0622C21.9196 57.132 21.6306 57.1656 21.3566 57.1656C20.8111 57.1656 20.2833 57.0622 19.7731 56.8503C18.7325 56.4135 17.9131 55.589 17.4707 54.5189L17.2822 54.064C16.4979 52.1513 17.1464 49.9259 18.833 48.768L19.3458 48.4191L19.107 47.822L18.8003 47.0518C18.7651 46.9639 18.8003 46.8579 18.8858 46.8217L24.8353 44.2267C24.8529 44.2112 24.8705 44.2112 24.9032 44.2112C24.9208 44.2112 24.956 44.2112 24.971 44.2267C25.0062 44.2448 25.0414 44.281 25.0565 44.3146L25.1771 44.6299L25.5014 45.4027L26.2177 45.0176C28.7564 43.6503 35.1005 39.688 39.0719 32.5698L39.2604 32.2364L39.1071 31.8849L38.4083 30.1661C38.3731 30.0963 38.3907 30.0265 38.441 29.9748L39.5847 28.7807C39.8737 28.4834 40.2834 28.3077 40.6906 28.3077C40.7937 28.3077 40.8967 28.3258 40.9822 28.3439C41.3743 28.4137 41.7136 28.6592 41.9524 29.0107L42.0731 29.1839L43.3348 32.27L50.8201 50.4351L52.0819 53.5212L52.1146 53.7306C52.2001 54.1338 52.1322 54.5551 51.911 54.904ZM44.0336 31.9908C45.4839 33.6554 47.3062 36.5476 48.9601 40.5461C50.614 44.5446 51.3656 47.9099 51.5013 50.1353L44.0336 31.9908ZM52.4212 52.6088L52.2528 50.0836C52.0819 47.4188 51.1268 43.8416 49.6438 40.2489C48.1608 36.6536 46.3184 33.4641 44.579 31.4817L42.9251 29.5871C45.0063 30.7631 47.7838 34.9012 49.9329 40.1067C52.097 45.3149 53.0521 50.2594 52.4212 52.6088Z" fill="#F7F7F7"/>
</g>
<path d="M29.3552 55.8682L28.4177 56.2714L26.0801 57.2897L25.5347 57.5172L25.6201 58.1142L27.1207 68.0006C27.2062 68.5279 27.5128 68.9828 27.9728 69.2465C28.2292 69.386 28.5031 69.4558 28.7922 69.4558C29.0134 69.4558 29.2346 69.4041 29.4407 69.3162C30.1219 69.019 30.5316 68.3186 30.4637 67.5638L29.4558 56.9201L29.3552 55.8682ZM29.1491 68.6339C29.031 68.6856 28.9103 68.7037 28.7922 68.7037C28.6389 68.7037 28.4855 68.6675 28.3473 68.5796C28.0934 68.44 27.9225 68.1945 27.8873 67.8973L26.3868 58.0083L28.7243 56.9925L29.7121 67.6517C29.7473 68.073 29.5261 68.4762 29.1491 68.6339Z" fill="#F7F7F7"/>
<path d="M40.4193 35.077L39.992 34.0586L39.4315 32.7094L38.6623 33.9371C34.5376 40.5642 28.5856 44.157 26.2329 45.4028L25.6021 45.7362L25.876 46.403L28.7917 53.5032L29.0632 54.17L29.7293 53.94C31.2625 53.3972 35.3897 52.1359 40.4871 52.1359C42.5156 52.1359 44.4937 52.3271 46.3864 52.7303L47.7839 53.0302L47.2209 51.6784L40.4193 35.077ZM40.5047 51.3449C35.3721 51.3449 31.2298 52.5908 29.5081 53.1878L26.5924 46.0851C28.8244 44.9117 35.0479 41.213 39.3108 34.3584L39.7381 35.3742L46.5573 51.9601C44.4434 51.5207 42.415 51.3449 40.5047 51.3449Z" fill="#F7F7F7"/>
<path d="M34.0428 53.1335L33.2585 53.3093C31.7077 53.6608 30.5465 54.0278 29.9859 54.2217L29.2168 54.4853L29.541 55.2556L29.6441 55.5192C29.6441 55.5528 29.6617 55.5709 29.6617 55.6071C29.6617 55.6407 29.6793 55.6769 29.6944 55.7105L29.9683 58.6751L30.0714 59.6909L31.0089 59.3058C32.1853 58.8147 33.1052 58.078 33.6507 57.1837C34.1961 56.2894 34.367 55.2039 34.1961 53.94L34.0428 53.1335ZM32.9846 56.7805C32.4065 57.7446 31.4337 58.29 30.7023 58.5872L30.4283 55.5373C30.4283 55.5011 30.4107 55.4649 30.3931 55.4494C30.378 55.3951 30.378 55.3254 30.3605 55.2737L30.2247 54.9583C30.9235 54.7128 32.0319 54.3794 33.4119 54.0821C33.5652 55.116 33.4295 56.0284 32.9846 56.7805Z" fill="#F7F7F7"/>
<path d="M19.482 49.7683L19.2784 49.2953L18.8863 49.6287C17.6924 50.6626 17.3003 52.3271 17.9136 53.8004L18.1021 54.2553C18.459 55.1496 19.1427 55.8345 20.0099 56.186C20.4372 56.3592 20.8796 56.4471 21.3245 56.4471C21.4426 56.4471 21.5632 56.4471 21.6814 56.4316L22.1765 56.3773L21.9729 55.9043L19.482 49.7683ZM21.342 56.062C20.9499 56.062 20.5402 55.9741 20.1657 55.8164C19.3966 55.5011 18.7833 54.8885 18.459 54.0821L18.273 53.6246C17.7276 52.2935 18.1197 50.7841 19.1427 49.9079L21.6638 56.0439C21.5632 56.0439 21.4426 56.062 21.342 56.062Z" fill="#F7F7F7"/>
<path d="M51.3659 53.6945C51.1447 53.1 49.7622 49.7322 41.4601 29.6053C41.3394 29.3442 41.1182 29.1504 40.8468 29.0987C40.794 29.0987 40.7437 29.0806 40.6759 29.0806C40.4547 29.0806 40.2486 29.1684 40.0776 29.3442L39.3613 30.0783L39.1929 30.254L39.2934 30.4996L41.4249 35.6715L48.5859 53.0638L48.6035 53.1L49.252 54.6585L49.3525 54.9041H49.6089L50.6143 54.8886C50.9059 54.8886 51.1598 54.7464 51.3131 54.5009C51.4664 54.2553 51.5016 53.9581 51.3659 53.6945ZM51.0064 54.2915C50.9562 54.3794 50.838 54.5009 50.6143 54.5009L49.6089 54.519L48.9604 52.9578L41.7843 35.5319L39.6528 30.36L40.3692 29.6233C40.4697 29.5019 40.608 29.4838 40.6909 29.4838C40.7261 29.4838 40.7613 29.4838 40.7764 29.5019C40.8619 29.5174 41.0328 29.5872 41.1182 29.781L51.0416 53.8702C51.1271 54.046 51.0592 54.2036 51.0064 54.2915Z" fill="#F7F7F7"/>
<mask id="mask5_170_1957" style="mask-type:luminance" maskUnits="userSpaceOnUse" x="15" y="27" width="39" height="44">
<path d="M15.5708 27.2273H53.5351V70.5H15.5708V27.2273Z" fill="white"/>
</mask>
<g mask="url(#mask5_170_1957)">
<path d="M50.6492 39.8095C48.5353 34.6737 45.2954 29.4139 42.5682 28.5894C42.2264 28.0802 41.7136 27.7287 41.1179 27.6072C40.9646 27.571 40.8289 27.571 40.6755 27.571C40.0622 27.571 39.4816 27.8166 39.0392 28.2741L37.8956 29.4656C37.6392 29.7473 37.5537 30.1506 37.7071 30.4995L38.4083 32.2183C34.5023 39.2305 28.1104 43.1411 25.8407 44.3689L25.705 44.0535C25.6019 43.8235 25.4335 43.6322 25.2098 43.5444C25.1093 43.4927 24.9886 43.4746 24.8705 43.4746C24.7498 43.4746 24.6317 43.4927 24.5111 43.5444L18.5615 46.1394C18.1016 46.3487 17.8804 46.8915 18.0664 47.3826L18.3906 48.1554C16.4477 49.4865 15.6107 52.0996 16.5658 54.3974L16.7543 54.8523C17.2646 56.1137 18.2373 57.0803 19.4639 57.5869C20.0621 57.8325 20.693 57.9565 21.3239 57.9565C21.6808 57.9565 22.0227 57.9022 22.3796 57.8325L22.6862 58.6053C22.7893 58.8327 22.9602 59.024 23.1814 59.1119C23.2845 59.1662 23.4026 59.1842 23.5232 59.1842C23.6414 59.1842 23.762 59.1662 23.8802 59.1119L24.5965 58.7965L26.0292 68.2125C26.165 69.0887 26.6601 69.8254 27.4092 70.2622C27.8365 70.5077 28.2964 70.6318 28.7564 70.6318C29.1158 70.6318 29.4904 70.562 29.8322 70.4043C30.9557 69.9132 31.6218 68.7553 31.5012 67.5121L30.8552 60.5671C31.843 60.2362 33.5145 59.4453 34.5023 57.8144C35.2011 56.6409 35.4399 55.2736 35.2011 53.7306C36.7695 53.4669 38.5617 53.2757 40.5046 53.2757C42.6688 53.2757 45.0214 53.5031 47.4269 54.1338L48.1256 55.8526C48.2614 56.2015 48.6032 56.4316 48.9777 56.4316C48.9777 56.4316 48.9777 56.4316 48.9953 56.4316L50.614 56.4135C51.3832 56.4135 52.097 56.0103 52.5243 55.3434C52.8661 54.8161 52.9667 54.1855 52.8485 53.591C54.1958 50.996 52.7631 44.9297 50.6492 39.8095ZM52.5243 53.3791L52.4564 53.5031L52.474 53.6427C52.5746 54.1519 52.474 54.6766 52.2001 55.116C51.8431 55.6768 51.2449 56.0103 50.5989 56.0103L48.9601 56.0284C48.7389 56.0284 48.5529 55.8862 48.4675 55.6949L47.7687 53.9761L47.6983 53.8004L47.5123 53.7487C45.2954 53.1697 42.9427 52.8725 40.5046 52.8725C38.7477 52.8725 36.9404 53.0301 35.1508 53.3274L34.7763 53.3972L34.8266 53.7823C35.0478 55.2374 34.8442 56.535 34.1957 57.605C33.2581 59.1481 31.6394 59.8847 30.7521 60.1819L30.4631 60.2879L30.4958 60.5851L31.1443 67.5276C31.2473 68.5976 30.6667 69.5979 29.6939 70.0192C29.3873 70.1407 29.0806 70.2105 28.7564 70.2105C28.3467 70.2105 27.9546 70.1045 27.5977 69.8952C26.9492 69.5281 26.5068 68.8794 26.4037 68.1247L24.971 58.7087L24.9032 58.2176L24.4608 58.4114L23.7444 58.7268C23.6766 58.7629 23.6087 58.7785 23.5408 58.7785C23.4705 58.7785 23.4026 58.7629 23.3347 58.7449C23.199 58.6932 23.0959 58.5872 23.0457 58.4476L22.739 57.6748L22.6184 57.3776L22.3117 57.4473C21.9724 57.5171 21.6482 57.5688 21.3415 57.5688C20.7433 57.5688 20.1652 57.4473 19.6172 57.2199C18.4761 56.7469 17.5888 55.8526 17.1112 54.6766L16.9252 54.2217C16.0732 52.1358 16.7719 49.7166 18.6118 48.4527L18.8682 48.2769L18.7501 47.9797L18.4409 47.2094C18.3228 46.9277 18.4585 46.5943 18.7325 46.4728L24.682 43.8778C24.7498 43.8416 24.8177 43.8416 24.8856 43.8416C24.956 43.8416 25.0238 43.8597 25.0917 43.8778C25.2274 43.9295 25.3305 44.0354 25.3807 44.175L25.5165 44.4904L25.6723 44.8755L26.0292 44.6842C28.5352 43.335 34.809 39.4244 38.7477 32.3941L38.8331 32.2364L38.7653 32.0606L38.0665 30.3418C37.981 30.1325 38.0313 29.8869 38.1846 29.7293L39.3283 28.5351C39.6852 28.1681 40.1804 27.9407 40.6906 27.9407C40.8113 27.9407 40.9294 27.9587 41.0501 27.9743C41.5452 28.0802 41.97 28.362 42.2616 28.7988L42.3294 28.9047L42.4476 28.9409C45.0566 29.7112 48.2614 35.0227 50.2898 39.9336C52.3207 44.86 53.8037 50.9262 52.5243 53.3791Z" fill="#F7F7F7"/>
</g>
<path d="M28.4502 55.483L28.792 55.3253L28.6387 54.9764L26.183 48.9954L24.886 45.8576L24.7327 45.4906L24.5794 45.1391L24.24 45.2968L19.9771 47.1551L19.6353 47.3128L19.7886 47.6643L20.0626 48.3467L23.403 56.4652L23.677 57.1501L23.8303 57.499L24.1722 57.3414L26.5575 56.3075L28.4502 55.483ZM24.0339 56.9743L23.7625 56.2894L20.4195 48.1735L20.148 47.4886L24.411 45.6302L24.5643 45.9998L25.8587 49.1376L28.3145 55.116L26.4394 55.9224L24.0339 56.9743Z" fill="#F7F7F7"/>
<path d="M49.3026 40.3885C47.8372 36.8475 46.03 33.6735 44.3082 31.7272L42.8076 30.0084L43.6773 32.1304L51.145 50.2775L52.0147 52.3969L51.8588 50.1017C51.7055 47.4705 50.768 43.9295 49.3026 40.3885ZM44.0342 31.9909C45.4845 33.6554 47.3068 36.5477 48.9607 40.5462C50.6146 44.5447 51.3662 47.9099 51.5019 50.1353L44.0342 31.9909Z" fill="#F7F7F7"/>
<path d="M40.0779 35.2346L39.6531 34.2163L39.3791 33.5494L38.987 34.1646C34.8095 40.8615 28.7922 44.5085 26.4043 45.7698L26.0977 45.9275L26.2334 46.2609L29.1491 53.361L29.2873 53.6944L29.6091 53.5729C31.1624 53.0302 35.3399 51.7482 40.4876 51.7482C42.5336 51.7482 44.5469 51.9601 46.4723 52.3452L47.171 52.4848L46.8996 51.8205L40.0779 35.2346ZM40.5052 51.345C35.3726 51.345 31.2303 52.5908 29.5085 53.1878L26.5928 46.0851C28.8248 44.9117 35.0483 41.213 39.3113 34.3584L39.7386 35.3742L46.5577 51.9601C44.4439 51.5207 42.4155 51.345 40.5052 51.345Z" fill="#F7F7F7"/>
<path d="M33.7361 53.591L33.344 53.6789C31.8082 54.0278 30.6671 54.3793 30.104 54.5732L29.7119 54.6947L29.8652 55.0798L30.001 55.4132C30.001 55.4494 30.001 55.4649 30.0186 55.5011L30.0538 55.589L30.3428 58.6053L30.3931 59.1119L30.8556 58.9206C31.964 58.4631 32.8161 57.7808 33.3088 56.9563C33.8039 56.1317 33.9573 55.1341 33.8039 53.9761L33.7361 53.591ZM32.9845 56.7805C32.4064 57.7446 31.4337 58.2899 30.7022 58.5872L30.4283 55.5373C30.4283 55.5011 30.4107 55.4649 30.3931 55.4494C30.378 55.3951 30.378 55.3253 30.3604 55.2736L30.2247 54.9583C30.9234 54.7128 32.0319 54.3793 33.4118 54.0821C33.5651 55.116 33.4294 56.0284 32.9845 56.7805Z" fill="#F7F7F7"/>
<path d="M29.0309 56.4316L28.5534 56.6409L26.2183 57.6567L25.9443 57.7808L25.9946 58.078L27.4952 67.967C27.563 68.3702 27.8018 68.7217 28.1437 68.9311C28.3322 69.0371 28.5534 69.1068 28.7746 69.1068C28.9455 69.1068 29.1164 69.0707 29.2873 69.0009C29.8152 68.7734 30.1394 68.2306 30.0715 67.6336L29.0812 56.9744L29.0309 56.4316ZM29.1491 68.6338C29.0309 68.6855 28.9103 68.7036 28.7922 68.7036C28.6388 68.7036 28.4855 68.6674 28.3473 68.5796C28.0934 68.44 27.9225 68.1945 27.8873 67.8972L26.3867 58.0082L28.7243 56.9925L29.7121 67.6517C29.7473 68.073 29.5261 68.4762 29.1491 68.6338Z" fill="#F7F7F7"/>
</g>
<defs>
<linearGradient id="paint0_linear_170_1957" x1="24.875" y1="50" x2="79.25" y2="5.625" gradientUnits="userSpaceOnUse">
<stop stop-color="#5C0C91"/>
<stop offset="0.0809998" stop-color="#5C0C91"/>
<stop offset="0.541" stop-color="#F97B02"/>
<stop offset="1" stop-color="#F97B02" stop-opacity="0"/>
</linearGradient>
<linearGradient id="paint1_linear_170_1957" x1="23.0664" y1="77.6916" x2="1.12604" y2="32.7756" gradientUnits="userSpaceOnUse">
<stop stop-color="#FF7D3D"/>
<stop offset="0.621" stop-color="#F97B02" stop-opacity="0"/>
</linearGradient>
<linearGradient id="paint2_linear_170_1957" x1="4" y1="40.25" x2="79.2157" y2="40.25" gradientUnits="userSpaceOnUse">
<stop stop-color="#5C0C91"/>
<stop offset="1" stop-color="#F97B02"/>
</linearGradient>
<clipPath id="clip0_170_1957">
<rect width="80" height="80" fill="white"/>
</clipPath>
</defs>
</svg>
