<svg width="80" height="80" viewBox="0 0 80 80" fill="none" xmlns="http://www.w3.org/2000/svg">
<g clip-path="url(#clip0_170_2010)">
<rect width="80" height="80" fill="white"/>
<circle cx="61.875" cy="19.375" r="15.625" fill="url(#paint0_linear_170_2010)"/>
<circle cx="17.7642" cy="62.7643" r="15.625" transform="rotate(-157.237 17.7642 62.7643)" fill="url(#paint1_linear_170_2010)"/>
<path d="M54.9593 70.0108C65.3878 62.6621 67.9545 60.705 71.7308 51.89C75.5346 43.0112 79.7715 36.2589 76.7595 25.3003C74.0912 15.5928 59.7579 8.23803 46.6277 11.8931C42.8861 12.9347 39.9044 15.0999 35.7886 15.651C29.1492 16.54 24.4823 13.4851 18.0864 13.2394C-8.48866 12.2187 1.78295 50.0164 8.80913 61.1156C19.8282 78.5223 39.9397 80.5946 54.9593 70.0108Z" fill="url(#paint2_linear_170_2010)"/>
<path d="M22.8156 48.3965C22.2948 48.3965 21.8677 48.8078 21.8677 49.3149V53.9039C21.8677 54.4084 22.2948 54.8197 22.8156 54.8197C23.3364 54.8197 23.7635 54.4084 23.7635 53.9039V49.3149C23.7635 48.8078 23.3364 48.3965 22.8156 48.3965Z" fill="#F7F7F7"/>
<mask id="mask0_170_2010" style="mask-type:luminance" maskUnits="userSpaceOnUse" x="9" y="14" width="58" height="56">
<path d="M9.55518 14.4445H66.4441V69.5556H9.55518V14.4445Z" fill="white"/>
</mask>
<g mask="url(#mask0_170_2010)">
<path d="M64.4961 57.5722H30.394V51.149C30.394 47.1024 26.9929 43.8076 22.8158 43.8076C18.6386 43.8076 15.2376 47.1024 15.2376 51.149V57.5722H11.4484V32.798H17.1334C17.6543 32.798 18.0787 32.3843 18.0787 31.8797V26.3724H55.022V39.2211C55.022 39.2337 55.0298 39.2464 55.0298 39.2564C55.0324 39.3649 55.0533 39.4684 55.0975 39.5693C55.0975 39.5718 55.0975 39.5743 55.1001 39.5794C55.1001 39.5819 55.1001 39.5819 55.1001 39.5819L57.9413 46.005C58.0898 46.3431 58.4335 46.5625 58.8111 46.5625C59.1887 46.5625 59.5325 46.3431 59.6809 46.005L62.5221 39.5819C62.5221 39.5819 62.5221 39.5819 62.5221 39.5794C62.5273 39.5743 62.5273 39.5718 62.5273 39.5693C62.5716 39.4684 62.5898 39.3649 62.5924 39.2564C62.5924 39.2464 62.6003 39.2337 62.6003 39.2211V26.3724H64.4961V57.5722ZM28.5008 62.1612C28.5008 65.1987 25.9513 67.6685 22.8158 67.6685C19.6829 67.6685 17.1334 65.1987 17.1334 62.1612V51.149C17.1334 48.1141 19.6829 45.6442 22.8158 45.6442C25.9513 45.6442 28.5008 48.1141 28.5008 51.149V62.1612ZM16.1855 27.6716V30.9614H12.7896L16.1855 27.6716ZM14.8469 26.3724L11.4484 29.6647V26.3724H14.8469ZM56.9179 16.2786H60.707V18.1152H56.9179V16.2786ZM60.2174 40.1369L58.8111 43.3131L57.4049 40.1369H60.2174ZM60.707 38.3028H56.9179V19.9493H60.707V38.3028ZM65.4414 24.5383H62.6003V15.3628C62.6003 14.8557 62.1758 14.4445 61.6523 14.4445H55.9699C55.4491 14.4445 55.022 14.8557 55.022 15.3628V24.5383H10.5031C9.97966 24.5383 9.55518 24.9495 9.55518 25.4566V58.4905C9.55518 58.9975 9.97966 59.4088 10.5031 59.4088H15.2376V62.1612C15.2376 66.2078 18.6386 69.5026 22.8158 69.5026C26.9929 69.5026 30.394 66.2078 30.394 62.1612V59.4088H65.4414C65.9649 59.4088 66.3894 58.9975 66.3894 58.4905V25.4566C66.3894 24.9495 65.9649 24.5383 65.4414 24.5383Z" fill="#F7F7F7"/>
</g>
<path d="M61.6517 53.9039H59.7585C59.2376 53.9039 58.8105 54.3152 58.8105 54.8197C58.8105 55.3268 59.2376 55.738 59.7585 55.738H61.6517C62.1752 55.738 62.5997 55.3268 62.5997 54.8197C62.5997 54.3152 62.1752 53.9039 61.6517 53.9039Z" fill="#F7F7F7"/>
<path d="M55.9701 53.9039H54.0742C53.5534 53.9039 53.1289 54.3152 53.1289 54.8197C53.1289 55.3268 53.5534 55.738 54.0742 55.738H55.9701C56.4909 55.738 56.918 55.3268 56.918 54.8197C56.918 54.3152 56.4909 53.9039 55.9701 53.9039Z" fill="#F7F7F7"/>
<path d="M48.1779 31.2994C47.8446 30.9083 47.2482 30.8478 46.8446 31.1682L37.0554 38.9309L28.1854 31.1985C27.8599 30.9109 27.3755 30.8831 27.0109 31.1228L14.6983 39.3825C14.2686 39.6726 14.1618 40.2428 14.4561 40.6616C14.641 40.9164 14.9378 41.0551 15.2373 41.0551C15.4274 41.0551 15.6123 41.0022 15.779 40.8937L27.4745 33.0477L36.3913 40.818C36.7403 41.1233 37.2611 41.1334 37.6231 40.8483L48.0425 32.5885C48.4462 32.2707 48.5113 31.6904 48.1779 31.2994Z" fill="#F7F7F7"/>
<path d="M41.5762 50.2333L44.6023 45.5408L47.6284 50.2333H41.5762ZM45.4044 43.3207C45.0581 42.7859 44.1466 42.7859 43.8002 43.3207L39.0632 50.6622C38.8809 50.9447 38.8705 51.303 39.0371 51.5931C39.2038 51.8857 39.5215 52.0674 39.8653 52.0674H49.3394C49.6831 52.0674 50.0009 51.8857 50.1675 51.5931C50.3342 51.303 50.3238 50.9447 50.1415 50.6622L45.4044 43.3207Z" fill="#F7F7F7"/>
</g>
<defs>
<linearGradient id="paint0_linear_170_2010" x1="23.125" y1="53.75" x2="77.5" y2="9.375" gradientUnits="userSpaceOnUse">
<stop stop-color="#5C0C91"/>
<stop offset="0.0809998" stop-color="#5C0C91"/>
<stop offset="0.541" stop-color="#F97B02"/>
<stop offset="1" stop-color="#F97B02" stop-opacity="0"/>
</linearGradient>
<linearGradient id="paint1_linear_170_2010" x1="-7.20638" y1="59.4306" x2="33.3892" y2="62.7643" gradientUnits="userSpaceOnUse">
<stop stop-color="#590B8C"/>
<stop offset="1" stop-color="#F97B02" stop-opacity="0"/>
</linearGradient>
<linearGradient id="paint2_linear_170_2010" x1="41.9134" y1="9.39799" x2="34.18" y2="76.5337" gradientUnits="userSpaceOnUse">
<stop stop-color="#5C0C91"/>
<stop offset="1" stop-color="#F97B02"/>
</linearGradient>
<clipPath id="clip0_170_2010">
<rect width="80" height="80" fill="white"/>
</clipPath>
</defs>
</svg>
