<svg width="72" height="72" viewBox="0 0 72 72" fill="none" xmlns="http://www.w3.org/2000/svg">
<mask id="mask0_58_23" style="mask-type:luminance" maskUnits="userSpaceOnUse" x="3" y="9" width="67" height="53">
<path d="M3 9H69.5922V62H3V9Z" fill="white"/>
</mask>
<g mask="url(#mask0_58_23)">
<path fill-rule="evenodd" clip-rule="evenodd" d="M46.3369 15.8724H69.6489V61.8015H3.01416V15.8724H17.1276L19.4291 8.97168H44.0354L46.3369 15.8724ZM42.4326 11.1951H21.0319L18.7305 18.0958H5.24111V59.5781H67.422V18.0958H44.7305L42.4326 11.1951Z" fill="#67075B"/>
</g>
<path fill-rule="evenodd" clip-rule="evenodd" d="M31.7299 20.4717C22.2299 20.4717 14.5171 28.188 14.5171 37.688C14.5171 47.188 22.2299 54.9008 31.7299 54.9008C41.2334 54.9008 48.9462 47.188 48.9462 37.688C48.9462 28.188 41.2334 20.4717 31.7299 20.4717ZM31.7299 22.6986C40.0029 22.6986 46.7192 29.4149 46.7192 37.688C46.7192 45.961 40.0029 52.6774 31.7299 52.6774C23.4568 52.6774 16.7405 45.961 16.7405 37.688C16.7405 29.4149 23.4568 22.6986 31.7299 22.6986Z" fill="#67075B"/>
<path fill-rule="evenodd" clip-rule="evenodd" d="M31.7303 25.1915C24.8332 25.1915 19.2339 30.7908 19.2339 37.688C19.2339 44.5851 24.8332 50.1844 31.7303 50.1844C38.6275 50.1844 44.2268 44.5851 44.2268 37.688C44.2268 30.7908 38.6275 25.1915 31.7303 25.1915ZM31.7303 27.4149C37.4006 27.4149 42.0034 32.0178 42.0034 37.688C42.0034 43.3547 37.4006 47.9575 31.7303 47.9575C26.0637 47.9575 21.4608 43.3547 21.4608 37.688C21.4608 32.0178 26.0637 27.4149 31.7303 27.4149Z" fill="#67075B"/>
<path fill-rule="evenodd" clip-rule="evenodd" d="M51.3223 20.4717V27.2979H62.7478V20.4717H51.3223ZM53.5457 22.6986V25.0745H60.5208V22.6986H53.5457Z" fill="#67075B"/>
</svg>
