<svg width="304" height="77" viewBox="0 0 304 77" fill="none" xmlns="http://www.w3.org/2000/svg">
<g clip-path="url(#clip0_44_5)">
<path d="M106.283 59.0731L90.3125 36.7548C96.2738 34.6081 100.75 28.3867 100.75 21.0838C100.75 11.0007 92.231 2.8457 81.5821 2.8457H63.4871V15.9549C73.2797 30.5443 82.861 44.7131 92.4423 59.1059L106.283 59.0731ZM74.7863 14.0049H82.0265C83.8798 14.0532 85.644 14.8169 86.9549 16.1382C88.2659 17.4595 89.0235 19.2377 89.0715 21.1057C89.0715 25.1859 85.6628 28.4086 82.0265 28.2065H74.7863V14.0049Z" fill="#0D0D0D"/>
<path d="M69.0799 59.1605C72.1028 59.1605 74.5534 56.6906 74.5534 53.6437C74.5534 50.5969 72.1028 48.127 69.0799 48.127C66.057 48.127 63.6064 50.5969 63.6064 53.6437C63.6064 56.6906 66.057 59.1605 69.0799 59.1605Z" fill="#0D0D0D"/>
<path d="M178.165 59.117H190.304L163.473 1.38745H163.262L136.642 59.117H148.565C155.16 44.9536 156.016 43.02 163.468 26.71C170.925 43.2385 171.353 44.3091 178.165 59.117Z" fill="#0D0D0D"/>
<path d="M242.118 59.1171L226.152 36.7987C232.114 34.6521 236.585 28.4252 236.585 21.1278C236.585 11.0392 228.065 2.88965 217.417 2.88965H199.322V15.9988C209.114 30.5937 218.701 44.7625 228.277 59.1498L242.118 59.1171ZM210.604 14.0434H217.856C219.708 14.093 221.472 14.8571 222.783 16.1782C224.093 17.4992 224.851 19.2766 224.901 21.1442C224.901 25.2244 221.492 28.4416 217.856 28.245H210.604V14.0434Z" fill="#0D0D0D"/>
<path d="M204.914 59.0951C207.937 59.0951 210.388 56.6251 210.388 53.5783C210.388 50.5315 207.937 48.0615 204.914 48.0615C201.891 48.0615 199.441 50.5315 199.441 53.5783C199.441 56.6251 201.891 59.0951 204.914 59.0951Z" fill="#0D0D0D"/>
<path d="M303.8 23.0777C302.646 7.96935 290.344 1.38745 279.197 1.38745C265.361 1.38745 251.135 9.90841 251.135 30.4407C251.135 48.6515 264.976 59.117 278.427 59.117C288.426 59.117 298.419 53.3052 302.272 40.5456C298.814 46.3574 293.433 49.0666 287.64 49.0666C273.035 49.0666 264.575 36.2852 264.575 23.105L303.8 23.0777ZM264.592 21.5319C265.003 7.96935 271.897 2.54543 278.427 2.54543C284.957 2.54543 290.729 7.58154 290.729 14.1744C290.729 16.4958 290.344 19.205 288.81 21.5319H264.592Z" fill="#0D0D0D"/>
<path d="M40.2601 57.3037H18.7834V62.9734H40.2601V57.3037Z" fill="#0D0D0D"/>
<path d="M40.2601 63.8254H18.7834V66.6603H40.2601V63.8254Z" fill="#0D0D0D"/>
<path d="M40.2601 67.5178H18.7834V68.9325H40.2601V67.5178Z" fill="#0D0D0D"/>
<path d="M116.011 53.2615C116.011 49.8039 118.39 47.4661 121.82 47.4661C125.354 47.4661 127.733 49.8039 127.733 53.2615C127.733 56.8283 125.354 59.1169 121.82 59.1169C118.39 59.1169 116.011 56.8064 116.011 53.2615ZM115.799 6.96425C115.799 0.797475 120.85 0 125.354 0H127.624V36.3779C127.624 42.5447 122.454 43.3422 118.07 43.3422H115.799V6.96425Z" fill="#0D0D0D"/>
<path d="M38.9431 3.74712C24.1538 -1.74781 7.20229 6.13954 1.7559 21.0458C-3.69049 35.952 3.92362 52.9611 19.0976 58.5981C27.0531 61.5531 33.876 60.2367 40.1407 57.3309L40.2274 57.2926L40.2654 46.6086H37.3444C32.4941 48.7007 27.3458 49.7549 22.5497 47.9742C14.5563 45.0082 8.88768 34.439 12.2531 25.1752C15.6184 15.9113 26.4516 11.2303 34.8407 14.3437C39.4362 16.0534 43.0238 19.8987 45.094 24.7819L54.3826 18.626C50.6975 11.3122 45.7389 6.27063 38.9431 3.74712Z" fill="#0D0D0D"/>
<path d="M175.959 76.7761V69.3694L179.687 74.7059L179.286 74.624L183.004 69.3694V76.7706H182.088V71.5542L182.142 72.0404L179.46 75.8639L176.75 72.0404L176.918 71.5925V76.7761H175.959Z" fill="#0D0D0D"/>
<path d="M185.34 76.7759L188.45 69.3037H188.504L191.61 76.7759H190.526L188.201 70.8113L188.884 70.3634L186.283 76.7759H185.34ZM187.16 74.0449H189.805L190.119 74.8806H186.868L187.16 74.0449Z" fill="#0D0D0D"/>
<path d="M195.842 69.5988C196.18 69.5954 196.517 69.6452 196.84 69.7463C197.132 69.8304 197.403 69.9756 197.636 70.1723C197.866 70.3597 198.051 70.5968 198.178 70.866C198.309 71.1671 198.374 71.4932 198.368 71.8219C198.367 72.1051 198.325 72.3867 198.243 72.6576C198.161 72.9296 198.022 73.1809 197.837 73.395C197.633 73.6313 197.38 73.818 197.094 73.9412C196.736 74.0862 196.353 74.155 195.967 74.1433H194.883V76.787H193.929V69.5988H195.842ZM195.94 73.2147C196.181 73.2224 196.422 73.1777 196.644 73.0837C196.815 73.0096 196.966 72.8954 197.083 72.7505C197.185 72.6176 197.262 72.4678 197.311 72.308C197.352 72.1642 197.374 72.0153 197.376 71.8656C197.376 71.7117 197.352 71.5587 197.306 71.4122C197.255 71.2539 197.174 71.1072 197.067 70.9807C196.95 70.8431 196.806 70.7315 196.644 70.653C196.446 70.5603 196.229 70.5154 196.01 70.5219H194.927V73.1929L195.94 73.2147ZM197.111 73.761L198.975 76.7815H197.891L196 73.7937L197.111 73.761Z" fill="#0D0D0D"/>
<path d="M202.389 72.4881L202.356 72.8432L202.487 72.6684L205.402 69.5986H206.632L203.69 72.6738L206.8 76.7759H205.586L202.99 73.291L202.389 73.8755V76.7759H201.424V69.5986H202.389V72.4881Z" fill="#0D0D0D"/>
<path d="M209.093 69.5986H213.715V70.5217H210.046V72.7066H213.325V73.6297H210.046V75.8528H213.84V76.7759H209.076L209.093 69.5986Z" fill="#0D0D0D"/>
<path d="M215.97 69.5986H220.695V70.5217H218.788V76.7759H217.856V70.5217H215.991L215.97 69.5986Z" fill="#0D0D0D"/>
<path d="M223.199 69.5986H224.153V76.7759H223.199V69.5986Z" fill="#0D0D0D"/>
<path d="M233.344 77.0164L227.843 71.3958L228.12 71.4614V76.7925H227.161V69.3694H227.209L232.656 75.0173L232.428 74.9681V69.5879H233.377V77.0164H233.344Z" fill="#0D0D0D"/>
<path d="M241.977 76.1589C241.853 76.2628 241.714 76.3475 241.565 76.4102C241.376 76.4997 241.18 76.5746 240.98 76.6341C240.763 76.7016 240.542 76.7546 240.319 76.7925C240.11 76.8327 239.897 76.8528 239.684 76.8526C239.159 76.8614 238.637 76.7706 238.145 76.585C237.71 76.4183 237.312 76.1657 236.975 75.8421C236.654 75.5332 236.4 75.1614 236.227 74.7497C236.049 74.3054 235.959 73.8304 235.961 73.3514C235.953 72.8019 236.052 72.2561 236.254 71.7455C236.436 71.2944 236.707 70.8855 237.051 70.5438C237.386 70.2199 237.782 69.9672 238.216 69.801C238.663 69.6321 239.137 69.5469 239.614 69.5497C240.004 69.5464 240.392 69.596 240.768 69.6972C241.093 69.7837 241.406 69.9102 241.7 70.0741L241.375 70.959C241.223 70.8682 241.061 70.7949 240.893 70.7405C240.697 70.675 240.498 70.6203 240.297 70.5766C240.108 70.5347 239.916 70.5128 239.722 70.5111C239.335 70.5069 238.95 70.5717 238.584 70.7022C238.256 70.8213 237.956 71.0109 237.707 71.258C237.459 71.5051 237.266 71.8038 237.143 72.1333C237.008 72.5002 236.942 72.8891 236.948 73.2804C236.941 73.6539 237.007 74.0252 237.143 74.3728C237.264 74.6864 237.448 74.971 237.685 75.2085C237.935 75.45 238.232 75.6361 238.557 75.7547C238.914 75.8893 239.293 75.956 239.674 75.9514C239.916 75.9505 240.157 75.9249 240.394 75.8749C240.606 75.834 240.81 75.7622 241.001 75.6619V74.2362H239.587V73.3131H241.955L241.977 76.1589Z" fill="#0D0D0D"/>
<path d="M248.881 76.7763V69.599H250.816C251.431 69.5826 252.044 69.6942 252.615 69.9267C253.073 70.1202 253.483 70.4151 253.813 70.7897C254.106 71.1389 254.33 71.5412 254.474 71.975C254.612 72.3926 254.683 72.8295 254.685 73.2696C254.695 73.7703 254.599 74.2675 254.403 74.7279C254.224 75.1416 253.962 75.5135 253.634 75.8204C253.306 76.1236 252.923 76.3608 252.507 76.5195C252.078 76.6844 251.622 76.7678 251.163 76.7653L248.881 76.7763ZM249.835 75.8532H250.973C251.342 75.8566 251.709 75.7957 252.057 75.6729C252.377 75.5611 252.671 75.3866 252.924 75.1595C253.172 74.9276 253.368 74.6444 253.498 74.3292C253.639 73.9828 253.709 73.6112 253.704 73.2368C253.714 72.8361 253.64 72.4379 253.487 72.0679C253.356 71.7489 253.157 71.4634 252.902 71.2322C252.654 71.0072 252.365 70.8328 252.051 70.7187C251.733 70.6025 251.398 70.5433 251.06 70.5439H249.829L249.835 75.8532Z" fill="#0D0D0D"/>
<path d="M257.276 69.5986H261.904V70.5217H258.229V72.7066H261.508V73.6297H258.229V75.8528H262.023V76.7759H257.259L257.276 69.5986Z" fill="#0D0D0D"/>
<path d="M268.797 76.7761V69.3694L272.531 74.7059L272.124 74.624L275.842 69.3694V76.7706H274.899V71.5542L274.959 72.0404L272.249 75.8639L269.539 72.0404L269.707 71.5925V76.7761H268.797Z" fill="#0D0D0D"/>
<path d="M278.438 73.1929C278.434 72.7103 278.53 72.2322 278.72 71.7891C278.903 71.3528 279.168 70.956 279.5 70.6202C279.832 70.2791 280.226 70.0047 280.66 69.8119C281.104 69.6209 281.583 69.5225 282.066 69.5225C282.549 69.5225 283.028 69.6209 283.472 69.8119C283.907 70.006 284.302 70.2801 284.637 70.6202C284.973 70.9555 285.241 71.3523 285.429 71.7891C285.62 72.2319 285.718 72.71 285.716 73.1929C285.719 73.683 285.621 74.1684 285.429 74.6185C285.053 75.4984 284.354 76.1973 283.478 76.5685C283.032 76.7599 282.553 76.8566 282.069 76.8526C281.585 76.8568 281.106 76.762 280.66 76.574C280.229 76.3929 279.835 76.1316 279.5 75.8038C279.154 75.4645 278.88 75.0583 278.694 74.6097C278.508 74.1611 278.413 73.6792 278.416 73.1929H278.438ZM279.424 73.1929C279.422 73.7259 279.575 74.2479 279.864 74.6943C280.153 75.1408 280.565 75.4923 281.05 75.7055C281.38 75.8488 281.736 75.9213 282.096 75.9185C282.452 75.9207 282.804 75.8482 283.131 75.7055C283.446 75.5681 283.73 75.3674 283.965 75.1156C284.196 74.8607 284.379 74.5666 284.507 74.2471C284.646 73.9095 284.716 73.5473 284.713 73.182C284.715 72.8168 284.645 72.4549 284.507 72.1169C284.372 71.7901 284.177 71.4918 283.933 71.2375C283.691 70.9883 283.404 70.788 283.088 70.6476C282.761 70.5043 282.408 70.4317 282.052 70.4345C281.694 70.4304 281.339 70.505 281.012 70.653C280.371 70.9406 279.866 71.4672 279.603 72.1223C279.478 72.4649 279.417 72.828 279.424 73.1929Z" fill="#0D0D0D"/>
<path d="M288.306 76.7763V69.599H290.247C290.862 69.5826 291.475 69.6942 292.046 69.9267C292.503 70.1202 292.91 70.4152 293.238 70.7897C293.535 71.1373 293.761 71.5399 293.905 71.975C294.042 72.3926 294.114 72.8295 294.116 73.2696C294.126 73.7703 294.03 74.2675 293.834 74.7279C293.655 75.1433 293.391 75.5157 293.059 75.8204C292.733 76.1259 292.35 76.3635 291.932 76.5195C291.505 76.6844 291.051 76.7677 290.593 76.7653L288.306 76.7763ZM289.26 75.8532H290.404C290.773 75.8566 291.139 75.7957 291.488 75.6729C291.807 75.5598 292.101 75.3855 292.355 75.1595C292.602 74.9262 292.797 74.6434 292.929 74.3292C293.211 73.5946 293.211 72.7806 292.929 72.046C292.794 71.7278 292.593 71.4427 292.338 71.2103C292.093 70.9843 291.806 70.8098 291.493 70.6969C291.173 70.5801 290.836 70.521 290.496 70.5221H289.266L289.26 75.8532Z" fill="#0D0D0D"/>
<path d="M295.606 76.7759L298.717 69.3037H298.777L301.855 76.7759H300.771L298.451 70.8113L299.129 70.3634L296.527 76.7759H295.606ZM297.427 74.0449H300.077L300.391 74.8806H297.14L297.427 74.0449Z" fill="#0D0D0D"/>
</g>
<defs>
<clipPath id="clip0_44_5">
<rect width="303.8" height="77" fill="white"/>
</clipPath>
</defs>
</svg>
